<svg width="690" height="80" viewBox="0 0 690 80" fill="none" xmlns="http://www.w3.org/2000/svg">
<path d="M55.3116 67.2664L57.2124 66.6446L56.7616 65.2664H55.3116V67.2664ZM29.4318 67.2664V65.2664H27.9817L27.5309 66.6446L29.4318 67.2664ZM25.5937 79V81H27.0438L27.4946 79.6218L25.5937 79ZM0.0429077 79L-1.83536 78.3129L-2.81835 81H0.0429077V79ZM28.4448 1.36072V-0.639283H27.0469L26.5666 0.673611L28.4448 1.36072ZM56.5178 1.36072L58.3969 0.675952L57.9177 -0.639283H56.5178V1.36072ZM84.8101 79V81H87.6676L86.6892 78.3152L84.8101 79ZM59.1497 79L57.2488 79.6218L57.6996 81H59.1497V79ZM49.3899 48.9532V50.9532H52.1426L51.292 48.3352L49.3899 48.9532ZM42.3717 27.3501L44.2738 26.7322L42.3717 20.8772L40.4695 26.7322L42.3717 27.3501ZM35.3534 48.9532L33.4513 48.3352L32.6008 50.9532H35.3534V48.9532ZM55.3116 65.2664H29.4318V69.2664H55.3116V65.2664ZM27.5309 66.6446L23.6928 78.3782L27.4946 79.6218L31.3327 67.8882L27.5309 66.6446ZM25.5937 77H0.0429077V81H25.5937V77ZM1.92117 79.6871L30.3231 2.04782L26.5666 0.673611L-1.83536 78.3129L1.92117 79.6871ZM28.4448 3.36072H56.5178V-0.639283H28.4448V3.36072ZM54.6387 2.04548L82.931 79.6848L86.6892 78.3152L58.3969 0.675952L54.6387 2.04548ZM84.8101 77H59.1497V81H84.8101V77ZM61.0505 78.3782L57.2124 66.6446L53.4107 67.8882L57.2488 79.6218L61.0505 78.3782ZM51.292 48.3352L44.2738 26.7322L40.4695 27.9681L47.4878 49.5711L51.292 48.3352ZM40.4695 26.7322L33.4513 48.3352L37.2556 49.5711L44.2738 27.9681L40.4695 26.7322ZM35.3534 50.9532H49.3899V46.9532H35.3534V50.9532ZM161.51 39.1934L161.008 37.2574L161.054 41.1407L161.51 39.1934ZM172.367 45.9923L170.763 47.1869L170.777 47.2061L170.792 47.225L172.367 45.9923ZM169.516 73.517L170.783 75.0638L170.786 75.0616L169.516 73.517ZM109.532 79H107.532V81H109.532V79ZM109.532 1.36072V-0.639283H107.532V1.36072H109.532ZM170.941 33.0525L169.355 31.8348L169.35 31.8404L170.941 33.0525ZM133.876 31.6269H131.876V33.6269H133.876V31.6269ZM148.132 30.311L146.883 28.7492L146.856 28.7704L146.83 28.7924L148.132 30.311ZM148.132 22.0865L146.771 23.552L146.825 23.6022L146.883 23.6482L148.132 22.0865ZM133.876 20.6609V18.6609H131.876V20.6609H133.876ZM149.777 58.2743L151.012 59.8469L151.019 59.8415L151.026 59.836L149.777 58.2743ZM133.876 48.5145V46.5145H131.876V48.5145H133.876ZM133.876 59.4805H131.876V61.4805H133.876V59.4805ZM161.054 41.1407C165.333 42.1435 168.52 44.1756 170.763 47.1869L173.971 44.7978C171.096 40.937 167.045 38.4365 161.967 37.2462L161.054 41.1407ZM170.792 47.225C173.135 50.2196 174.315 53.692 174.315 57.726H178.315C178.315 52.8409 176.862 48.4909 173.942 44.7597L170.792 47.225ZM174.315 57.726C174.315 64.0328 172.24 68.6864 168.245 71.9724L170.786 75.0616C175.857 70.8907 178.315 65.017 178.315 57.726H174.315ZM168.248 71.9702C164.278 75.2243 158.366 77 150.215 77V81C158.879 81 165.834 79.1204 170.783 75.0638L168.248 71.9702ZM150.215 77H109.532V81H150.215V77ZM111.532 79V1.36072H107.532V79H111.532ZM109.532 3.36072H149.119V-0.639283H109.532V3.36072ZM149.119 3.36072C156.744 3.36072 162.48 5.02128 166.553 8.10855L168.969 4.92093C163.977 1.13617 157.285 -0.639283 149.119 -0.639283V3.36072ZM166.553 8.10855C170.504 11.1039 172.56 15.4731 172.56 21.5382H176.56C176.56 14.444 174.083 8.79761 168.969 4.92093L166.553 8.10855ZM172.56 21.5382C172.56 25.6967 171.461 29.0897 169.355 31.8348L172.528 34.2701C175.246 30.728 176.56 26.4448 176.56 21.5382H172.56ZM169.35 31.8404C167.299 34.5333 164.549 36.3396 161.008 37.2574L162.012 41.1294C166.368 40.0003 169.905 37.7126 172.532 34.2645L169.35 31.8404ZM133.876 33.6269H143.307V29.6269H133.876V33.6269ZM143.307 33.6269C145.698 33.6269 147.88 33.1608 149.433 31.8295L146.83 28.7924C146.337 29.2157 145.302 29.6269 143.307 29.6269V33.6269ZM149.381 31.8727C151.088 30.5073 151.777 28.4907 151.777 26.2535H147.777C147.777 27.6717 147.369 28.36 146.883 28.7492L149.381 31.8727ZM151.777 26.2535C151.777 23.9742 151.106 21.9046 149.381 20.5247L146.883 23.6482C147.351 24.0228 147.777 24.7313 147.777 26.2535H151.777ZM149.493 20.6209C147.937 19.1765 145.729 18.6609 143.307 18.6609V22.6609C145.271 22.6609 146.279 23.0956 146.771 23.552L149.493 20.6209ZM143.307 18.6609H133.876V22.6609H143.307V18.6609ZM131.876 20.6609V31.6269H135.876V20.6609H131.876ZM144.952 61.4805C147.314 61.4805 149.466 61.0616 151.012 59.8469L148.541 56.7016C148.04 57.0952 146.976 57.4805 144.952 57.4805V61.4805ZM151.026 59.836C152.751 58.4561 153.422 56.3865 153.422 54.1072H149.422C149.422 55.6294 148.996 56.3379 148.527 56.7125L151.026 59.836ZM153.422 54.1072C153.422 51.8525 152.756 49.8207 151.112 48.3996C149.524 47.0268 147.351 46.5145 144.952 46.5145V50.5145C146.866 50.5145 147.928 50.9344 148.496 51.4258C149.009 51.8689 149.422 52.6334 149.422 54.1072H153.422ZM144.952 46.5145H133.876V50.5145H144.952V46.5145ZM131.876 48.5145V59.4805H135.876V48.5145H131.876ZM133.876 61.4805H144.952V57.4805H133.876V61.4805ZM221.34 74.6136L220.355 76.354L220.364 76.359L221.34 74.6136ZM206.865 60.3578L205.143 61.3746L206.865 60.3578ZM206.865 19.345L208.587 20.3617L206.865 19.345ZM221.34 5.19881L222.31 6.94814L222.317 6.94418L221.34 5.19881ZM261.585 5.19881L260.6 6.93916L260.608 6.94368L260.616 6.94812L261.585 5.19881ZM275.951 19.345L274.22 20.3462L274.224 20.354L274.229 20.3617L275.951 19.345ZM275.951 60.3578L274.229 59.341L274.224 59.3488L274.22 59.3565L275.951 60.3578ZM261.476 74.6136L260.499 72.8682L260.49 72.8733L261.476 74.6136ZM252.703 52.4623L254.221 53.7639L254.229 53.7551L254.236 53.7462L252.703 52.4623ZM252.703 27.2405L251.169 28.5243L251.177 28.5332L251.184 28.5421L252.703 27.2405ZM230.223 27.2405L231.741 28.5421L231.749 28.5332L231.756 28.5243L230.223 27.2405ZM230.223 52.4623L228.689 53.7462L228.697 53.7551L228.704 53.7639L230.223 52.4623ZM241.518 77.7676C234.535 77.7676 228.148 76.1307 222.317 72.8682L220.364 76.359C226.815 79.9686 233.879 81.7676 241.518 81.7676V77.7676ZM222.326 72.8733C216.566 69.6117 211.994 65.1107 208.587 59.341L205.143 61.3746C208.901 67.7406 213.979 72.7435 220.355 76.3539L222.326 72.8733ZM208.587 59.341C205.201 53.6054 203.492 47.1261 203.492 39.8514H199.492C199.492 47.7829 201.364 54.9745 205.143 61.3746L208.587 59.341ZM203.492 39.8514C203.492 32.5767 205.201 26.0973 208.587 20.3617L205.143 18.3282C201.364 24.7283 199.492 31.9199 199.492 39.8514H203.492ZM208.587 20.3617C211.991 14.5957 216.559 10.1354 222.31 6.94812L220.371 3.44951C213.986 6.988 208.903 11.9585 205.143 18.3282L208.587 20.3617ZM222.317 6.94418C228.148 3.68176 234.535 2.04479 241.518 2.04479V-1.95521C233.879 -1.95521 226.815 -0.156162 220.364 3.45345L222.317 6.94418ZM241.518 2.04479C248.5 2.04479 254.847 3.6817 260.6 6.93916L262.571 3.45847C256.188 -0.156103 249.156 -1.95521 241.518 -1.95521V2.04479ZM260.616 6.94812C266.363 10.1334 270.89 14.5887 274.22 20.3462L277.682 18.3437C273.994 11.9655 268.943 6.99004 262.555 3.44951L260.616 6.94812ZM274.229 20.3617C277.615 26.0973 279.324 32.5767 279.324 39.8514H283.324C283.324 31.9199 281.452 24.7283 277.673 18.3282L274.229 20.3617ZM279.324 39.8514C279.324 47.1261 277.615 53.6054 274.229 59.341L277.673 61.3746C281.452 54.9745 283.324 47.7829 283.324 39.8514H279.324ZM274.22 59.3565C270.891 65.1117 266.328 69.6071 260.499 72.8682L262.452 76.359C268.906 72.748 273.992 67.7396 277.682 61.3591L274.22 59.3565ZM260.49 72.8733C254.735 76.1325 248.423 77.7676 241.518 77.7676V81.7676C249.087 81.7676 256.081 79.9668 262.461 76.3539L260.49 72.8733ZM241.518 59.068C246.803 59.068 251.136 57.3638 254.221 53.7639L251.184 51.1607C249.007 53.7017 245.883 55.068 241.518 55.068V59.068ZM254.236 53.7462C257.247 50.1506 258.651 45.4485 258.651 39.8514H254.651C254.651 44.7816 253.423 48.4868 251.169 51.1784L254.236 53.7462ZM258.651 39.8514C258.651 34.1919 257.252 29.4742 254.221 25.9389L251.184 28.5421C253.418 31.1477 254.651 34.8373 254.651 39.8514H258.651ZM254.237 25.9566C251.156 22.277 246.819 20.5251 241.518 20.5251V24.5251C245.867 24.5251 248.986 25.9167 251.169 28.5243L254.237 25.9566ZM241.518 20.5251C236.155 20.5251 231.776 22.2698 228.689 25.9566L231.756 28.5243C233.933 25.9239 237.084 24.5251 241.518 24.5251V20.5251ZM228.704 25.9389C225.674 29.4742 224.275 34.1919 224.275 39.8514H228.275C228.275 34.8373 229.508 31.1477 231.741 28.5421L228.704 25.9389ZM224.275 39.8514C224.275 45.4485 225.679 50.1506 228.689 53.7462L231.756 51.1784C229.503 48.4868 228.275 44.7816 228.275 39.8514H224.275ZM228.704 53.7639C231.796 57.3708 236.171 59.068 241.518 59.068V55.068C237.068 55.068 233.913 53.6947 231.741 51.1607L228.704 53.7639ZM333.093 1.36072H335.093V-0.639283H333.093V1.36072ZM335.396 53.6685L333.776 54.8416L333.799 54.8733L333.823 54.9042L335.396 53.6685ZM350.858 53.6685L352.404 54.938L352.414 54.9248L352.425 54.9113L350.858 53.6685ZM353.38 1.36072V-0.639283H351.38V1.36072H353.38ZM377.615 1.36072H379.615V-0.639283H377.615V1.36072ZM373.009 64.0862L374.731 65.1045L374.737 65.094L373.009 64.0862ZM360.399 75.8199L361.283 77.6136L360.399 75.8199ZM324.978 75.8199L324.053 77.5931L324.064 77.5984L324.978 75.8199ZM313.135 64.0862L311.382 65.0491L313.135 64.0862ZM308.858 1.36072V-0.639283H306.858V1.36072H308.858ZM331.093 1.36072V45.1151H335.093V1.36072H331.093ZM331.093 45.1151C331.093 48.9664 331.917 52.2748 333.776 54.8416L337.016 52.4955C335.804 50.8221 335.093 48.4281 335.093 45.1151H331.093ZM333.823 54.9042C335.933 57.5889 339.178 58.739 343.072 58.739V54.739C339.948 54.739 338.076 53.8422 336.969 52.4329L333.823 54.9042ZM343.072 58.739C346.972 58.739 350.227 57.5872 352.404 54.938L349.313 52.3991C348.126 53.8439 346.191 54.739 343.072 54.739V58.739ZM352.425 54.9113C354.466 52.3379 355.38 49.002 355.38 45.1151H351.38C351.38 48.3925 350.613 50.759 349.291 52.4258L352.425 54.9113ZM355.38 45.1151V1.36072H351.38V45.1151H355.38ZM353.38 3.36072H377.615V-0.639283H353.38V3.36072ZM375.615 1.36072V45.1151H379.615V1.36072H375.615ZM375.615 45.1151C375.615 52.2196 374.14 58.1795 371.282 63.0785L374.737 65.094C378.02 59.4657 379.615 52.7781 379.615 45.1151H375.615ZM371.288 63.068C368.412 67.9291 364.497 71.5685 359.514 74.0261L361.283 77.6136C366.973 74.8075 371.465 70.6245 374.731 65.1045L371.288 63.068ZM359.514 74.0261C354.48 76.5085 348.83 77.7676 342.524 77.7676V81.7676C349.377 81.7676 355.643 80.395 361.283 77.6136L359.514 74.0261ZM342.524 77.7676C336.217 77.7676 330.689 76.508 325.893 74.0413L324.064 77.5984C329.502 80.3954 335.672 81.7676 342.524 81.7676V77.7676ZM325.903 74.0467C321.224 71.6051 317.557 67.983 314.888 63.1233L311.382 65.0491C314.415 70.5706 318.644 74.7709 324.053 77.593L325.903 74.0467ZM314.888 63.1233C312.236 58.2948 310.858 52.3209 310.858 45.1151H306.858C306.858 52.8229 308.332 59.4966 311.382 65.0491L314.888 63.1233ZM310.858 45.1151V1.36072H306.858V45.1151H310.858ZM308.858 3.36072H333.093V-0.639283H308.858V3.36072ZM468.277 1.36072H470.277V-0.639283H468.277V1.36072ZM468.277 20.6609V22.6609H470.277V20.6609H468.277ZM447.66 20.6609V18.6609H445.66V20.6609H447.66ZM447.66 79V81H449.66V79H447.66ZM423.316 79H421.316V81H423.316V79ZM423.316 20.6609H425.316V18.6609H423.316V20.6609ZM402.919 20.6609H400.919V22.6609H402.919V20.6609ZM402.919 1.36072V-0.639283H400.919V1.36072H402.919ZM466.277 1.36072V20.6609H470.277V1.36072H466.277ZM468.277 18.6609H447.66V22.6609H468.277V18.6609ZM445.66 20.6609V79H449.66V20.6609H445.66ZM447.66 77H423.316V81H447.66V77ZM425.316 79V20.6609H421.316V79H425.316ZM423.316 18.6609H402.919V22.6609H423.316V18.6609ZM404.919 20.6609V1.36072H400.919V20.6609H404.919ZM402.919 3.36072H468.277V-0.639283H402.919V3.36072ZM555.69 1.36072H557.69V-0.639283H555.69V1.36072ZM557.993 53.6685L556.373 54.8416L556.396 54.8733L556.42 54.9042L557.993 53.6685ZM573.455 53.6685L575.001 54.938L575.011 54.9248L575.022 54.9113L573.455 53.6685ZM575.977 1.36072V-0.639283H573.977V1.36072H575.977ZM600.212 1.36072H602.212V-0.639283H600.212V1.36072ZM595.606 64.0862L597.328 65.1045L597.334 65.094L595.606 64.0862ZM582.996 75.8199L583.88 77.6136L582.996 75.8199ZM547.575 75.8199L546.65 77.5931L546.661 77.5984L547.575 75.8199ZM535.732 64.0862L533.979 65.0491L535.732 64.0862ZM531.455 1.36072V-0.639283H529.455V1.36072H531.455ZM553.69 1.36072V45.1151H557.69V1.36072H553.69ZM553.69 45.1151C553.69 48.9664 554.514 52.2748 556.373 54.8416L559.613 52.4955C558.401 50.8221 557.69 48.4281 557.69 45.1151H553.69ZM556.42 54.9042C558.53 57.5889 561.775 58.739 565.669 58.739V54.739C562.545 54.739 560.673 53.8422 559.566 52.4329L556.42 54.9042ZM565.669 58.739C569.569 58.739 572.824 57.5872 575.001 54.938L571.91 52.3991C570.723 53.8439 568.788 54.739 565.669 54.739V58.739ZM575.022 54.9113C577.063 52.3379 577.977 49.002 577.977 45.1151H573.977C573.977 48.3925 573.21 50.759 571.888 52.4258L575.022 54.9113ZM577.977 45.1151V1.36072H573.977V45.1151H577.977ZM575.977 3.36072H600.212V-0.639283H575.977V3.36072ZM598.212 1.36072V45.1151H602.212V1.36072H598.212ZM598.212 45.1151C598.212 52.2196 596.737 58.1795 593.879 63.0785L597.334 65.094C600.617 59.4657 602.212 52.7781 602.212 45.1151H598.212ZM593.885 63.068C591.009 67.9291 587.094 71.5685 582.111 74.0261L583.88 77.6136C589.57 74.8075 594.062 70.6245 597.328 65.1045L593.885 63.068ZM582.111 74.0261C577.077 76.5085 571.427 77.7676 565.121 77.7676V81.7676C571.974 81.7676 578.24 80.395 583.88 77.6136L582.111 74.0261ZM565.121 77.7676C558.814 77.7676 553.286 76.508 548.49 74.0413L546.661 77.5984C552.099 80.3954 558.269 81.7676 565.121 81.7676V77.7676ZM548.5 74.0467C543.821 71.6051 540.154 67.983 537.485 63.1233L533.979 65.0491C537.012 70.5706 541.241 74.7709 546.65 77.593L548.5 74.0467ZM537.485 63.1233C534.833 58.2948 533.455 52.3209 533.455 45.1151H529.455C529.455 52.8229 530.929 59.4966 533.979 65.0491L537.485 63.1233ZM533.455 45.1151V1.36072H529.455V45.1151H533.455ZM531.455 3.36072H555.69V-0.639283H531.455V3.36072ZM637.25 73.2977L636.069 74.9117L636.08 74.9198L636.091 74.9278L637.25 73.2977ZM627.49 54.1072V52.1072H625.365L625.494 54.2287L627.49 54.1072ZM653.37 54.1072L655.363 53.9438L655.213 52.1072H653.37V54.1072ZM662.581 59.9192L663.691 61.5833L663.705 61.5735L663.72 61.5635L662.581 59.9192ZM661.046 52.5719L660.026 54.2925L660.05 54.3067L660.075 54.3203L661.046 52.5719ZM651.835 48.6242L651.169 50.5102L651.172 50.5114L651.835 48.6242ZM639.443 43.4702L638.516 45.2426L638.525 45.2469L638.533 45.251L639.443 43.4702ZM631.109 36.1229L632.726 34.9466L631.109 36.1229ZM627.709 23.7314L629.709 23.7603L629.709 23.7458V23.7314H627.709ZM631.547 10.9011L629.936 9.71697L629.931 9.72279L631.547 10.9011ZM642.184 2.78629L641.437 0.931379L641.426 0.935682L642.184 2.78629ZM680.017 6.62439L678.778 8.19419L678.788 8.202L680.017 6.62439ZM688.9 25.1569V27.1569H690.974L690.898 25.0836L688.9 25.1569ZM662.691 25.1569L660.692 25.2236L660.756 27.1569H662.691V25.1569ZM654.795 20.1126L656.21 21.5268L656.247 21.4896L656.282 21.4505L654.795 20.1126ZM656.66 27.3501L655.611 29.0535L655.649 29.0768L655.688 29.0985L656.66 27.3501ZM665.981 31.4076L665.271 33.2776L665.281 33.2814L665.981 31.4076ZM678.043 36.6712L677.1 38.4348L677.108 38.4393L677.117 38.4437L678.043 36.6712ZM686.377 43.6895L684.801 44.92L686.377 43.6895ZM686.377 67.8147L688.072 68.8777L688.076 68.8703L688.081 68.8629L686.377 67.8147ZM676.179 76.5875L675.32 74.7812L676.179 76.5875ZM660.278 77.7676C651.305 77.7676 644.062 75.6865 638.409 71.6676L636.091 74.9278C642.573 79.5355 650.682 81.7676 660.278 81.7676V77.7676ZM638.431 71.6836C632.984 67.6983 629.967 61.8883 629.486 53.9857L625.494 54.2287C626.036 63.1406 629.526 70.1243 636.069 74.9117L638.431 71.6836ZM627.49 56.1072H653.37V52.1072H627.49V56.1072ZM651.376 54.2706C651.578 56.7255 652.242 58.8849 653.627 60.4498C655.07 62.0801 657.054 62.7964 659.291 62.7964V58.7964C657.946 58.7964 657.153 58.3979 656.622 57.7984C656.033 57.1336 655.527 55.9483 655.363 53.9438L651.376 54.2706ZM659.291 62.7964C660.904 62.7964 662.412 62.4359 663.691 61.5833L661.472 58.2551C660.996 58.5721 660.311 58.7964 659.291 58.7964V62.7964ZM663.72 61.5635C665.291 60.4758 666.007 58.8252 666.007 56.9583H662.007C662.007 57.7233 661.772 58.0466 661.443 58.2748L663.72 61.5635ZM666.007 56.9583C666.007 54.223 664.45 52.1751 662.017 50.8236L660.075 54.3203C661.59 55.162 662.007 56.0383 662.007 56.9583H666.007ZM662.066 50.8514C659.918 49.5785 656.696 48.2106 652.497 46.737L651.172 50.5114C655.307 51.9621 658.227 53.226 660.026 54.2925L662.066 50.8514ZM652.5 46.7382C647.581 45.0019 643.538 43.3173 640.353 41.6893L638.533 45.251C641.927 46.9859 646.146 48.7374 651.169 50.5102L652.5 46.7382ZM640.37 41.6977C637.451 40.1723 634.902 37.9383 632.726 34.9466L629.491 37.2993C631.994 40.741 635.001 43.4051 638.516 45.2426L640.37 41.6977ZM632.726 34.9466C630.703 32.164 629.641 28.4894 629.709 23.7603L625.71 23.7024C625.632 29.062 626.836 33.6485 629.491 37.2993L632.726 34.9466ZM629.709 23.7314C629.709 19.0397 630.893 15.1933 633.163 12.0795L629.931 9.72279C627.084 13.6272 625.709 18.3343 625.709 23.7314H629.709ZM633.159 12.0853C635.555 8.8243 638.794 6.33728 642.943 4.6369L641.426 0.935682C636.656 2.89064 632.804 5.81352 629.936 9.71698L633.159 12.0853ZM642.932 4.64118C647.194 2.92278 652.016 2.04479 657.427 2.04479V-1.95521C651.58 -1.95521 646.24 -1.00552 641.437 0.931408L642.932 4.64118ZM657.427 2.04479C666.635 2.04479 673.679 4.16863 678.778 8.19416L681.256 5.05463C675.243 0.30736 667.227 -1.95521 657.427 -1.95521V2.04479ZM678.788 8.202C683.893 12.1798 686.627 17.7741 686.901 25.2303L690.898 25.0836C690.587 16.6025 687.4 9.84176 681.246 5.04679L678.788 8.202ZM688.9 23.1569H662.691V27.1569H688.9V23.1569ZM664.69 25.0903C664.609 22.6598 663.994 20.45 662.407 18.976L659.685 21.9071C660.145 22.3339 660.627 23.2677 660.692 25.2236L664.69 25.0903ZM662.407 18.976C660.995 17.6648 659.258 17.016 657.318 17.016V21.016C658.301 21.016 659.05 21.3176 659.685 21.9071L662.407 18.976ZM657.318 17.016C655.753 17.016 654.363 17.6031 653.309 18.7747L656.282 21.4505C656.544 21.1599 656.835 21.016 657.318 21.016V17.016ZM653.381 18.6984C652.236 19.844 651.808 21.3743 651.808 22.9637H655.808C655.808 22.0675 656.039 21.6971 656.21 21.5268L653.381 18.6984ZM651.808 22.9637C651.808 25.6045 653.303 27.633 655.611 29.0535L657.708 25.6468C656.214 24.7278 655.808 23.832 655.808 22.9637H651.808ZM655.688 29.0985C657.794 30.2681 661.012 31.6619 665.271 33.2775L666.69 29.5376C662.469 27.9365 659.473 26.6254 657.631 25.6018L655.688 29.0985ZM665.281 33.2814C670.131 35.0908 674.062 36.81 677.1 38.4348L678.987 34.9077C675.737 33.1696 671.627 31.3797 666.68 29.5338L665.281 33.2814ZM677.117 38.4437C680.069 39.9867 682.628 42.1367 684.801 44.92L687.954 42.4589C685.448 39.2476 682.451 36.7187 678.97 34.8988L677.117 38.4437ZM684.801 44.92C686.816 47.5018 687.887 50.809 687.887 54.9845H691.887C691.887 50.0946 690.618 45.8719 687.954 42.4589L684.801 44.92ZM687.887 54.9845C687.887 59.3912 686.807 63.3007 684.674 66.7665L688.081 68.8629C690.627 64.7255 691.887 60.0816 691.887 54.9845H687.887ZM684.683 66.7517C682.57 70.1198 679.48 72.8039 675.32 74.7812L677.038 78.3937C681.798 76.1309 685.506 72.9664 688.072 68.8777L684.683 66.7517ZM675.32 74.7812C671.186 76.7466 666.193 77.7676 660.278 77.7676V81.7676C666.646 81.7676 672.253 80.6686 677.038 78.3937L675.32 74.7812Z" fill="#6947EF"/>
</svg>
