<svg width="668" height="80" viewBox="0 0 668 80" fill="none" xmlns="http://www.w3.org/2000/svg">
<path d="M4.89552 19.5643L3.12428 18.6355L3.11982 18.644L3.11543 18.6525L4.89552 19.5643ZM18.274 5.63745L19.264 7.37529L19.2722 7.37059L19.2804 7.36581L18.274 5.63745ZM56.655 4.4312L55.7807 6.22993L55.7956 6.23719L55.8106 6.2442L56.655 4.4312ZM69.5949 15.0682L67.9675 16.2307L67.9735 16.2392L67.9797 16.2476L69.5949 15.0682ZM76.2842 31.1882V33.1882H78.673L78.253 30.8367L76.2842 31.1882ZM50.6237 31.1882L48.8048 32.0198L49.339 33.1882H50.6237V31.1882ZM45.5794 25.2666L44.4439 26.913L44.4762 26.9353L44.5093 26.9562L45.5794 25.2666ZM28.4724 27.6791L26.8998 26.4435L26.8906 26.4552L26.8816 26.467L28.4724 27.6791ZM28.4724 52.4623L26.8816 53.6744L26.8906 53.6862L26.8998 53.6979L28.4724 52.4623ZM45.5794 54.9845L46.6754 56.6574L46.6821 56.653L46.6888 56.6486L45.5794 54.9845ZM50.6237 48.9532V46.9532H49.339L48.8048 48.1216L50.6237 48.9532ZM76.2842 48.9532L78.253 49.3047L78.673 46.9532H76.2842V48.9532ZM69.5949 65.0732L67.9797 63.8938L67.9735 63.9022L67.9675 63.9107L69.5949 65.0732ZM56.655 75.8199L57.5091 77.6284L57.5197 77.6233L56.655 75.8199ZM18.274 74.6136L17.2677 76.3419L17.2759 76.3467L17.2841 76.3514L18.274 74.6136ZM4.89552 60.5771L3.11543 61.4889L3.11982 61.4974L3.12428 61.5059L4.89552 60.5771ZM2.2898 40.0707C2.2898 32.667 3.76871 26.1514 6.67561 20.476L3.11543 18.6525C-0.118629 24.9666 -1.7102 32.122 -1.7102 40.0707H2.2898ZM6.66676 20.4931C9.63612 14.8306 13.8274 10.4721 19.264 7.37529L17.2841 3.89962C11.1698 7.38246 6.4421 12.3085 3.12428 18.6355L6.66676 20.4931ZM19.2804 7.36581C24.7017 4.20912 31.1411 2.59309 38.6708 2.59309V-1.40691C30.5557 -1.40691 23.3972 0.339979 17.2677 3.9091L19.2804 7.36581ZM38.6708 2.59309C45.1389 2.59309 50.8274 3.82209 55.7807 6.22993L57.5294 2.63246C51.9553 -0.0771686 45.6543 -1.40691 38.6708 -1.40691V2.59309ZM55.8106 6.2442C60.8477 8.59024 64.8864 11.9172 67.9675 16.2307L71.2224 13.9057C67.7238 9.00776 63.1359 5.2434 57.4995 2.6182L55.8106 6.2442ZM67.9797 16.2476C71.147 20.5855 73.2671 25.6696 74.3153 31.5398L78.253 30.8367C77.1081 24.425 74.7687 18.7624 71.2102 13.8888L67.9797 16.2476ZM76.2842 29.1882H50.6237V33.1882H76.2842V29.1882ZM52.4427 30.3567C51.1259 27.4762 49.1977 25.1908 46.6495 23.577L44.5093 26.9562C46.3475 28.1204 47.7822 29.7828 48.8048 32.0198L52.4427 30.3567ZM46.7149 23.6202C44.2343 21.9094 41.3823 21.0734 38.2322 21.0734V25.0734C40.6382 25.0734 42.6843 25.6995 44.4439 26.913L46.7149 23.6202ZM38.2322 21.0734C33.5589 21.0734 29.7123 22.8639 26.8998 26.4435L30.0451 28.9148C32.0576 26.3533 34.7174 25.0734 38.2322 25.0734V21.0734ZM26.8816 26.467C24.1984 29.9886 22.9633 34.5919 22.9633 40.0707H26.9633C26.9633 35.1683 28.0676 31.5105 30.0633 28.8912L26.8816 26.467ZM22.9633 40.0707C22.9633 45.5495 24.1984 50.1527 26.8816 53.6744L30.0633 51.2502C28.0676 48.6308 26.9633 44.9731 26.9633 40.0707H22.9633ZM26.8998 53.6979C29.7123 57.2775 33.5589 59.068 38.2322 59.068V55.068C34.7174 55.068 32.0576 53.7881 30.0451 51.2266L26.8998 53.6979ZM38.2322 59.068C41.3607 59.068 44.1985 58.2802 46.6754 56.6574L44.4833 53.3115C42.7201 54.4668 40.6597 55.068 38.2322 55.068V59.068ZM46.6888 56.6486C49.2123 54.9662 51.1293 52.6577 52.4427 49.7847L48.8048 48.1216C47.7788 50.366 46.3329 52.0784 44.47 53.3204L46.6888 56.6486ZM50.6237 50.9532H76.2842V46.9532H50.6237V50.9532ZM74.3153 48.6016C73.2671 54.4718 71.147 59.5559 67.9797 63.8938L71.2102 66.2526C74.7687 61.379 77.1081 55.7164 78.253 49.3047L74.3153 48.6016ZM67.9675 63.9107C64.8829 68.2291 60.8373 71.5967 55.7904 74.0164L57.5197 77.6233C63.1463 74.9256 67.7274 71.1287 71.2224 66.2357L67.9675 63.9107ZM55.801 74.0114C50.8429 76.3527 45.1471 77.5483 38.6708 77.5483V81.5483C45.6462 81.5483 51.9398 80.2583 57.5091 77.6284L55.801 74.0114ZM38.6708 77.5483C31.1338 77.5483 24.6883 75.9656 19.2639 72.8758L17.2841 76.3514C23.4107 79.8412 30.563 81.5483 38.6708 81.5483V77.5483ZM19.2804 72.8852C13.8345 69.7142 9.63803 65.3144 6.66676 59.6483L3.12428 61.5059C6.44019 67.8293 11.1628 72.7872 17.2677 76.3419L19.2804 72.8852ZM6.67561 59.6654C3.76871 53.99 2.2898 47.4744 2.2898 40.0707H-1.7102C-1.7102 48.0194 -0.118629 55.1747 3.11543 61.4889L6.67561 59.6654ZM121.895 74.6136L120.91 76.354L120.918 76.359L121.895 74.6136ZM107.42 60.3578L105.698 61.3746L107.42 60.3578ZM107.42 19.345L109.142 20.3617L107.42 19.345ZM121.895 5.19881L122.865 6.94814L122.872 6.94418L121.895 5.19881ZM162.14 5.19881L161.155 6.93916L161.163 6.94368L161.171 6.94812L162.14 5.19881ZM176.506 19.345L174.774 20.3462L174.779 20.354L174.783 20.3617L176.506 19.345ZM176.506 60.3578L174.783 59.341L174.779 59.3488L174.774 59.3565L176.506 60.3578ZM162.031 74.6136L161.054 72.8682L161.045 72.8733L162.031 74.6136ZM153.258 52.4623L154.776 53.7639L154.784 53.7551L154.791 53.7462L153.258 52.4623ZM153.258 27.2405L151.724 28.5243L151.732 28.5332L151.739 28.5421L153.258 27.2405ZM130.777 27.2405L132.296 28.5421L132.304 28.5332L132.311 28.5243L130.777 27.2405ZM130.777 52.4623L129.244 53.7462L129.251 53.7551L129.259 53.7639L130.777 52.4623ZM142.072 77.7676C135.09 77.7676 128.702 76.1307 122.872 72.8682L120.918 76.359C127.37 79.9686 134.434 81.7676 142.072 81.7676V77.7676ZM122.881 72.8733C117.121 69.6117 112.548 65.1107 109.142 59.341L105.698 61.3746C109.456 67.7406 114.534 72.7435 120.91 76.3539L122.881 72.8733ZM109.142 59.341C105.756 53.6054 104.047 47.1261 104.047 39.8514H100.047C100.047 47.7829 101.919 54.9745 105.698 61.3746L109.142 59.341ZM104.047 39.8514C104.047 32.5767 105.756 26.0973 109.142 20.3617L105.698 18.3282C101.919 24.7283 100.047 31.9199 100.047 39.8514H104.047ZM109.142 20.3617C112.546 14.5957 117.113 10.1354 122.865 6.94812L120.926 3.44951C114.541 6.988 109.458 11.9585 105.698 18.3282L109.142 20.3617ZM122.872 6.94418C128.702 3.68176 135.09 2.04479 142.072 2.04479V-1.95521C134.434 -1.95521 127.37 -0.156162 120.918 3.45345L122.872 6.94418ZM142.072 2.04479C149.055 2.04479 155.402 3.6817 161.155 6.93916L163.126 3.45847C156.743 -0.156103 149.711 -1.95521 142.072 -1.95521V2.04479ZM161.171 6.94812C166.918 10.1334 171.445 14.5887 174.774 20.3462L178.237 18.3437C174.548 11.9655 169.498 6.99004 163.11 3.44951L161.171 6.94812ZM174.783 20.3617C178.17 26.0973 179.879 32.5767 179.879 39.8514H183.879C183.879 31.9199 182.006 24.7283 178.228 18.3282L174.783 20.3617ZM179.879 39.8514C179.879 47.1261 178.17 53.6054 174.783 59.341L178.228 61.3746C182.006 54.9745 183.879 47.7829 183.879 39.8514H179.879ZM174.774 59.3565C171.446 65.1117 166.882 69.6071 161.054 72.8682L163.007 76.359C169.461 72.748 174.547 67.7396 178.237 61.3591L174.774 59.3565ZM161.045 72.8733C155.289 76.1325 148.978 77.7676 142.072 77.7676V81.7676C149.642 81.7676 156.636 79.9668 163.016 76.3539L161.045 72.8733ZM142.072 59.068C147.357 59.068 151.691 57.3638 154.776 53.7639L151.739 51.1607C149.561 53.7017 146.438 55.068 142.072 55.068V59.068ZM154.791 53.7462C157.802 50.1506 159.206 45.4485 159.206 39.8514H155.206C155.206 44.7816 153.978 48.4868 151.724 51.1784L154.791 53.7462ZM159.206 39.8514C159.206 34.1919 157.807 29.4742 154.776 25.9389L151.739 28.5421C153.973 31.1477 155.206 34.8373 155.206 39.8514H159.206ZM154.791 25.9566C151.711 22.277 147.373 20.5251 142.072 20.5251V24.5251C146.422 24.5251 149.541 25.9167 151.724 28.5243L154.791 25.9566ZM142.072 20.5251C136.71 20.5251 132.331 22.2698 129.244 25.9566L132.311 28.5243C134.488 25.9239 137.639 24.5251 142.072 24.5251V20.5251ZM129.259 25.9389C126.229 29.4742 124.83 34.1919 124.83 39.8514H128.83C128.83 34.8373 130.063 31.1477 132.296 28.5421L129.259 25.9389ZM124.83 39.8514C124.83 45.4485 126.234 50.1506 129.244 53.7462L132.311 51.1784C130.058 48.4868 128.83 44.7816 128.83 39.8514H124.83ZM129.259 53.7639C132.351 57.3708 136.725 59.068 142.072 59.068V55.068C137.623 55.068 134.468 53.6947 132.296 51.1607L129.259 53.7639ZM284.311 79V81H286.311V79H284.311ZM259.966 79L258.297 80.1018L258.89 81H259.966V79ZM234.196 39.961L235.865 38.8592L232.196 33.3009V39.961H234.196ZM234.196 79V81H236.196V79H234.196ZM209.852 79H207.852V81H209.852V79ZM209.852 1.36072V-0.639283H207.852V1.36072H209.852ZM234.196 1.36072L235.874 0.271718L235.282 -0.639283H234.196V1.36072ZM259.966 41.0576L258.289 42.1466L261.966 47.8116V41.0576H259.966ZM259.966 1.36072V-0.639283H257.966V1.36072H259.966ZM284.311 1.36072H286.311V-0.639283H284.311V1.36072ZM284.311 77H259.966V81H284.311V77ZM261.636 77.8982L235.865 38.8592L232.527 41.0629L258.297 80.1018L261.636 77.8982ZM232.196 39.961V79H236.196V39.961H232.196ZM234.196 77H209.852V81H234.196V77ZM211.852 79V1.36072H207.852V79H211.852ZM209.852 3.36072H234.196V-0.639283H209.852V3.36072ZM232.519 2.44972L258.289 42.1466L261.644 39.9686L235.874 0.271718L232.519 2.44972ZM261.966 41.0576V1.36072H257.966V41.0576H261.966ZM259.966 3.36072H284.311V-0.639283H259.966V3.36072ZM282.311 1.36072V79H286.311V1.36072H282.311ZM375.471 1.36072H377.471V-0.639283H375.471V1.36072ZM375.471 20.6609V22.6609H377.471V20.6609H375.471ZM354.855 20.6609V18.6609H352.855V20.6609H354.855ZM354.855 79V81H356.855V79H354.855ZM330.51 79H328.51V81H330.51V79ZM330.51 20.6609H332.51V18.6609H330.51V20.6609ZM310.114 20.6609H308.114V22.6609H310.114V20.6609ZM310.114 1.36072V-0.639283H308.114V1.36072H310.114ZM373.471 1.36072V20.6609H377.471V1.36072H373.471ZM375.471 18.6609H354.855V22.6609H375.471V18.6609ZM352.855 20.6609V79H356.855V20.6609H352.855ZM354.855 77H330.51V81H354.855V77ZM332.51 79V20.6609H328.51V79H332.51ZM330.51 18.6609H310.114V22.6609H330.51V18.6609ZM312.114 20.6609V1.36072H308.114V20.6609H312.114ZM310.114 3.36072H375.471V-0.639283H310.114V3.36072ZM451.05 67.2664L452.951 66.6446L452.5 65.2664H451.05V67.2664ZM425.17 67.2664V65.2664H423.72L423.269 66.6446L425.17 67.2664ZM421.332 79V81H422.782L423.233 79.6218L421.332 79ZM395.781 79L393.903 78.3129L392.92 81H395.781V79ZM424.183 1.36072V-0.639283H422.785L422.305 0.673611L424.183 1.36072ZM452.256 1.36072L454.135 0.675952L453.656 -0.639283H452.256V1.36072ZM480.548 79V81H483.406L482.427 78.3152L480.548 79ZM454.888 79L452.987 79.6218L453.438 81H454.888V79ZM445.128 48.9532V50.9532H447.881L447.03 48.3352L445.128 48.9532ZM438.11 27.3501L440.012 26.7322L438.11 20.8772L436.208 26.7322L438.11 27.3501ZM431.092 48.9532L429.19 48.3352L428.339 50.9532H431.092V48.9532ZM451.05 65.2664H425.17V69.2664H451.05V65.2664ZM423.269 66.6446L419.431 78.3782L423.233 79.6218L427.071 67.8882L423.269 66.6446ZM421.332 77H395.781V81H421.332V77ZM397.659 79.6871L426.061 2.04782L422.305 0.673611L393.903 78.3129L397.659 79.6871ZM424.183 3.36072H452.256V-0.639283H424.183V3.36072ZM450.377 2.04548L478.669 79.6848L482.427 78.3152L454.135 0.675952L450.377 2.04548ZM480.548 77H454.888V81H480.548V77ZM456.789 78.3782L452.951 66.6446L449.149 67.8882L452.987 79.6218L456.789 78.3782ZM447.03 48.3352L440.012 26.7322L436.208 27.9681L443.226 49.5711L447.03 48.3352ZM436.208 26.7322L429.19 48.3352L432.994 49.5711L440.012 27.9681L436.208 26.7322ZM431.092 50.9532H445.128V46.9532H431.092V50.9532ZM507.682 19.5643L505.911 18.6355L505.907 18.644L505.902 18.6525L507.682 19.5643ZM521.061 5.63745L522.051 7.37529L522.059 7.37059L522.067 7.36581L521.061 5.63745ZM559.442 4.4312L558.568 6.22993L558.582 6.23719L558.597 6.2442L559.442 4.4312ZM572.382 15.0682L570.754 16.2307L570.76 16.2392L570.767 16.2476L572.382 15.0682ZM579.071 31.1882V33.1882H581.46L581.04 30.8367L579.071 31.1882ZM553.411 31.1882L551.592 32.0198L552.126 33.1882H553.411V31.1882ZM548.366 25.2666L547.231 26.913L547.263 26.9353L547.296 26.9562L548.366 25.2666ZM531.259 27.6791L529.687 26.4435L529.677 26.4552L529.668 26.467L531.259 27.6791ZM531.259 52.4623L529.668 53.6744L529.677 53.6862L529.687 53.6979L531.259 52.4623ZM548.366 54.9845L549.462 56.6574L549.469 56.653L549.476 56.6486L548.366 54.9845ZM553.411 48.9532V46.9532H552.126L551.592 48.1216L553.411 48.9532ZM579.071 48.9532L581.04 49.3047L581.46 46.9532H579.071V48.9532ZM572.382 65.0732L570.767 63.8938L570.76 63.9022L570.754 63.9107L572.382 65.0732ZM559.442 75.8199L560.296 77.6284L560.307 77.6233L559.442 75.8199ZM521.061 74.6136L520.055 76.3419L520.063 76.3467L520.071 76.3514L521.061 74.6136ZM507.682 60.5771L505.902 61.4889L505.907 61.4974L505.911 61.5059L507.682 60.5771ZM505.077 40.0707C505.077 32.667 506.556 26.1514 509.462 20.476L505.902 18.6525C502.668 24.9666 501.077 32.122 501.077 40.0707H505.077ZM509.454 20.4931C512.423 14.8306 516.614 10.4721 522.051 7.37529L520.071 3.89962C513.957 7.38246 509.229 12.3085 505.911 18.6355L509.454 20.4931ZM522.067 7.36581C527.489 4.20912 533.928 2.59309 541.458 2.59309V-1.40691C533.342 -1.40691 526.184 0.339979 520.055 3.9091L522.067 7.36581ZM541.458 2.59309C547.926 2.59309 553.614 3.82209 558.568 6.22993L560.316 2.63246C554.742 -0.0771686 548.441 -1.40691 541.458 -1.40691V2.59309ZM558.597 6.2442C563.635 8.59024 567.673 11.9172 570.754 16.2307L574.009 13.9057C570.511 9.00776 565.923 5.2434 560.286 2.6182L558.597 6.2442ZM570.767 16.2476C573.934 20.5855 576.054 25.6696 577.102 31.5398L581.04 30.8367C579.895 24.425 577.555 18.7624 573.997 13.8888L570.767 16.2476ZM579.071 29.1882H553.411V33.1882H579.071V29.1882ZM555.23 30.3567C553.913 27.4762 551.984 25.1908 549.436 23.577L547.296 26.9562C549.134 28.1204 550.569 29.7828 551.592 32.0198L555.23 30.3567ZM549.502 23.6202C547.021 21.9094 544.169 21.0734 541.019 21.0734V25.0734C543.425 25.0734 545.471 25.6995 547.231 26.913L549.502 23.6202ZM541.019 21.0734C536.346 21.0734 532.499 22.8639 529.687 26.4435L532.832 28.9148C534.844 26.3533 537.504 25.0734 541.019 25.0734V21.0734ZM529.668 26.467C526.985 29.9886 525.75 34.5919 525.75 40.0707H529.75C529.75 35.1683 530.854 31.5105 532.85 28.8912L529.668 26.467ZM525.75 40.0707C525.75 45.5495 526.985 50.1527 529.668 53.6744L532.85 51.2502C530.854 48.6308 529.75 44.9731 529.75 40.0707H525.75ZM529.687 53.6979C532.499 57.2775 536.346 59.068 541.019 59.068V55.068C537.504 55.068 534.844 53.7881 532.832 51.2266L529.687 53.6979ZM541.019 59.068C544.148 59.068 546.985 58.2802 549.462 56.6574L547.27 53.3115C545.507 54.4668 543.447 55.068 541.019 55.068V59.068ZM549.476 56.6486C551.999 54.9662 553.916 52.6577 555.23 49.7847L551.592 48.1216C550.566 50.366 549.12 52.0784 547.257 53.3204L549.476 56.6486ZM553.411 50.9532H579.071V46.9532H553.411V50.9532ZM577.102 48.6016C576.054 54.4718 573.934 59.5559 570.767 63.8938L573.997 66.2526C577.555 61.379 579.895 55.7164 581.04 49.3047L577.102 48.6016ZM570.754 63.9107C567.67 68.2291 563.624 71.5967 558.577 74.0164L560.307 77.6233C565.933 74.9256 570.514 71.1287 574.009 66.2357L570.754 63.9107ZM558.588 74.0114C553.63 76.3527 547.934 77.5483 541.458 77.5483V81.5483C548.433 81.5483 554.727 80.2583 560.296 77.6284L558.588 74.0114ZM541.458 77.5483C533.921 77.5483 527.475 75.9656 522.051 72.8758L520.071 76.3514C526.198 79.8412 533.35 81.5483 541.458 81.5483V77.5483ZM522.067 72.8852C516.621 69.7142 512.425 65.3144 509.454 59.6483L505.911 61.5059C509.227 67.8293 513.95 72.7872 520.055 76.3419L522.067 72.8852ZM509.462 59.6654C506.556 53.99 505.077 47.4744 505.077 40.0707H501.077C501.077 48.0194 502.668 55.1747 505.902 61.4889L509.462 59.6654ZM667.998 1.36072H669.998V-0.639283H667.998V1.36072ZM667.998 20.6609V22.6609H669.998V20.6609H667.998ZM647.381 20.6609V18.6609H645.381V20.6609H647.381ZM647.381 79V81H649.381V79H647.381ZM623.037 79H621.037V81H623.037V79ZM623.037 20.6609H625.037V18.6609H623.037V20.6609ZM602.64 20.6609H600.64V22.6609H602.64V20.6609ZM602.64 1.36072V-0.639283H600.64V1.36072H602.64ZM665.998 1.36072V20.6609H669.998V1.36072H665.998ZM667.998 18.6609H647.381V22.6609H667.998V18.6609ZM645.381 20.6609V79H649.381V20.6609H645.381ZM647.381 77H623.037V81H647.381V77ZM625.037 79V20.6609H621.037V79H625.037ZM623.037 18.6609H602.64V22.6609H623.037V18.6609ZM604.64 20.6609V1.36072H600.64V20.6609H604.64ZM602.64 3.36072H667.998V-0.639283H602.64V3.36072Z" fill="#6947EF"/>
</svg>
