<svg width="691" height="90" viewBox="0 0 691 90" fill="none" xmlns="http://www.w3.org/2000/svg">
<rect width="691" height="90" fill="black"/>
<path d="M16.8955 24.5643L15.1243 23.6355L15.1198 23.644L15.1154 23.6525L16.8955 24.5643ZM30.274 10.6375L31.264 12.3753L31.2722 12.3706L31.2804 12.3658L30.274 10.6375ZM68.655 9.4312L67.7807 11.2299L67.7956 11.2372L67.8106 11.2442L68.655 9.4312ZM81.5949 20.0682L79.9675 21.2307L79.9735 21.2392L79.9797 21.2476L81.5949 20.0682ZM88.2842 36.1882V38.1882H90.673L90.253 35.8367L88.2842 36.1882ZM62.6237 36.1882L60.8048 37.0198L61.339 38.1882H62.6237V36.1882ZM57.5794 30.2666L56.4439 31.913L56.4762 31.9353L56.5093 31.9562L57.5794 30.2666ZM40.4724 32.6791L38.8998 31.4435L38.8906 31.4552L38.8816 31.467L40.4724 32.6791ZM40.4724 57.4623L38.8816 58.6744L38.8906 58.6862L38.8998 58.6979L40.4724 57.4623ZM57.5794 59.9845L58.6754 61.6574L58.6821 61.653L58.6888 61.6486L57.5794 59.9845ZM62.6237 53.9532V51.9532H61.339L60.8048 53.1216L62.6237 53.9532ZM88.2842 53.9532L90.253 54.3047L90.673 51.9532H88.2842V53.9532ZM81.5949 70.0732L79.9797 68.8938L79.9735 68.9022L79.9675 68.9107L81.5949 70.0732ZM68.655 80.8199L69.5091 82.6284L69.5197 82.6233L68.655 80.8199ZM30.274 79.6136L29.2677 81.3419L29.2759 81.3467L29.2841 81.3514L30.274 79.6136ZM16.8955 65.5771L15.1154 66.4889L15.1198 66.4974L15.1243 66.5059L16.8955 65.5771ZM14.2898 45.0707C14.2898 37.667 15.7687 31.1514 18.6756 25.476L15.1154 23.6525C11.8814 29.9666 10.2898 37.122 10.2898 45.0707H14.2898ZM18.6668 25.4931C21.6361 19.8306 25.8274 15.4721 31.264 12.3753L29.2841 8.89962C23.1698 12.3825 18.4421 17.3085 15.1243 23.6355L18.6668 25.4931ZM31.2804 12.3658C36.7017 9.20912 43.1411 7.59309 50.6708 7.59309V3.59309C42.5557 3.59309 35.3972 5.33998 29.2677 8.9091L31.2804 12.3658ZM50.6708 7.59309C57.1389 7.59309 62.8274 8.82209 67.7807 11.2299L69.5294 7.63246C63.9553 4.92283 57.6543 3.59309 50.6708 3.59309V7.59309ZM67.8106 11.2442C72.8477 13.5902 76.8864 16.9172 79.9675 21.2307L83.2224 18.9057C79.7238 14.0078 75.1359 10.2434 69.4995 7.6182L67.8106 11.2442ZM79.9797 21.2476C83.147 25.5855 85.2671 30.6696 86.3153 36.5398L90.253 35.8367C89.1081 29.425 86.7687 23.7624 83.2102 18.8888L79.9797 21.2476ZM88.2842 34.1882H62.6237V38.1882H88.2842V34.1882ZM64.4427 35.3567C63.1259 32.4762 61.1977 30.1908 58.6495 28.577L56.5093 31.9562C58.3475 33.1204 59.7822 34.7828 60.8048 37.0198L64.4427 35.3567ZM58.7149 28.6202C56.2343 26.9094 53.3823 26.0734 50.2322 26.0734V30.0734C52.6382 30.0734 54.6843 30.6995 56.4439 31.913L58.7149 28.6202ZM50.2322 26.0734C45.5589 26.0734 41.7123 27.8639 38.8998 31.4435L42.0451 33.9148C44.0576 31.3533 46.7174 30.0734 50.2322 30.0734V26.0734ZM38.8816 31.467C36.1984 34.9886 34.9633 39.5919 34.9633 45.0707H38.9633C38.9633 40.1683 40.0676 36.5105 42.0633 33.8912L38.8816 31.467ZM34.9633 45.0707C34.9633 50.5495 36.1984 55.1527 38.8816 58.6744L42.0633 56.2502C40.0676 53.6308 38.9633 49.9731 38.9633 45.0707H34.9633ZM38.8998 58.6979C41.7123 62.2775 45.5589 64.068 50.2322 64.068V60.068C46.7174 60.068 44.0576 58.7881 42.0451 56.2266L38.8998 58.6979ZM50.2322 64.068C53.3607 64.068 56.1985 63.2802 58.6754 61.6574L56.4833 58.3115C54.7201 59.4668 52.6597 60.068 50.2322 60.068V64.068ZM58.6888 61.6486C61.2123 59.9662 63.1293 57.6577 64.4427 54.7847L60.8048 53.1216C59.7788 55.366 58.3329 57.0784 56.47 58.3204L58.6888 61.6486ZM62.6237 55.9532H88.2842V51.9532H62.6237V55.9532ZM86.3153 53.6016C85.2671 59.4718 83.147 64.5559 79.9797 68.8938L83.2102 71.2526C86.7687 66.379 89.1081 60.7164 90.253 54.3047L86.3153 53.6016ZM79.9675 68.9107C76.8829 73.2291 72.8373 76.5967 67.7904 79.0164L69.5197 82.6233C75.1463 79.9256 79.7274 76.1287 83.2224 71.2357L79.9675 68.9107ZM67.801 79.0114C62.8429 81.3527 57.1471 82.5483 50.6708 82.5483V86.5483C57.6462 86.5483 63.9398 85.2583 69.5091 82.6284L67.801 79.0114ZM50.6708 82.5483C43.1338 82.5483 36.6883 80.9656 31.2639 77.8758L29.2841 81.3514C35.4107 84.8412 42.563 86.5483 50.6708 86.5483V82.5483ZM31.2804 77.8852C25.8345 74.7142 21.638 70.3144 18.6668 64.6483L15.1243 66.5059C18.4402 72.8293 23.1628 77.7872 29.2677 81.3419L31.2804 77.8852ZM18.6756 64.6654C15.7687 58.99 14.2898 52.4744 14.2898 45.0707H10.2898C10.2898 53.0194 11.8814 60.1747 15.1154 66.4889L18.6756 64.6654ZM133.895 79.6136L132.91 81.354L132.918 81.359L133.895 79.6136ZM119.42 65.3578L117.698 66.3746L119.42 65.3578ZM119.42 24.345L121.142 25.3617L119.42 24.345ZM133.895 10.1988L134.865 11.9481L134.872 11.9442L133.895 10.1988ZM174.14 10.1988L173.155 11.9392L173.163 11.9437L173.171 11.9481L174.14 10.1988ZM188.506 24.345L186.774 25.3462L186.779 25.354L186.783 25.3617L188.506 24.345ZM188.506 65.3578L186.783 64.341L186.779 64.3488L186.774 64.3565L188.506 65.3578ZM174.031 79.6136L173.054 77.8682L173.045 77.8733L174.031 79.6136ZM165.258 57.4623L166.776 58.7639L166.784 58.7551L166.791 58.7462L165.258 57.4623ZM165.258 32.2405L163.724 33.5243L163.732 33.5332L163.739 33.5421L165.258 32.2405ZM142.777 32.2405L144.296 33.5421L144.304 33.5332L144.311 33.5243L142.777 32.2405ZM142.777 57.4623L141.244 58.7462L141.251 58.7551L141.259 58.7639L142.777 57.4623ZM154.072 82.7676C147.09 82.7676 140.702 81.1307 134.872 77.8682L132.918 81.359C139.37 84.9686 146.434 86.7676 154.072 86.7676V82.7676ZM134.881 77.8733C129.121 74.6117 124.548 70.1107 121.142 64.341L117.698 66.3746C121.456 72.7406 126.534 77.7435 132.91 81.3539L134.881 77.8733ZM121.142 64.341C117.756 58.6054 116.047 52.1261 116.047 44.8514H112.047C112.047 52.7829 113.919 59.9745 117.698 66.3746L121.142 64.341ZM116.047 44.8514C116.047 37.5767 117.756 31.0973 121.142 25.3617L117.698 23.3282C113.919 29.7283 112.047 36.9199 112.047 44.8514H116.047ZM121.142 25.3617C124.546 19.5957 129.113 15.1354 134.865 11.9481L132.926 8.44951C126.541 11.988 121.458 16.9585 117.698 23.3282L121.142 25.3617ZM134.872 11.9442C140.702 8.68176 147.09 7.04479 154.072 7.04479V3.04479C146.434 3.04479 139.37 4.84384 132.918 8.45345L134.872 11.9442ZM154.072 7.04479C161.055 7.04479 167.402 8.6817 173.155 11.9392L175.126 8.45847C168.743 4.8439 161.711 3.04479 154.072 3.04479V7.04479ZM173.171 11.9481C178.918 15.1334 183.445 19.5887 186.774 25.3462L190.237 23.3437C186.548 16.9655 181.498 11.99 175.11 8.44951L173.171 11.9481ZM186.783 25.3617C190.17 31.0973 191.879 37.5767 191.879 44.8514H195.879C195.879 36.9199 194.006 29.7283 190.228 23.3282L186.783 25.3617ZM191.879 44.8514C191.879 52.1261 190.17 58.6054 186.783 64.341L190.228 66.3746C194.006 59.9745 195.879 52.7829 195.879 44.8514H191.879ZM186.774 64.3565C183.446 70.1117 178.882 74.6071 173.054 77.8682L175.007 81.359C181.461 77.748 186.547 72.7396 190.237 66.3591L186.774 64.3565ZM173.045 77.8733C167.289 81.1325 160.978 82.7676 154.072 82.7676V86.7676C161.642 86.7676 168.636 84.9668 175.016 81.3539L173.045 77.8733ZM154.072 64.068C159.357 64.068 163.691 62.3638 166.776 58.7639L163.739 56.1607C161.561 58.7017 158.438 60.068 154.072 60.068V64.068ZM166.791 58.7462C169.802 55.1506 171.206 50.4485 171.206 44.8514H167.206C167.206 49.7816 165.978 53.4868 163.724 56.1784L166.791 58.7462ZM171.206 44.8514C171.206 39.1919 169.807 34.4742 166.776 30.9389L163.739 33.5421C165.973 36.1477 167.206 39.8373 167.206 44.8514H171.206ZM166.791 30.9566C163.711 27.277 159.373 25.5251 154.072 25.5251V29.5251C158.422 29.5251 161.541 30.9167 163.724 33.5243L166.791 30.9566ZM154.072 25.5251C148.71 25.5251 144.331 27.2698 141.244 30.9566L144.311 33.5243C146.488 30.9239 149.639 29.5251 154.072 29.5251V25.5251ZM141.259 30.9389C138.229 34.4742 136.83 39.1919 136.83 44.8514H140.83C140.83 39.8373 142.063 36.1477 144.296 33.5421L141.259 30.9389ZM136.83 44.8514C136.83 50.4485 138.234 55.1506 141.244 58.7462L144.311 56.1784C142.058 53.4868 140.83 49.7816 140.83 44.8514H136.83ZM141.259 58.7639C144.351 62.3708 148.725 64.068 154.072 64.068V60.068C149.623 60.068 146.468 58.6947 144.296 56.1607L141.259 58.7639ZM296.311 84V86H298.311V84H296.311ZM271.966 84L270.297 85.1018L270.89 86H271.966V84ZM246.196 44.961L247.865 43.8592L244.196 38.3009V44.961H246.196ZM246.196 84V86H248.196V84H246.196ZM221.852 84H219.852V86H221.852V84ZM221.852 6.36072V4.36072H219.852V6.36072H221.852ZM246.196 6.36072L247.874 5.27172L247.282 4.36072H246.196V6.36072ZM271.966 46.0576L270.289 47.1466L273.966 52.8116V46.0576H271.966ZM271.966 6.36072V4.36072H269.966V6.36072H271.966ZM296.311 6.36072H298.311V4.36072H296.311V6.36072ZM296.311 82H271.966V86H296.311V82ZM273.636 82.8982L247.865 43.8592L244.527 46.0629L270.297 85.1018L273.636 82.8982ZM244.196 44.961V84H248.196V44.961H244.196ZM246.196 82H221.852V86H246.196V82ZM223.852 84V6.36072H219.852V84H223.852ZM221.852 8.36072H246.196V4.36072H221.852V8.36072ZM244.519 7.44972L270.289 47.1466L273.644 44.9686L247.874 5.27172L244.519 7.44972ZM273.966 46.0576V6.36072H269.966V46.0576H273.966ZM271.966 8.36072H296.311V4.36072H271.966V8.36072ZM294.311 6.36072V84H298.311V6.36072H294.311ZM387.471 6.36072H389.471V4.36072H387.471V6.36072ZM387.471 25.6609V27.6609H389.471V25.6609H387.471ZM366.855 25.6609V23.6609H364.855V25.6609H366.855ZM366.855 84V86H368.855V84H366.855ZM342.51 84H340.51V86H342.51V84ZM342.51 25.6609H344.51V23.6609H342.51V25.6609ZM322.114 25.6609H320.114V27.6609H322.114V25.6609ZM322.114 6.36072V4.36072H320.114V6.36072H322.114ZM385.471 6.36072V25.6609H389.471V6.36072H385.471ZM387.471 23.6609H366.855V27.6609H387.471V23.6609ZM364.855 25.6609V84H368.855V25.6609H364.855ZM366.855 82H342.51V86H366.855V82ZM344.51 84V25.6609H340.51V84H344.51ZM342.51 23.6609H322.114V27.6609H342.51V23.6609ZM324.114 25.6609V6.36072H320.114V25.6609H324.114ZM322.114 8.36072H387.471V4.36072H322.114V8.36072ZM463.05 72.2664L464.951 71.6446L464.5 70.2664H463.05V72.2664ZM437.17 72.2664V70.2664H435.72L435.269 71.6446L437.17 72.2664ZM433.332 84V86H434.782L435.233 84.6218L433.332 84ZM407.781 84L405.903 83.3129L404.92 86H407.781V84ZM436.183 6.36072V4.36072H434.785L434.305 5.67361L436.183 6.36072ZM464.256 6.36072L466.135 5.67595L465.656 4.36072H464.256V6.36072ZM492.548 84V86H495.406L494.427 83.3152L492.548 84ZM466.888 84L464.987 84.6218L465.438 86H466.888V84ZM457.128 53.9532V55.9532H459.881L459.03 53.3352L457.128 53.9532ZM450.11 32.3501L452.012 31.7322L450.11 25.8772L448.208 31.7322L450.11 32.3501ZM443.092 53.9532L441.19 53.3352L440.339 55.9532H443.092V53.9532ZM463.05 70.2664H437.17V74.2664H463.05V70.2664ZM435.269 71.6446L431.431 83.3782L435.233 84.6218L439.071 72.8882L435.269 71.6446ZM433.332 82H407.781V86H433.332V82ZM409.659 84.6871L438.061 7.04782L434.305 5.67361L405.903 83.3129L409.659 84.6871ZM436.183 8.36072H464.256V4.36072H436.183V8.36072ZM462.377 7.04548L490.669 84.6848L494.427 83.3152L466.135 5.67595L462.377 7.04548ZM492.548 82H466.888V86H492.548V82ZM468.789 83.3782L464.951 71.6446L461.149 72.8882L464.987 84.6218L468.789 83.3782ZM459.03 53.3352L452.012 31.7322L448.208 32.9681L455.226 54.5711L459.03 53.3352ZM448.208 31.7322L441.19 53.3352L444.994 54.5711L452.012 32.9681L448.208 31.7322ZM443.092 55.9532H457.128V51.9532H443.092V55.9532ZM519.682 24.5643L517.911 23.6355L517.907 23.644L517.902 23.6525L519.682 24.5643ZM533.061 10.6375L534.051 12.3753L534.059 12.3706L534.067 12.3658L533.061 10.6375ZM571.442 9.4312L570.568 11.2299L570.582 11.2372L570.597 11.2442L571.442 9.4312ZM584.382 20.0682L582.754 21.2307L582.76 21.2392L582.767 21.2476L584.382 20.0682ZM591.071 36.1882V38.1882H593.46L593.04 35.8367L591.071 36.1882ZM565.411 36.1882L563.592 37.0198L564.126 38.1882H565.411V36.1882ZM560.366 30.2666L559.231 31.913L559.263 31.9353L559.296 31.9562L560.366 30.2666ZM543.259 32.6791L541.687 31.4435L541.677 31.4552L541.668 31.467L543.259 32.6791ZM543.259 57.4623L541.668 58.6744L541.677 58.6862L541.687 58.6979L543.259 57.4623ZM560.366 59.9845L561.462 61.6574L561.469 61.653L561.476 61.6486L560.366 59.9845ZM565.411 53.9532V51.9532H564.126L563.592 53.1216L565.411 53.9532ZM591.071 53.9532L593.04 54.3047L593.46 51.9532H591.071V53.9532ZM584.382 70.0732L582.767 68.8938L582.76 68.9022L582.754 68.9107L584.382 70.0732ZM571.442 80.8199L572.296 82.6284L572.307 82.6233L571.442 80.8199ZM533.061 79.6136L532.055 81.3419L532.063 81.3467L532.071 81.3514L533.061 79.6136ZM519.682 65.5771L517.902 66.4889L517.907 66.4974L517.911 66.5059L519.682 65.5771ZM517.077 45.0707C517.077 37.667 518.556 31.1514 521.462 25.476L517.902 23.6525C514.668 29.9666 513.077 37.122 513.077 45.0707H517.077ZM521.454 25.4931C524.423 19.8306 528.614 15.4721 534.051 12.3753L532.071 8.89962C525.957 12.3825 521.229 17.3085 517.911 23.6355L521.454 25.4931ZM534.067 12.3658C539.489 9.20912 545.928 7.59309 553.458 7.59309V3.59309C545.342 3.59309 538.184 5.33998 532.055 8.9091L534.067 12.3658ZM553.458 7.59309C559.926 7.59309 565.614 8.82209 570.568 11.2299L572.316 7.63246C566.742 4.92283 560.441 3.59309 553.458 3.59309V7.59309ZM570.597 11.2442C575.635 13.5902 579.673 16.9172 582.754 21.2307L586.009 18.9057C582.511 14.0078 577.923 10.2434 572.286 7.6182L570.597 11.2442ZM582.767 21.2476C585.934 25.5855 588.054 30.6696 589.102 36.5398L593.04 35.8367C591.895 29.425 589.555 23.7624 585.997 18.8888L582.767 21.2476ZM591.071 34.1882H565.411V38.1882H591.071V34.1882ZM567.23 35.3567C565.913 32.4762 563.984 30.1908 561.436 28.577L559.296 31.9562C561.134 33.1204 562.569 34.7828 563.592 37.0198L567.23 35.3567ZM561.502 28.6202C559.021 26.9094 556.169 26.0734 553.019 26.0734V30.0734C555.425 30.0734 557.471 30.6995 559.231 31.913L561.502 28.6202ZM553.019 26.0734C548.346 26.0734 544.499 27.8639 541.687 31.4435L544.832 33.9148C546.844 31.3533 549.504 30.0734 553.019 30.0734V26.0734ZM541.668 31.467C538.985 34.9886 537.75 39.5919 537.75 45.0707H541.75C541.75 40.1683 542.854 36.5105 544.85 33.8912L541.668 31.467ZM537.75 45.0707C537.75 50.5495 538.985 55.1527 541.668 58.6744L544.85 56.2502C542.854 53.6308 541.75 49.9731 541.75 45.0707H537.75ZM541.687 58.6979C544.499 62.2775 548.346 64.068 553.019 64.068V60.068C549.504 60.068 546.844 58.7881 544.832 56.2266L541.687 58.6979ZM553.019 64.068C556.148 64.068 558.985 63.2802 561.462 61.6574L559.27 58.3115C557.507 59.4668 555.447 60.068 553.019 60.068V64.068ZM561.476 61.6486C563.999 59.9662 565.916 57.6577 567.23 54.7847L563.592 53.1216C562.566 55.366 561.12 57.0784 559.257 58.3204L561.476 61.6486ZM565.411 55.9532H591.071V51.9532H565.411V55.9532ZM589.102 53.6016C588.054 59.4718 585.934 64.5559 582.767 68.8938L585.997 71.2526C589.555 66.379 591.895 60.7164 593.04 54.3047L589.102 53.6016ZM582.754 68.9107C579.67 73.2291 575.624 76.5967 570.577 79.0164L572.307 82.6233C577.933 79.9256 582.514 76.1287 586.009 71.2357L582.754 68.9107ZM570.588 79.0114C565.63 81.3527 559.934 82.5483 553.458 82.5483V86.5483C560.433 86.5483 566.727 85.2583 572.296 82.6284L570.588 79.0114ZM553.458 82.5483C545.921 82.5483 539.475 80.9656 534.051 77.8758L532.071 81.3514C538.198 84.8412 545.35 86.5483 553.458 86.5483V82.5483ZM534.067 77.8852C528.621 74.7142 524.425 70.3144 521.454 64.6483L517.911 66.5059C521.227 72.8293 525.95 77.7872 532.055 81.3419L534.067 77.8852ZM521.462 64.6654C518.556 58.99 517.077 52.4744 517.077 45.0707H513.077C513.077 53.0194 514.668 60.1747 517.902 66.4889L521.462 64.6654ZM679.998 6.36072H681.998V4.36072H679.998V6.36072ZM679.998 25.6609V27.6609H681.998V25.6609H679.998ZM659.381 25.6609V23.6609H657.381V25.6609H659.381ZM659.381 84V86H661.381V84H659.381ZM635.037 84H633.037V86H635.037V84ZM635.037 25.6609H637.037V23.6609H635.037V25.6609ZM614.64 25.6609H612.64V27.6609H614.64V25.6609ZM614.64 6.36072V4.36072H612.64V6.36072H614.64ZM677.998 6.36072V25.6609H681.998V6.36072H677.998ZM679.998 23.6609H659.381V27.6609H679.998V23.6609ZM657.381 25.6609V84H661.381V25.6609H657.381ZM659.381 82H635.037V86H659.381V82ZM637.037 84V25.6609H633.037V84H637.037ZM635.037 23.6609H614.64V27.6609H635.037V23.6609ZM616.64 25.6609V6.36072H612.64V25.6609H616.64ZM614.64 8.36072H679.998V4.36072H614.64V8.36072Z" fill="#6947EF"/>
</svg>
