<svg width="299" height="104" viewBox="0 0 299 104" fill="none" xmlns="http://www.w3.org/2000/svg">
<rect width="299" height="104" fill="black"/>
<path d="M73.313 6.36072H75.313V4.36072H73.313V6.36072ZM73.313 25.6609V27.6609H75.313V25.6609H73.313ZM42.8275 25.6609V23.6609H40.8275V25.6609H42.8275ZM42.8275 36.4076H40.8275V38.4076H42.8275V36.4076ZM64.7595 36.4076H66.7595V34.4076H64.7595V36.4076ZM64.7595 54.7208V56.7208H66.7595V54.7208H64.7595ZM42.8275 54.7208V52.7208H40.8275V54.7208H42.8275ZM42.8275 84V86H44.8275V84H42.8275ZM18.483 84H16.483V86H18.483V84ZM18.483 6.36072V4.36072H16.483V6.36072H18.483ZM71.313 6.36072V25.6609H75.313V6.36072H71.313ZM73.313 23.6609H42.8275V27.6609H73.313V23.6609ZM40.8275 25.6609V36.4076H44.8275V25.6609H40.8275ZM42.8275 38.4076H64.7595V34.4076H42.8275V38.4076ZM62.7595 36.4076V54.7208H66.7595V36.4076H62.7595ZM64.7595 52.7208H42.8275V56.7208H64.7595V52.7208ZM40.8275 54.7208V84H44.8275V54.7208H40.8275ZM42.8275 82H18.483V86H42.8275V82ZM20.483 84V6.36072H16.483V84H20.483ZM18.483 8.36072H73.313V4.36072H18.483V8.36072ZM150.535 72.2664L152.436 71.6446L151.985 70.2664H150.535V72.2664ZM124.655 72.2664V70.2664H123.205L122.754 71.6446L124.655 72.2664ZM120.817 84V86H122.267L122.718 84.6218L120.817 84ZM95.2664 84L93.3882 83.3129L92.4052 86H95.2664V84ZM123.668 6.36072V4.36072H122.27L121.79 5.67361L123.668 6.36072ZM151.741 6.36072L153.62 5.67595L153.141 4.36072H151.741V6.36072ZM180.034 84V86H182.891L181.913 83.3152L180.034 84ZM154.373 84L152.472 84.6218L152.923 86H154.373V84ZM144.613 53.9532V55.9532H147.366L146.516 53.3352L144.613 53.9532ZM137.595 32.3501L139.497 31.7322L137.595 25.8772L135.693 31.7322L137.595 32.3501ZM130.577 53.9532L128.675 53.3352L127.824 55.9532H130.577V53.9532ZM150.535 70.2664H124.655V74.2664H150.535V70.2664ZM122.754 71.6446L118.916 83.3782L122.718 84.6218L126.556 72.8882L122.754 71.6446ZM120.817 82H95.2664V86H120.817V82ZM97.1447 84.6871L125.547 7.04782L121.79 5.67361L93.3882 83.3129L97.1447 84.6871ZM123.668 8.36072H151.741V4.36072H123.668V8.36072ZM149.862 7.04548L178.154 84.6848L181.913 83.3152L153.62 5.67595L149.862 7.04548ZM180.034 82H154.373V86H180.034V82ZM156.274 83.3782L152.436 71.6446L148.634 72.8882L152.472 84.6218L156.274 83.3782ZM146.516 53.3352L139.497 31.7322L135.693 32.9681L142.711 54.5711L146.516 53.3352ZM135.693 31.7322L128.675 53.3352L132.479 54.5711L139.497 32.9681L135.693 31.7322ZM130.577 55.9532H144.613V51.9532H130.577V55.9532ZM255.857 96.6109L254.147 97.6489L254.731 98.6109H255.857V96.6109ZM248.4 84.329L250.109 83.291L249.401 82.1248L248.057 82.3586L248.4 84.329ZM222.41 79.6136L221.425 81.354L221.434 81.359L222.41 79.6136ZM207.935 65.3578L206.213 66.3746L206.213 66.3746L207.935 65.3578ZM207.935 24.345L209.657 25.3617L207.935 24.345ZM222.41 10.1988L223.38 11.9481L223.387 11.9442L222.41 10.1988ZM262.656 10.1988L261.67 11.9392L261.678 11.9437L261.686 11.9481L262.656 10.1988ZM277.021 24.345L275.29 25.3462L275.294 25.354L275.299 25.3617L277.021 24.345ZM278.776 62.068L280.589 62.911L280.594 62.9013L278.776 62.068ZM268.797 75.3369L267.491 73.822L266.082 75.036L267.191 76.5289L268.797 75.3369ZM284.588 96.6109V98.6109H288.563L286.194 95.4189L284.588 96.6109ZM231.293 57.4623L229.759 58.7462L229.767 58.755L229.774 58.7639L231.293 57.4623ZM253.773 57.4623L255.292 58.7639L255.299 58.755L255.307 58.7462L253.773 57.4623ZM253.773 32.2405L252.24 33.5243L252.247 33.5332L252.255 33.5421L253.773 32.2405ZM231.293 32.2405L232.811 33.5421L232.819 33.5332L232.826 33.5243L231.293 32.2405ZM257.566 95.5729L250.109 83.291L246.69 85.3669L254.147 97.6489L257.566 95.5729ZM248.057 82.3586C246.515 82.6267 244.697 82.7676 242.588 82.7676V86.7676C244.865 86.7676 246.921 86.6161 248.742 86.2994L248.057 82.3586ZM242.588 82.7676C235.605 82.7676 229.218 81.1307 223.387 77.8682L221.434 81.359C227.885 84.9686 234.949 86.7676 242.588 86.7676V82.7676ZM223.396 77.8733C217.636 74.6117 213.064 70.1107 209.657 64.341L206.213 66.3746C209.971 72.7406 215.049 77.7435 221.425 81.3539L223.396 77.8733ZM209.657 64.341C206.271 58.6054 204.562 52.1261 204.562 44.8514H200.562C200.562 52.7829 202.435 59.9745 206.213 66.3746L209.657 64.341ZM204.562 44.8514C204.562 37.5767 206.271 31.0973 209.657 25.3617L206.213 23.3282C202.435 29.7283 200.562 36.9199 200.562 44.8514H204.562ZM209.657 25.3617C213.062 19.5957 217.629 15.1354 223.38 11.9481L221.441 8.44951C215.056 11.988 209.973 16.9585 206.213 23.3282L209.657 25.3617ZM223.387 11.9442C229.218 8.68176 235.605 7.04479 242.588 7.04479V3.04479C234.949 3.04479 227.885 4.84384 221.434 8.45345L223.387 11.9442ZM242.588 7.04479C249.57 7.04479 255.918 8.6817 261.67 11.9392L263.641 8.45847C257.258 4.8439 250.226 3.04479 242.588 3.04479V7.04479ZM261.686 11.9481C267.433 15.1334 271.96 19.5887 275.29 25.3462L278.752 23.3437C275.064 16.9655 270.013 11.99 263.625 8.44951L261.686 11.9481ZM275.299 25.3617C278.685 31.0973 280.394 37.5767 280.394 44.8514H284.394C284.394 36.9199 282.522 29.7283 278.743 23.3282L275.299 25.3617ZM280.394 44.8514C280.394 50.7992 279.242 56.2513 276.957 61.2347L280.594 62.9013C283.135 57.3574 284.394 51.3317 284.394 44.8514H280.394ZM276.962 61.225C274.666 66.1641 271.511 70.3563 267.491 73.822L270.102 76.8517C274.563 73.0067 278.06 68.3531 280.589 62.911L276.962 61.225ZM267.191 76.5289L282.982 97.8029L286.194 95.4189L270.402 74.1448L267.191 76.5289ZM284.588 94.6109H255.857V98.6109H284.588V94.6109ZM225.345 44.8514C225.345 50.4485 226.749 55.1506 229.759 58.7462L232.826 56.1784C230.573 53.4868 229.345 49.7816 229.345 44.8514H225.345ZM229.774 58.7639C232.866 62.3708 237.241 64.068 242.588 64.068V60.068C238.139 60.068 234.983 58.6947 232.811 56.1607L229.774 58.7639ZM242.588 64.068C247.873 64.068 252.206 62.3638 255.292 58.7639L252.255 56.1607C250.077 58.7017 246.953 60.068 242.588 60.068V64.068ZM255.307 58.7462C258.317 55.1506 259.721 50.4485 259.721 44.8514H255.721C255.721 49.7816 254.493 53.4868 252.24 56.1784L255.307 58.7462ZM259.721 44.8514C259.721 39.1919 258.322 34.4742 255.292 30.9389L252.255 33.5421C254.488 36.1477 255.721 39.8373 255.721 44.8514H259.721ZM255.307 30.9566C252.226 27.277 247.889 25.5251 242.588 25.5251V29.5251C246.937 29.5251 250.056 30.9167 252.24 33.5243L255.307 30.9566ZM242.588 25.5251C237.225 25.5251 232.846 27.2698 229.759 30.9566L232.826 33.5243C235.003 30.9239 238.154 29.5251 242.588 29.5251V25.5251ZM229.774 30.9389C226.744 34.4742 225.345 39.1919 225.345 44.8514H229.345C229.345 39.8373 230.578 36.1477 232.811 33.5421L229.774 30.9389Z" fill="#6947EF"/>
</svg>
