<svg width="267" height="92" viewBox="0 0 267 92" fill="none" xmlns="http://www.w3.org/2000/svg">
<path d="M55.313 1.36072H57.313V-0.639283H55.313V1.36072ZM55.313 20.6609V22.6609H57.313V20.6609H55.313ZM24.8275 20.6609V18.6609H22.8275V20.6609H24.8275ZM24.8275 31.4076H22.8275V33.4076H24.8275V31.4076ZM46.7595 31.4076H48.7595V29.4076H46.7595V31.4076ZM46.7595 49.7208V51.7208H48.7595V49.7208H46.7595ZM24.8275 49.7208V47.7208H22.8275V49.7208H24.8275ZM24.8275 79V81H26.8275V79H24.8275ZM0.483 79H-1.517V81H0.483V79ZM0.483 1.36072V-0.639283H-1.517V1.36072H0.483ZM53.313 1.36072V20.6609H57.313V1.36072H53.313ZM55.313 18.6609H24.8275V22.6609H55.313V18.6609ZM22.8275 20.6609V31.4076H26.8275V20.6609H22.8275ZM24.8275 33.4076H46.7595V29.4076H24.8275V33.4076ZM44.7595 31.4076V49.7208H48.7595V31.4076H44.7595ZM46.7595 47.7208H24.8275V51.7208H46.7595V47.7208ZM22.8275 49.7208V79H26.8275V49.7208H22.8275ZM24.8275 77H0.483V81H24.8275V77ZM2.483 79V1.36072H-1.517V79H2.483ZM0.483 3.36072H55.313V-0.639283H0.483V3.36072ZM132.535 67.2664L134.436 66.6446L133.985 65.2664H132.535V67.2664ZM106.655 67.2664V65.2664H105.205L104.754 66.6446L106.655 67.2664ZM102.817 79V81H104.267L104.718 79.6218L102.817 79ZM77.2664 79L75.3882 78.3129L74.4052 81H77.2664V79ZM105.668 1.36072V-0.639283H104.27L103.79 0.673611L105.668 1.36072ZM133.741 1.36072L135.62 0.675952L135.141 -0.639283H133.741V1.36072ZM162.034 79V81H164.891L163.913 78.3152L162.034 79ZM136.373 79L134.472 79.6218L134.923 81H136.373V79ZM126.613 48.9532V50.9532H129.366L128.516 48.3352L126.613 48.9532ZM119.595 27.3501L121.497 26.7322L119.595 20.8772L117.693 26.7322L119.595 27.3501ZM112.577 48.9532L110.675 48.3352L109.824 50.9532H112.577V48.9532ZM132.535 65.2664H106.655V69.2664H132.535V65.2664ZM104.754 66.6446L100.916 78.3782L104.718 79.6218L108.556 67.8882L104.754 66.6446ZM102.817 77H77.2664V81H102.817V77ZM79.1447 79.6871L107.547 2.04782L103.79 0.673611L75.3882 78.3129L79.1447 79.6871ZM105.668 3.36072H133.741V-0.639283H105.668V3.36072ZM131.862 2.04548L160.154 79.6848L163.913 78.3152L135.62 0.675952L131.862 2.04548ZM162.034 77H136.373V81H162.034V77ZM138.274 78.3782L134.436 66.6446L130.634 67.8882L134.472 79.6218L138.274 78.3782ZM128.516 48.3352L121.497 26.7322L117.693 27.9681L124.711 49.5711L128.516 48.3352ZM117.693 26.7322L110.675 48.3352L114.479 49.5711L121.497 27.9681L117.693 26.7322ZM112.577 50.9532H126.613V46.9532H112.577V50.9532ZM237.857 91.6109L236.147 92.6489L236.731 93.6109H237.857V91.6109ZM230.4 79.329L232.109 78.291L231.401 77.1248L230.057 77.3586L230.4 79.329ZM204.41 74.6136L203.425 76.354L203.434 76.359L204.41 74.6136ZM189.935 60.3578L188.213 61.3746L189.935 60.3578ZM189.935 19.345L191.657 20.3617L189.935 19.345ZM204.41 5.19881L205.38 6.94814L205.387 6.94418L204.41 5.19881ZM244.656 5.19881L243.67 6.93916L243.678 6.94368L243.686 6.94812L244.656 5.19881ZM259.021 19.345L257.29 20.3462L257.294 20.354L257.299 20.3617L259.021 19.345ZM260.776 57.068L262.589 57.911L262.594 57.9013L260.776 57.068ZM250.797 70.3369L249.491 68.822L248.082 70.036L249.191 71.5289L250.797 70.3369ZM266.588 91.6109V93.6109H270.563L268.194 90.4189L266.588 91.6109ZM213.293 52.4623L211.759 53.7462L211.767 53.7551L211.774 53.7639L213.293 52.4623ZM235.773 52.4623L237.292 53.7639L237.299 53.7551L237.307 53.7462L235.773 52.4623ZM235.773 27.2405L234.24 28.5243L234.247 28.5332L234.255 28.5421L235.773 27.2405ZM213.293 27.2405L214.811 28.5421L214.819 28.5332L214.826 28.5243L213.293 27.2405ZM239.566 90.5729L232.109 78.291L228.69 80.3669L236.147 92.6489L239.566 90.5729ZM230.057 77.3586C228.515 77.6267 226.697 77.7676 224.588 77.7676V81.7676C226.865 81.7676 228.921 81.6161 230.742 81.2994L230.057 77.3586ZM224.588 77.7676C217.605 77.7676 211.218 76.1307 205.387 72.8682L203.434 76.359C209.885 79.9686 216.949 81.7676 224.588 81.7676V77.7676ZM205.396 72.8733C199.636 69.6117 195.064 65.1107 191.657 59.341L188.213 61.3746C191.971 67.7406 197.049 72.7435 203.425 76.3539L205.396 72.8733ZM191.657 59.341C188.271 53.6054 186.562 47.1261 186.562 39.8514H182.562C182.562 47.7829 184.435 54.9745 188.213 61.3746L191.657 59.341ZM186.562 39.8514C186.562 32.5767 188.271 26.0973 191.657 20.3617L188.213 18.3282C184.435 24.7283 182.562 31.9199 182.562 39.8514H186.562ZM191.657 20.3617C195.062 14.5957 199.629 10.1354 205.38 6.94812L203.441 3.44951C197.056 6.988 191.973 11.9585 188.213 18.3282L191.657 20.3617ZM205.387 6.94418C211.218 3.68176 217.605 2.04479 224.588 2.04479V-1.95521C216.949 -1.95521 209.885 -0.156162 203.434 3.45345L205.387 6.94418ZM224.588 2.04479C231.57 2.04479 237.918 3.6817 243.67 6.93916L245.641 3.45847C239.258 -0.156103 232.226 -1.95521 224.588 -1.95521V2.04479ZM243.686 6.94812C249.433 10.1334 253.96 14.5887 257.29 20.3462L260.752 18.3437C257.064 11.9655 252.013 6.99004 245.625 3.44951L243.686 6.94812ZM257.299 20.3617C260.685 26.0973 262.394 32.5767 262.394 39.8514H266.394C266.394 31.9199 264.522 24.7283 260.743 18.3282L257.299 20.3617ZM262.394 39.8514C262.394 45.7992 261.242 51.2513 258.957 56.2347L262.594 57.9013C265.135 52.3574 266.394 46.3317 266.394 39.8514H262.394ZM258.962 56.225C256.666 61.1641 253.511 65.3563 249.491 68.822L252.102 71.8517C256.563 68.0067 260.06 63.3531 262.589 57.911L258.962 56.225ZM249.191 71.5289L264.982 92.8029L268.194 90.4189L252.402 69.1448L249.191 71.5289ZM266.588 89.6109H237.857V93.6109H266.588V89.6109ZM207.345 39.8514C207.345 45.4485 208.749 50.1506 211.759 53.7462L214.826 51.1784C212.573 48.4868 211.345 44.7816 211.345 39.8514H207.345ZM211.774 53.7639C214.866 57.3708 219.241 59.068 224.588 59.068V55.068C220.139 55.068 216.983 53.6947 214.811 51.1607L211.774 53.7639ZM224.588 59.068C229.873 59.068 234.206 57.3638 237.292 53.7639L234.255 51.1607C232.077 53.7017 228.953 55.068 224.588 55.068V59.068ZM237.307 53.7462C240.317 50.1506 241.721 45.4485 241.721 39.8514H237.721C237.721 44.7816 236.493 48.4868 234.24 51.1784L237.307 53.7462ZM241.721 39.8514C241.721 34.1919 240.322 29.4742 237.292 25.9389L234.255 28.5421C236.488 31.1477 237.721 34.8373 237.721 39.8514H241.721ZM237.307 25.9566C234.226 22.277 229.889 20.5251 224.588 20.5251V24.5251C228.937 24.5251 232.056 25.9167 234.24 28.5243L237.307 25.9566ZM224.588 20.5251C219.225 20.5251 214.846 22.2698 211.759 25.9566L214.826 28.5243C217.003 25.9239 220.154 24.5251 224.588 24.5251V20.5251ZM211.774 25.9389C208.744 29.4742 207.345 34.1919 207.345 39.8514H211.345C211.345 34.8373 212.578 31.1477 214.811 28.5421L211.774 25.9389Z" fill="#6947EF"/>
</svg>
