<svg width="638" height="80" viewBox="0 0 638 80" fill="none" xmlns="http://www.w3.org/2000/svg">
<path d="M55.4083 1.36072H57.4083V-0.639283H55.4083V1.36072ZM55.4083 20.6609V22.6609H57.4083V20.6609H55.4083ZM24.9228 20.6609V18.6609H22.9228V20.6609H24.9228ZM24.9228 31.4076H22.9228V33.4076H24.9228V31.4076ZM46.8548 31.4076H48.8548V29.4076H46.8548V31.4076ZM46.8548 49.7208V51.7208H48.8548V49.7208H46.8548ZM24.9228 49.7208V47.7208H22.9228V49.7208H24.9228ZM24.9228 79V81H26.9228V79H24.9228ZM0.578307 79H-1.42169V81H0.578307V79ZM0.578307 1.36072V-0.639283H-1.42169V1.36072H0.578307ZM53.4083 1.36072V20.6609H57.4083V1.36072H53.4083ZM55.4083 18.6609H24.9228V22.6609H55.4083V18.6609ZM22.9228 20.6609V31.4076H26.9228V20.6609H22.9228ZM24.9228 33.4076H46.8548V29.4076H24.9228V33.4076ZM44.8548 31.4076V49.7208H48.8548V31.4076H44.8548ZM46.8548 47.7208H24.9228V51.7208H46.8548V47.7208ZM22.9228 49.7208V79H26.9228V49.7208H22.9228ZM24.9228 77H0.578307V81H24.9228V77ZM2.57831 79V1.36072H-1.42169V79H2.57831ZM0.578307 3.36072H55.4083V-0.639283H0.578307V3.36072ZM100.5 74.6136L99.5145 76.354L99.5234 76.359L100.5 74.6136ZM86.0249 60.3578L84.3026 61.3746L86.0249 60.3578ZM86.0249 19.345L87.7471 20.3617L86.0249 19.345ZM100.5 5.19881L101.469 6.94814L101.477 6.94418L100.5 5.19881ZM140.745 5.19881L139.76 6.93916L139.768 6.94368L139.776 6.94812L140.745 5.19881ZM155.111 19.345L153.379 20.3462L153.384 20.354L153.388 20.3617L155.111 19.345ZM155.111 60.3578L153.388 59.341L153.384 59.3488L153.379 59.3565L155.111 60.3578ZM140.636 74.6136L139.659 72.8682L139.65 72.8733L140.636 74.6136ZM131.863 52.4623L133.381 53.7639L133.389 53.7551L133.396 53.7462L131.863 52.4623ZM131.863 27.2405L130.329 28.5243L130.337 28.5332L130.344 28.5421L131.863 27.2405ZM109.382 27.2405L110.901 28.5421L110.909 28.5332L110.916 28.5243L109.382 27.2405ZM109.382 52.4623L107.849 53.7462L107.856 53.7551L107.864 53.7639L109.382 52.4623ZM120.677 77.7676C113.695 77.7676 107.307 76.1307 101.477 72.8682L99.5234 76.359C105.975 79.9686 113.039 81.7676 120.677 81.7676V77.7676ZM101.485 72.8733C95.7257 69.6117 91.1533 65.1107 87.7471 59.341L84.3026 61.3746C88.0609 67.7406 93.1386 72.7435 99.5145 76.3539L101.485 72.8733ZM87.7471 59.341C84.361 53.6054 82.6515 47.1261 82.6515 39.8514H78.6515C78.6515 47.7829 80.5242 54.9745 84.3026 61.3746L87.7471 59.341ZM82.6515 39.8514C82.6515 32.5767 84.361 26.0973 87.7471 20.3617L84.3026 18.3282C80.5242 24.7283 78.6515 31.9199 78.6515 39.8514H82.6515ZM87.7471 20.3617C91.1512 14.5957 95.7184 10.1354 101.469 6.94812L99.5305 3.44951C93.1458 6.988 88.063 11.9585 84.3026 18.3282L87.7471 20.3617ZM101.477 6.94418C107.307 3.68176 113.695 2.04479 120.677 2.04479V-1.95521C113.039 -1.95521 105.975 -0.156162 99.5234 3.45345L101.477 6.94418ZM120.677 2.04479C127.66 2.04479 134.007 3.6817 139.76 6.93916L141.731 3.45847C135.348 -0.156103 128.316 -1.95521 120.677 -1.95521V2.04479ZM139.776 6.94812C145.523 10.1334 150.05 14.5887 153.379 20.3462L156.842 18.3437C153.153 11.9655 148.103 6.99004 141.715 3.44951L139.776 6.94812ZM153.388 20.3617C156.774 26.0973 158.484 32.5767 158.484 39.8514H162.484C162.484 31.9199 160.611 24.7283 156.833 18.3282L153.388 20.3617ZM158.484 39.8514C158.484 47.1261 156.774 53.6054 153.388 59.341L156.833 61.3746C160.611 54.9745 162.484 47.7829 162.484 39.8514H158.484ZM153.379 59.3565C150.051 65.1117 145.487 69.6071 139.659 72.8682L141.612 76.359C148.066 72.748 153.152 67.7396 156.842 61.3591L153.379 59.3565ZM139.65 72.8733C133.894 76.1325 127.583 77.7676 120.677 77.7676V81.7676C128.247 81.7676 135.241 79.9668 141.621 76.3539L139.65 72.8733ZM120.677 59.068C125.962 59.068 130.296 57.3638 133.381 53.7639L130.344 51.1607C128.166 53.7017 125.043 55.068 120.677 55.068V59.068ZM133.396 53.7462C136.407 50.1506 137.811 45.4485 137.811 39.8514H133.811C133.811 44.7816 132.583 48.4868 130.329 51.1784L133.396 53.7462ZM137.811 39.8514C137.811 34.1919 136.412 29.4742 133.381 25.9389L130.344 28.5421C132.578 31.1477 133.811 34.8373 133.811 39.8514H137.811ZM133.396 25.9566C130.316 22.277 125.978 20.5251 120.677 20.5251V24.5251C125.027 24.5251 128.146 25.9167 130.329 28.5243L133.396 25.9566ZM120.677 20.5251C115.315 20.5251 110.936 22.2698 107.849 25.9566L110.916 28.5243C113.093 25.9239 116.244 24.5251 120.677 24.5251V20.5251ZM107.864 25.9389C104.834 29.4742 103.435 34.1919 103.435 39.8514H107.435C107.435 34.8373 108.668 31.1477 110.901 28.5421L107.864 25.9389ZM103.435 39.8514C103.435 45.4485 104.839 50.1506 107.849 53.7462L110.916 51.1784C108.663 48.4868 107.435 44.7816 107.435 39.8514H103.435ZM107.864 53.7639C110.956 57.3708 115.33 59.068 120.677 59.068V55.068C116.228 55.068 113.073 53.6947 110.901 51.1607L107.864 53.7639ZM212.253 1.36072H214.253V-0.639283H212.253V1.36072ZM214.556 53.6685L212.936 54.8416L212.959 54.8733L212.983 54.9042L214.556 53.6685ZM230.018 53.6685L231.563 54.938L231.574 54.9248L231.585 54.9113L230.018 53.6685ZM232.54 1.36072V-0.639283H230.54V1.36072H232.54ZM256.775 1.36072H258.775V-0.639283H256.775V1.36072ZM252.169 64.0862L253.891 65.1045L253.897 65.094L252.169 64.0862ZM239.558 75.8199L240.443 77.6136L239.558 75.8199ZM204.138 75.8199L203.213 77.5931L203.223 77.5984L204.138 75.8199ZM192.295 64.0862L190.542 65.0491L192.295 64.0862ZM188.018 1.36072V-0.639283H186.018V1.36072H188.018ZM210.253 1.36072V45.1151H214.253V1.36072H210.253ZM210.253 45.1151C210.253 48.9664 211.077 52.2748 212.936 54.8416L216.176 52.4955C214.964 50.8221 214.253 48.4281 214.253 45.1151H210.253ZM212.983 54.9042C215.093 57.5889 218.338 58.739 222.232 58.739V54.739C219.108 54.739 217.236 53.8422 216.128 52.4329L212.983 54.9042ZM222.232 58.739C226.132 58.739 229.387 57.5872 231.563 54.938L228.472 52.3991C227.286 53.8439 225.35 54.739 222.232 54.739V58.739ZM231.585 54.9113C233.626 52.3379 234.54 49.002 234.54 45.1151H230.54C230.54 48.3925 229.773 50.759 228.451 52.4258L231.585 54.9113ZM234.54 45.1151V1.36072H230.54V45.1151H234.54ZM232.54 3.36072H256.775V-0.639283H232.54V3.36072ZM254.775 1.36072V45.1151H258.775V1.36072H254.775ZM254.775 45.1151C254.775 52.2196 253.299 58.1795 250.442 63.0785L253.897 65.094C257.18 59.4657 258.775 52.7781 258.775 45.1151H254.775ZM250.448 63.068C247.572 67.9291 243.657 71.5685 238.674 74.0261L240.443 77.6136C246.133 74.8075 250.625 70.6245 253.891 65.1045L250.448 63.068ZM238.674 74.0261C233.64 76.5085 227.989 77.7676 221.684 77.7676V81.7676C228.537 81.7676 234.803 80.395 240.443 77.6136L238.674 74.0261ZM221.684 77.7676C215.376 77.7676 209.849 76.508 205.053 74.0413L203.223 77.5984C208.662 80.3954 214.832 81.7676 221.684 81.7676V77.7676ZM205.063 74.0467C200.384 71.6051 196.717 67.983 194.048 63.1233L190.542 65.0491C193.575 70.5706 197.804 74.7709 203.213 77.593L205.063 74.0467ZM194.048 63.1233C191.395 58.2948 190.018 52.3209 190.018 45.1151H186.018C186.018 52.8229 187.492 59.4966 190.542 65.0491L194.048 63.1233ZM190.018 45.1151V1.36072H186.018V45.1151H190.018ZM188.018 3.36072H212.253V-0.639283H188.018V3.36072ZM360.924 79V81H362.924V79H360.924ZM336.58 79L334.911 80.1018L335.504 81H336.58V79ZM310.81 39.961L312.479 38.8592L308.81 33.3009V39.961H310.81ZM310.81 79V81H312.81V79H310.81ZM286.465 79H284.465V81H286.465V79ZM286.465 1.36072V-0.639283H284.465V1.36072H286.465ZM310.81 1.36072L312.487 0.271718L311.896 -0.639283H310.81V1.36072ZM336.58 41.0576L334.902 42.1466L338.58 47.8116V41.0576H336.58ZM336.58 1.36072V-0.639283H334.58V1.36072H336.58ZM360.924 1.36072H362.924V-0.639283H360.924V1.36072ZM360.924 77H336.58V81H360.924V77ZM338.249 77.8982L312.479 38.8592L309.141 41.0629L334.911 80.1018L338.249 77.8982ZM308.81 39.961V79H312.81V39.961H308.81ZM310.81 77H286.465V81H310.81V77ZM288.465 79V1.36072H284.465V79H288.465ZM286.465 3.36072H310.81V-0.639283H286.465V3.36072ZM309.132 2.44972L334.902 42.1466L338.258 39.9686L312.487 0.271718L309.132 2.44972ZM338.58 41.0576V1.36072H334.58V41.0576H338.58ZM336.58 3.36072H360.924V-0.639283H336.58V3.36072ZM358.924 1.36072V79H362.924V1.36072H358.924ZM444.737 6.29541L443.784 8.05365L443.793 8.05837L444.737 6.29541ZM458.883 20.0029L460.627 19.0224L458.883 20.0029ZM458.883 59.9192L460.632 60.8904L458.883 59.9192ZM444.737 73.9556L445.707 75.705L445.714 75.701L444.737 73.9556ZM391.114 79H389.114V81H391.114V79ZM391.114 1.36072V-0.639283H389.114V1.36072H391.114ZM434.32 52.7913L435.683 54.2545L434.32 52.7913ZM434.32 27.1308L435.683 25.6676V25.6676L434.32 27.1308ZM415.458 22.6348V20.6348H413.458V22.6348H415.458ZM415.458 57.2873H413.458V59.2873H415.458V57.2873ZM423.463 3.36072C431.304 3.36072 438.056 4.94827 443.784 8.05363L445.691 4.5372C439.283 1.06296 431.852 -0.639283 423.463 -0.639283V3.36072ZM443.793 8.05837C449.612 11.1758 454.044 15.4794 457.14 20.9834L460.627 19.0224C457.143 12.8293 452.144 7.99461 445.682 4.53245L443.793 8.05837ZM457.14 20.9834C460.244 26.5003 461.818 32.8086 461.818 39.961H465.818C465.818 32.1997 464.103 25.2026 460.627 19.0224L457.14 20.9834ZM461.818 39.961C461.818 47.0363 460.245 53.3496 457.135 58.9479L460.632 60.8904C464.101 54.6454 465.818 47.6533 465.818 39.961H461.818ZM457.135 58.9479C454.033 64.5319 449.591 68.9482 443.761 72.2103L445.714 75.701C452.166 72.091 457.154 67.1497 460.632 60.8904L457.135 58.9479ZM443.768 72.2063C438.043 75.3789 431.297 77 423.463 77V81C431.859 81 439.295 79.2582 445.707 75.7049L443.768 72.2063ZM423.463 77H391.114V81H423.463V77ZM393.114 79V1.36072H389.114V79H393.114ZM391.114 3.36072H423.463V-0.639283H391.114V3.36072ZM421.27 59.2873C427.128 59.2873 432.01 57.6767 435.683 54.2545L432.956 51.328C430.195 53.9006 426.378 55.2873 421.27 55.2873V59.2873ZM435.683 54.2545C439.407 50.7843 441.145 45.9163 441.145 39.961H437.145C437.145 45.118 435.665 48.8035 432.956 51.328L435.683 54.2545ZM441.145 39.961C441.145 34.0057 439.407 29.1378 435.683 25.6676L432.956 28.594C435.665 31.1186 437.145 34.8041 437.145 39.961H441.145ZM435.683 25.6676C432.01 22.2454 427.128 20.6348 421.27 20.6348V24.6348C426.378 24.6348 430.195 26.0215 432.956 28.594L435.683 25.6676ZM421.27 20.6348H415.458V24.6348H421.27V20.6348ZM413.458 22.6348V57.2873H417.458V22.6348H413.458ZM415.458 59.2873H421.27V55.2873H415.458V59.2873ZM516.144 20.7705V18.7705H514.144V20.7705H516.144ZM516.144 30.311H514.144V32.311H516.144V30.311ZM540.269 30.311H542.269V28.311H540.269V30.311ZM540.269 48.6242V50.6242H542.269V48.6242H540.269ZM516.144 48.6242V46.6242H514.144V48.6242H516.144ZM516.144 59.5902H514.144V61.5902H516.144V59.5902ZM543.559 59.5902H545.559V57.5902H543.559V59.5902ZM543.559 79V81H545.559V79H543.559ZM491.799 79H489.799V81H491.799V79ZM491.799 1.36072V-0.639283H489.799V1.36072H491.799ZM543.559 1.36072H545.559V-0.639283H543.559V1.36072ZM543.559 20.7705V22.7705H545.559V20.7705H543.559ZM514.144 20.7705V30.311H518.144V20.7705H514.144ZM516.144 32.311H540.269V28.311H516.144V32.311ZM538.269 30.311V48.6242H542.269V30.311H538.269ZM540.269 46.6242H516.144V50.6242H540.269V46.6242ZM514.144 48.6242V59.5902H518.144V48.6242H514.144ZM516.144 61.5902H543.559V57.5902H516.144V61.5902ZM541.559 59.5902V79H545.559V59.5902H541.559ZM543.559 77H491.799V81H543.559V77ZM493.799 79V1.36072H489.799V79H493.799ZM491.799 3.36072H543.559V-0.639283H491.799V3.36072ZM541.559 1.36072V20.7705H545.559V1.36072H541.559ZM543.559 18.7705H516.144V22.7705H543.559V18.7705ZM610.963 79L609.191 79.9277L609.753 81H610.963V79ZM596.378 51.1464L598.15 50.2186L597.589 49.1464H596.378V51.1464ZM596.269 51.1464V49.1464H594.269V51.1464H596.269ZM596.269 79V81H598.269V79H596.269ZM571.924 79H569.924V81H571.924V79ZM571.924 1.36072V-0.639283H569.924V1.36072H571.924ZM624.232 4.76017L623.326 6.54314L623.337 6.54908L623.349 6.55487L624.232 4.76017ZM634.211 13.862L632.47 14.8472L632.482 14.8667L632.493 14.8861L634.211 13.862ZM633.224 40.619L631.607 39.4427L631.599 39.4524L631.593 39.4621L633.224 40.619ZM620.832 49.2821L620.215 47.3797L617.881 48.1367L619.094 50.2703L620.832 49.2821ZM637.72 79V81H641.157L639.459 78.0119L637.72 79ZM596.269 34.9167H594.269V36.9167H596.269V34.9167ZM611.182 33.3814L612.499 34.8866L612.525 34.864L612.55 34.8405L611.182 33.3814ZM611.073 23.512L609.658 24.9262L609.68 24.9477L609.702 24.9684L611.073 23.512ZM596.269 21.7575V19.7575H594.269V21.7575H596.269ZM612.735 78.0723L598.15 50.2186L594.606 52.0741L609.191 79.9277L612.735 78.0723ZM596.378 49.1464H596.269V53.1464H596.378V49.1464ZM594.269 51.1464V79H598.269V51.1464H594.269ZM596.269 77H571.924V81H596.269V77ZM573.924 79V1.36072H569.924V79H573.924ZM571.924 3.36072H608.112V-0.639283H571.924V3.36072ZM608.112 3.36072C614.163 3.36072 619.21 4.45143 623.326 6.54314L625.138 2.9772C620.335 0.536304 614.635 -0.639283 608.112 -0.639283V3.36072ZM623.349 6.55487C627.492 8.59205 630.498 11.3625 632.47 14.8472L635.951 12.8768C633.538 8.61215 629.891 5.3147 625.115 2.96547L623.349 6.55487ZM632.493 14.8861C634.558 18.3503 635.61 22.3038 635.61 26.8018H639.61C639.61 21.6498 638.396 16.9767 635.929 12.8378L632.493 14.8861ZM635.61 26.8018C635.61 31.5896 634.271 35.7793 631.607 39.4427L634.841 41.7953C638.026 37.4169 639.61 32.3953 639.61 26.8018H635.61ZM631.593 39.4621C629.028 43.0794 625.281 45.7367 620.215 47.3797L621.449 51.1846C627.203 49.3184 631.718 46.2003 634.855 41.7759L631.593 39.4621ZM619.094 50.2703L635.981 79.9881L639.459 78.0119L622.571 48.294L619.094 50.2703ZM637.72 77H610.963V81H637.72V77ZM596.269 36.9167H605.919V32.9167H596.269V36.9167ZM605.919 36.9167C608.506 36.9167 610.819 36.3565 612.499 34.8866L609.865 31.8763C609.206 32.4533 608.01 32.9167 605.919 32.9167V36.9167ZM612.55 34.8405C614.267 33.2313 614.937 30.9227 614.937 28.3371H610.937C610.937 30.2841 610.437 31.3384 609.814 31.9224L612.55 34.8405ZM614.937 28.3371C614.937 25.8575 614.167 23.6777 612.443 22.0556L609.702 24.9684C610.464 25.6858 610.937 26.7227 610.937 28.3371H614.937ZM612.487 22.0978C610.821 20.4316 608.515 19.7575 605.919 19.7575V23.7575C607.855 23.7575 608.985 24.2531 609.658 24.9262L612.487 22.0978ZM605.919 19.7575H596.269V23.7575H605.919V19.7575ZM594.269 21.7575V34.9167H598.269V21.7575H594.269Z" fill="#6947EF"/>
</svg>
