<svg width="1440" height="143" viewBox="0 0 1440 143" fill="none" xmlns="http://www.w3.org/2000/svg">
<path opacity="0.5" d="M64.3688 42.198L63.4813 42.6588L63.7613 43.198H64.3688V42.198ZM49.3988 26.6292L48.9085 27.5008L48.9155 27.5047L48.9225 27.5085L49.3988 26.6292ZM2.69241 27.4276L3.19027 28.2948V28.2948L2.69241 27.4276ZM-14.2736 44.9924L-15.1522 44.5146L-15.1585 44.5266L-14.2736 44.9924ZM-14.2736 97.8864L-15.1618 98.3458L-15.157 98.355L-15.1521 98.3642L-14.2736 97.8864ZM2.69241 115.451L3.19027 114.584L2.69241 115.451ZM57.3828 111.26L58.0504 112.004L57.3828 111.26ZM71.5544 83.116L72.5439 83.2605L72.7111 82.116H71.5544V83.116ZM19.4588 83.116H18.4588V84.116H19.4588V83.116ZM19.4588 64.9524V63.9524H18.4588V64.9524H19.4588ZM95.9056 64.9524H96.9056V63.9524H95.9056V64.9524ZM95.9056 82.7168L96.8965 82.8514L96.9056 82.7844V82.7168H95.9056ZM84.3288 112.457L83.5061 111.889L83.5005 111.897L84.3288 112.457ZM60.1772 134.214L60.6527 135.093L60.6569 135.091L60.1772 134.214ZM-8.4852 133.216L-8.97904 134.085L-8.97084 134.09L-8.4852 133.216ZM-34.2336 107.866L-35.0986 108.368L-35.0939 108.376L-34.2336 107.866ZM-34.2336 34.8128L-35.0939 34.303L-35.0985 34.3109L-34.2336 34.8128ZM-8.4852 9.66319L-7.99955 10.5374L-7.99594 10.5353L-8.4852 9.66319ZM66.5644 11.4596L66.0256 12.3021L66.037 12.3092L66.5644 11.4596ZM91.714 42.198V43.198H93.1774L92.6457 41.8346L91.714 42.198ZM65.2563 41.7372C61.5785 34.6539 56.4512 29.312 49.8751 25.7499L48.9225 27.5085C55.1208 30.8659 59.9736 35.9031 63.4813 42.6588L65.2563 41.7372ZM49.8891 25.7576C43.3318 22.0691 35.7731 20.24 27.2432 20.24V22.24C35.4797 22.24 42.6914 24.0036 48.9085 27.5008L49.8891 25.7576ZM27.2432 20.24C17.9063 20.24 9.5476 22.3391 2.19454 26.5603L3.19027 28.2948C10.2084 24.2659 18.2169 22.24 27.2432 22.24V20.24ZM2.19454 26.5603C-5.15845 30.7815 -10.9425 36.7744 -15.1521 44.5146L-13.3951 45.4702C-9.35455 38.0407 -3.82794 32.3238 3.19027 28.2948L2.19454 26.5603ZM-15.1585 44.5266C-19.2376 52.277 -21.2616 61.2241 -21.2616 71.3396H-19.2616C-19.2616 61.4951 -17.2935 52.8774 -13.3887 45.4581L-15.1585 44.5266ZM-21.2616 71.3396C-21.2616 81.4556 -19.2375 90.4662 -15.1618 98.3458L-13.3854 97.427C-17.2937 89.8709 -19.2616 81.1836 -19.2616 71.3396H-21.2616ZM-15.1521 98.3642C-10.9425 106.104 -5.15845 112.097 2.19454 116.318L3.19027 114.584C-3.82794 110.555 -9.35455 104.838 -13.3951 97.4086L-15.1521 98.3642ZM2.19454 116.318C9.5476 120.54 17.9063 122.639 27.2432 122.639V120.639C18.2169 120.639 10.2084 118.613 3.19027 114.584L2.19454 116.318ZM27.2432 122.639C39.8144 122.639 50.1147 119.119 58.0504 112.004L56.7153 110.515C49.2152 117.239 39.4224 120.639 27.2432 120.639V122.639ZM58.0504 112.004C65.9689 104.905 70.7857 95.2972 72.5439 83.2605L70.5649 82.9715C68.8633 94.6206 64.2325 103.775 56.7153 110.515L58.0504 112.004ZM71.5544 82.116H19.4588V84.116H71.5544V82.116ZM20.4588 83.116V64.9524H18.4588V83.116H20.4588ZM19.4588 65.9524H95.9056V63.9524H19.4588V65.9524ZM94.9056 64.9524V82.7168H96.9056V64.9524H94.9056ZM94.9147 82.5822C93.4724 93.2029 89.6719 102.968 83.5062 111.889L85.1514 113.026C91.494 103.849 95.4114 93.7875 96.8965 82.8514L94.9147 82.5822ZM83.5005 111.897C77.4725 120.808 69.5437 127.954 59.6975 133.336L60.6569 135.091C70.7708 129.562 78.943 122.204 85.1571 113.018L83.5005 111.897ZM59.7017 133.334C50.0126 138.571 39.2002 141.198 27.2432 141.198V143.198C39.5044 143.198 50.6479 140.501 60.6527 135.093L59.7017 133.334ZM27.2432 141.198C14.3625 141.198 2.62167 138.242 -7.99955 132.341L-8.97084 134.09C1.96473 140.165 14.0429 143.198 27.2432 143.198V141.198ZM-7.99137 132.346C-18.6167 126.312 -27.0739 117.987 -33.3733 107.357L-35.0939 108.376C-28.6189 119.303 -19.9105 127.877 -8.97902 134.085L-7.99137 132.346ZM-33.3687 107.365C-39.5265 96.752 -42.6148 84.7523 -42.6148 71.3396H-44.6148C-44.6148 85.0725 -41.4489 97.424 -35.0985 108.368L-33.3687 107.365ZM-42.6148 71.3396C-42.6148 57.9269 -39.5265 45.9272 -33.3687 35.3147L-35.0985 34.3109C-41.4489 45.2552 -44.6148 57.6067 -44.6148 71.3396H-42.6148ZM-33.3733 35.3226C-27.075 24.6941 -18.6204 16.4378 -7.99955 10.5373L-8.97084 8.78903C-19.9068 14.8646 -28.6178 23.3747 -35.0939 34.303L-33.3733 35.3226ZM-7.99594 10.5353C2.76123 4.50082 14.5014 1.48158 27.2432 1.48158V-0.518415C14.1701 -0.518415 2.09132 2.58342 -8.97445 8.79104L-7.99594 10.5353ZM27.2432 1.48158C41.84 1.48158 54.7568 5.09521 66.0256 12.302L67.1032 10.6171C55.4846 3.18662 42.1872 -0.518415 27.2432 -0.518415V1.48158ZM66.037 12.3092C77.4208 19.375 85.6673 29.4458 90.7824 42.5613L92.6457 41.8346C87.3815 28.3368 78.8617 17.9154 67.0918 10.6099L66.037 12.3092ZM91.714 41.198H64.3688V43.198H91.714V41.198ZM165.853 133.415L165.359 134.285L165.365 134.288L165.372 134.292L165.853 133.415ZM140.105 108.066L139.237 108.563L139.241 108.57L139.244 108.576L140.105 108.066ZM140.105 34.8128L139.244 34.303L139.24 34.3109L140.105 34.8128ZM165.853 9.66319L166.339 10.5374L166.342 10.5353L165.853 9.66319ZM237.31 9.66319L236.816 10.5327L236.822 10.5363L236.829 10.5399L237.31 9.66319ZM263.058 34.8128L262.193 35.3147L263.058 34.8128ZM263.058 108.066L263.923 108.568L263.926 108.563L263.058 108.066ZM237.31 133.415L237.795 134.289L237.799 134.287L237.31 133.415ZM226.132 116.449L226.63 117.317L226.642 117.309L226.132 116.449ZM242.899 98.4852L242.013 98.0201L242.01 98.0258L242.899 98.4852ZM242.899 44.3936L242.01 44.8531L242.017 44.865L242.899 44.3936ZM226.132 26.6292L225.634 27.4964L226.132 26.6292ZM177.031 26.6292L177.528 27.4964L177.031 26.6292ZM160.065 44.3936L159.183 43.9222L159.176 43.9342L160.065 44.3936ZM160.065 98.4852L159.173 98.9384L159.178 98.9476L159.183 98.9566L160.065 98.4852ZM177.031 116.449L176.521 117.31L176.533 117.316L177.031 116.449ZM201.581 141.397C188.836 141.397 177.092 138.443 166.334 132.539L165.372 134.292C176.436 140.364 188.512 143.397 201.581 143.397V141.397ZM166.347 132.546C155.721 126.512 147.264 118.187 140.965 107.556L139.244 108.576C145.719 119.502 154.428 128.077 165.359 134.285L166.347 132.546ZM140.972 107.569C134.812 96.8205 131.723 84.7522 131.723 71.3396H129.723C129.723 85.0726 132.889 97.4885 139.237 108.563L140.972 107.569ZM131.723 71.3396C131.723 57.9269 134.812 45.9272 140.969 35.3147L139.24 34.3109C132.889 45.2552 129.723 57.6067 129.723 71.3396H131.723ZM140.965 35.3226C147.263 24.6941 155.718 16.4378 166.339 10.5373L165.367 8.78903C154.431 14.8646 145.72 23.3747 139.244 34.303L140.965 35.3226ZM166.342 10.5353C177.099 4.50082 188.84 1.48158 201.581 1.48158V-0.518415C188.508 -0.518415 176.429 2.58342 165.364 8.79104L166.342 10.5353ZM201.581 1.48158C214.458 1.48158 226.196 4.50168 236.816 10.5327L237.804 8.79362C226.867 2.58256 214.786 -0.518415 201.581 -0.518415V1.48158ZM236.829 10.5399C247.58 16.4401 256.03 24.6936 262.193 35.3147L263.923 34.3109C257.578 23.3752 248.862 14.8623 237.791 8.78652L236.829 10.5399ZM262.193 35.3147C268.351 45.9272 271.439 57.9269 271.439 71.3396H273.439C273.439 57.6067 270.273 45.2552 263.923 34.3109L262.193 35.3147ZM271.439 71.3396C271.439 84.7522 268.351 96.8205 262.191 107.569L263.926 108.563C270.273 97.4885 273.439 85.0726 273.439 71.3396H271.439ZM262.193 107.564C256.029 118.187 247.577 126.509 236.82 132.543L237.799 134.287C248.866 128.079 257.579 119.502 263.923 108.568L262.193 107.564ZM236.824 132.541C226.203 138.442 214.462 141.397 201.581 141.397V143.397C214.782 143.397 226.86 140.365 237.795 134.289L236.824 132.541ZM201.581 123.637C210.918 123.637 219.277 121.538 226.63 117.316L225.634 115.582C218.616 119.611 210.608 121.637 201.581 121.637V123.637ZM226.642 117.309C233.995 112.952 239.712 106.822 243.787 98.9446L242.01 98.0258C238.101 105.584 232.64 111.43 225.622 115.589L226.642 117.309ZM243.784 98.9503C247.995 90.9351 250.086 81.7225 250.086 71.3396H248.086C248.086 81.449 246.052 90.3334 242.013 98.0201L243.784 98.9503ZM250.086 71.3396C250.086 60.9572 247.995 51.8081 243.78 43.9222L242.017 44.865C246.052 52.4149 248.086 61.2297 248.086 71.3396H250.086ZM243.787 43.9342C239.711 36.0544 233.991 29.9874 226.63 25.7619L225.634 27.4964C232.645 31.5211 238.102 37.297 242.01 44.853L243.787 43.9342ZM226.63 25.7619C219.277 21.5407 210.918 19.4416 201.581 19.4416V21.4416C210.608 21.4416 218.616 23.4675 225.634 27.4964L226.63 25.7619ZM201.581 19.4416C192.244 19.4416 183.886 21.5407 176.533 25.7619L177.528 27.4964C184.547 23.4675 192.555 21.4416 201.581 21.4416V19.4416ZM176.533 25.7619C169.175 29.9857 163.391 36.0487 159.183 43.9222L160.946 44.865C164.988 37.3027 170.515 31.5228 177.528 27.4964L176.533 25.7619ZM159.176 43.9342C155.099 51.8174 153.077 60.9622 153.077 71.3396H155.077C155.077 61.2248 157.046 52.4055 160.953 44.853L159.176 43.9342ZM153.077 71.3396C153.077 81.7175 155.099 90.9258 159.173 98.9384L160.956 98.032C157.046 90.3427 155.077 81.4539 155.077 71.3396H153.077ZM159.183 98.9566C163.39 106.828 169.17 112.954 176.521 117.309L177.54 115.589C170.52 111.429 164.99 105.579 160.946 98.0138L159.183 98.9566ZM176.533 117.316C183.886 121.538 192.244 123.637 201.581 123.637V121.637C192.555 121.637 184.547 119.611 177.528 115.582L176.533 117.316ZM398.423 112.657L399.366 112.325L399.131 111.657H398.423V112.657ZM340.339 112.657V111.657H339.631L339.396 112.325L340.339 112.657ZM330.359 141V142H331.067L331.302 141.332L330.359 141ZM306.607 141L305.665 140.663L305.187 142H306.607V141ZM356.307 2.07839V1.07839H355.603L355.366 1.74154L356.307 2.07839ZM382.654 2.07839L383.596 1.74154L383.359 1.07839H382.654V2.07839ZM432.355 141V142H433.775L433.296 140.663L432.355 141ZM408.403 141L407.46 141.332L407.695 142H408.403V141ZM392.036 94.094V95.094H393.445L392.98 93.7638L392.036 94.094ZM369.481 29.6232L370.425 29.293L369.485 26.6068L368.538 29.2904L369.481 29.6232ZM346.726 94.094L345.783 93.7612L345.313 95.094H346.726V94.094ZM398.423 111.657H340.339V113.657H398.423V111.657ZM339.396 112.325L329.416 140.668L331.302 141.332L341.282 112.989L339.396 112.325ZM330.359 140H306.607V142H330.359V140ZM307.548 141.337L357.249 2.41524L355.366 1.74154L305.665 140.663L307.548 141.337ZM356.307 3.07839H382.654V1.07839H356.307V3.07839ZM381.713 2.41524L431.413 141.337L433.296 140.663L383.596 1.74154L381.713 2.41524ZM432.355 140H408.403V142H432.355V140ZM409.346 140.668L399.366 112.325L397.48 112.989L407.46 141.332L409.346 140.668ZM392.98 93.7638L370.425 29.293L368.537 29.9534L391.092 94.4242L392.98 93.7638ZM368.538 29.2904L345.783 93.7612L347.669 94.4268L370.424 29.956L368.538 29.2904ZM346.726 95.094H392.036V93.094H346.726V95.094ZM563.545 2.27799H564.545V1.27799H563.545V2.27799ZM563.545 20.8408V21.8408H564.545V20.8408H563.545ZM526.619 20.8408V19.8408H525.619V20.8408H526.619ZM526.619 141V142H527.619V141H526.619ZM503.865 141H502.865V142H503.865V141ZM503.865 20.8408H504.865V19.8408H503.865V20.8408ZM466.739 20.8408H465.739V21.8408H466.739V20.8408ZM466.739 2.27799V1.27799H465.739V2.27799H466.739ZM562.545 2.27799V20.8408H564.545V2.27799H562.545ZM563.545 19.8408H526.619V21.8408H563.545V19.8408ZM525.619 20.8408V141H527.619V20.8408H525.619ZM526.619 140H503.865V142H526.619V140ZM504.865 141V20.8408H502.865V141H504.865ZM503.865 19.8408H466.739V21.8408H503.865V19.8408ZM467.739 20.8408V2.27799H465.739V20.8408H467.739ZM466.739 3.27799H563.545V1.27799H466.739V3.27799ZM754.806 141L754.049 141.654L754.348 142H754.806V141ZM701.113 78.9244L701.869 78.2702L700.113 76.2397V78.9244H701.113ZM701.113 141V142H702.113V141H701.113ZM678.359 141H677.359V142H678.359V141ZM678.359 2.27799V1.27799H677.359V2.27799H678.359ZM701.113 2.27799H702.113V1.27799H701.113V2.27799ZM701.113 65.5512H700.113V68.2675L701.874 66.1996L701.113 65.5512ZM755.005 2.27799V1.27799H754.543L754.244 1.62957L755.005 2.27799ZM783.548 2.27799L784.303 2.93341L785.74 1.27799H783.548V2.27799ZM723.269 71.7388L722.513 71.0834L721.939 71.7452L722.52 72.4014L723.269 71.7388ZM784.546 141V142H786.766L785.295 140.337L784.546 141ZM755.562 140.346L701.869 78.2702L700.357 79.5786L754.049 141.654L755.562 140.346ZM700.113 78.9244V141H702.113V78.9244H700.113ZM701.113 140H678.359V142H701.113V140ZM679.359 141V2.27799H677.359V141H679.359ZM678.359 3.27799H701.113V1.27799H678.359V3.27799ZM700.113 2.27799V65.5512H702.113V2.27799H700.113ZM701.874 66.1996L755.766 2.9264L754.244 1.62957L700.352 64.9028L701.874 66.1996ZM755.005 3.27799H783.548V1.27799H755.005V3.27799ZM782.793 1.62256L722.513 71.0834L724.024 72.3942L784.303 2.93341L782.793 1.62256ZM722.52 72.4014L783.797 141.663L785.295 140.337L724.018 71.0762L722.52 72.4014ZM784.546 140H754.806V142H784.546V140ZM938.6 141V142H939.6V141H938.6ZM915.845 141L915.011 141.551L915.307 142H915.845V141ZM847.383 37.4076L848.217 36.8562L846.383 34.0808V37.4076H847.383ZM847.383 141V142H848.383V141H847.383ZM824.628 141H823.628V142H824.628V141ZM824.628 2.07839V1.07839H823.628V2.07839H824.628ZM847.383 2.07839L848.216 1.52629L847.92 1.07839H847.383V2.07839ZM915.845 105.471L915.012 106.023L916.845 108.793V105.471H915.845ZM915.845 2.07839V1.07839H914.845V2.07839H915.845ZM938.6 2.07839H939.6V1.07839H938.6V2.07839ZM938.6 140H915.845V142H938.6V140ZM916.68 140.449L848.217 36.8562L846.548 37.9589L915.011 141.551L916.68 140.449ZM846.383 37.4076V141H848.383V37.4076H846.383ZM847.383 140H824.628V142H847.383V140ZM825.628 141V2.07839H823.628V141H825.628ZM824.628 3.07839H847.383V1.07839H824.628V3.07839ZM846.549 2.63049L915.012 106.023L916.679 104.919L848.216 1.52629L846.549 2.63049ZM916.845 105.471V2.07839H914.845V105.471H916.845ZM915.845 3.07839H938.6V1.07839H915.845V3.07839ZM937.6 2.07839V141H939.6V2.07839H937.6ZM1015.99 133.415L1015.49 134.285L1015.5 134.288L1015.5 134.292L1015.99 133.415ZM990.237 108.066L989.369 108.563L989.373 108.57L989.377 108.576L990.237 108.066ZM990.237 34.8128L989.377 34.303L989.372 34.3109L990.237 34.8128ZM1015.99 9.66319L1016.47 10.5374L1016.47 10.5353L1015.99 9.66319ZM1087.44 9.66319L1086.95 10.5327L1086.95 10.5363L1086.96 10.5399L1087.44 9.66319ZM1113.19 34.8128L1112.33 35.3147L1113.19 34.8128ZM1113.19 108.066L1114.06 108.568L1114.06 108.563L1113.19 108.066ZM1087.44 133.415L1087.93 134.289L1087.93 134.287L1087.44 133.415ZM1076.26 116.449L1076.76 117.317L1076.77 117.309L1076.26 116.449ZM1093.03 98.4852L1092.15 98.0201L1092.14 98.0258L1093.03 98.4852ZM1093.03 44.3936L1092.14 44.8531L1092.15 44.865L1093.03 44.3936ZM1076.26 26.6292L1075.77 27.4964L1076.26 26.6292ZM1027.16 26.6292L1027.66 27.4964L1027.16 26.6292ZM1010.2 44.3936L1009.31 43.9222L1009.31 43.9342L1010.2 44.3936ZM1010.2 98.4852L1009.31 98.9384L1009.31 98.9476L1009.31 98.9566L1010.2 98.4852ZM1027.16 116.449L1026.65 117.31L1026.67 117.316L1027.16 116.449ZM1051.71 141.397C1038.97 141.397 1027.22 138.443 1016.47 132.539L1015.5 134.292C1026.57 140.364 1038.64 143.397 1051.71 143.397V141.397ZM1016.48 132.546C1005.85 126.512 997.397 118.187 991.097 107.556L989.377 108.576C995.852 119.502 1004.56 128.077 1015.49 134.285L1016.48 132.546ZM991.104 107.569C984.944 96.8205 981.856 84.7522 981.856 71.3396H979.856C979.856 85.0726 983.022 97.4885 989.369 108.563L991.104 107.569ZM981.856 71.3396C981.856 57.9269 984.944 45.9272 991.102 35.3147L989.372 34.3109C983.021 45.2552 979.856 57.6067 979.856 71.3396H981.856ZM991.097 35.3226C997.396 24.6941 1005.85 16.4378 1016.47 10.5373L1015.5 8.78903C1004.56 14.8646 995.853 23.3747 989.377 34.303L991.097 35.3226ZM1016.47 10.5353C1027.23 4.50082 1038.97 1.48158 1051.71 1.48158V-0.518415C1038.64 -0.518415 1026.56 2.58342 1015.5 8.79104L1016.47 10.5353ZM1051.71 1.48158C1064.59 1.48158 1076.33 4.50168 1086.95 10.5327L1087.94 8.79362C1077 2.58256 1064.92 -0.518415 1051.71 -0.518415V1.48158ZM1086.96 10.5399C1097.71 16.4401 1106.16 24.6936 1112.33 35.3147L1114.06 34.3109C1107.71 23.3752 1098.99 14.8623 1087.92 8.78652L1086.96 10.5399ZM1112.33 35.3147C1118.48 45.9272 1121.57 57.9269 1121.57 71.3396H1123.57C1123.57 57.6067 1120.41 45.2552 1114.06 34.3109L1112.33 35.3147ZM1121.57 71.3396C1121.57 84.7522 1118.48 96.8205 1112.32 107.569L1114.06 108.563C1120.41 97.4885 1123.57 85.0726 1123.57 71.3396H1121.57ZM1112.33 107.564C1106.16 118.187 1097.71 126.509 1086.95 132.543L1087.93 134.287C1099 128.079 1107.71 119.502 1114.06 108.568L1112.33 107.564ZM1086.96 132.541C1076.34 138.442 1064.59 141.397 1051.71 141.397V143.397C1064.91 143.397 1076.99 140.365 1087.93 134.289L1086.96 132.541ZM1051.71 123.637C1061.05 123.637 1069.41 121.538 1076.76 117.316L1075.77 115.582C1068.75 119.611 1060.74 121.637 1051.71 121.637V123.637ZM1076.77 117.309C1084.13 112.952 1089.84 106.822 1093.92 98.9446L1092.14 98.0258C1088.23 105.584 1082.77 111.43 1075.75 115.589L1076.77 117.309ZM1093.92 98.9503C1098.13 90.9351 1100.22 81.7225 1100.22 71.3396H1098.22C1098.22 81.449 1096.18 90.3334 1092.15 98.0201L1093.92 98.9503ZM1100.22 71.3396C1100.22 60.9572 1098.13 51.8081 1093.91 43.9222L1092.15 44.865C1096.18 52.4149 1098.22 61.2297 1098.22 71.3396H1100.22ZM1093.92 43.9342C1089.84 36.0544 1084.12 29.9874 1076.76 25.7619L1075.77 27.4964C1082.78 31.5211 1088.23 37.297 1092.14 44.853L1093.92 43.9342ZM1076.76 25.7619C1069.41 21.5407 1061.05 19.4416 1051.71 19.4416V21.4416C1060.74 21.4416 1068.75 23.4675 1075.77 27.4964L1076.76 25.7619ZM1051.71 19.4416C1042.38 19.4416 1034.02 21.5407 1026.67 25.7619L1027.66 27.4964C1034.68 23.4675 1042.69 21.4416 1051.71 21.4416V19.4416ZM1026.67 25.7619C1019.31 29.9857 1013.52 36.0487 1009.31 43.9222L1011.08 44.865C1015.12 37.3027 1020.65 31.5228 1027.66 27.4964L1026.67 25.7619ZM1009.31 43.9342C1005.23 51.8174 1003.21 60.9622 1003.21 71.3396H1005.21C1005.21 61.2248 1007.18 52.4055 1011.09 44.853L1009.31 43.9342ZM1003.21 71.3396C1003.21 81.7175 1005.23 90.9258 1009.31 98.9384L1011.09 98.032C1007.18 90.3427 1005.21 81.4539 1005.21 71.3396H1003.21ZM1009.31 98.9566C1013.52 106.828 1019.3 112.954 1026.65 117.309L1027.67 115.589C1020.65 111.429 1015.12 105.579 1011.08 98.0138L1009.31 98.9566ZM1026.67 117.316C1034.02 121.538 1042.38 123.637 1051.71 123.637V121.637C1042.69 121.637 1034.68 119.611 1027.66 115.582L1026.67 117.316ZM1345.56 2.27799L1346.52 2.56217L1346.9 1.27799H1345.56V2.27799ZM1304.44 141V142H1305.19L1305.4 141.284L1304.44 141ZM1278.69 141L1277.73 141.267L1277.93 142H1278.69V141ZM1249.55 36.0104L1250.52 35.7429L1249.58 32.375L1248.59 35.7277L1249.55 36.0104ZM1218.62 141L1218.62 142L1219.36 141.994L1219.57 141.283L1218.62 141ZM1193.07 141.2L1192.1 141.472L1192.31 142.206L1193.07 142.2L1193.07 141.2ZM1153.75 2.27799V1.27799H1152.42L1152.78 2.55033L1153.75 2.27799ZM1177.9 2.27799L1178.87 2.03142L1178.67 1.27799H1177.9V2.27799ZM1206.64 115.252L1205.67 115.498L1206.6 119.155L1207.6 115.517L1206.64 115.252ZM1237.78 2.27799V1.27799H1237.02L1236.81 2.01227L1237.78 2.27799ZM1263.33 2.27799L1264.29 2.02858L1264.1 1.27799H1263.33V2.27799ZM1292.27 114.653L1291.3 114.902H1293.24L1292.27 114.653ZM1321.21 2.27799V1.27799H1320.43L1320.24 2.02858L1321.21 2.27799ZM1344.6 1.9938L1303.48 140.716L1305.4 141.284L1346.52 2.56217L1344.6 1.9938ZM1304.44 140H1278.69V142H1304.44V140ZM1279.66 140.733L1250.52 35.7429L1248.59 36.2778L1277.73 141.267L1279.66 140.733ZM1248.59 35.7277L1217.66 140.717L1219.57 141.283L1250.51 36.2931L1248.59 35.7277ZM1218.61 140L1193.06 140.2L1193.07 142.2L1218.62 142L1218.61 140ZM1194.03 140.927L1154.71 2.00564L1152.78 2.55033L1192.1 141.472L1194.03 140.927ZM1153.75 3.27799H1177.9V1.27799H1153.75V3.27799ZM1176.93 2.52455L1205.67 115.498L1207.61 115.005L1178.87 2.03142L1176.93 2.52455ZM1207.6 115.517L1238.74 2.5437L1236.81 2.01227L1205.68 114.986L1207.6 115.517ZM1237.78 3.27799H1263.33V1.27799H1237.78V3.27799ZM1262.36 2.5274L1291.3 114.902L1293.24 114.403L1264.29 2.02858L1262.36 2.5274ZM1293.24 114.902L1322.18 2.5274L1320.24 2.02858L1291.3 114.403L1293.24 114.902ZM1321.21 3.27799H1345.56V1.27799H1321.21V3.27799ZM1404.85 137.607L1404.44 138.52L1404.45 138.523L1404.45 138.526L1404.85 137.607ZM1387.28 123.635L1388.1 123.055L1387.28 123.635ZM1380.89 102.677V101.677H1379.89V102.677H1380.89ZM1405.25 102.677L1406.24 102.588L1406.16 101.677H1405.25V102.677ZM1412.23 117.447L1411.55 118.177L1411.55 118.183L1411.56 118.188L1412.23 117.447ZM1448.36 117.647L1449.01 118.409L1449.01 118.404L1449.02 118.398L1448.36 117.647ZM1450.75 91.4992L1450.01 92.1719L1450.02 92.1809L1450.03 92.1897L1450.75 91.4992ZM1440.57 84.7128L1440.2 85.6413L1440.21 85.6454L1440.57 84.7128ZM1423.81 79.5232L1423.55 80.4899L1423.56 80.4912L1423.81 79.5232ZM1401.65 72.3376L1401.24 73.2487L1401.25 73.2546L1401.27 73.26L1401.65 72.3376ZM1387.28 19.0444L1388.11 19.5991L1387.28 19.0444ZM1404.05 5.27199L1404.45 6.18581V6.18581L1404.05 5.27199ZM1461.93 10.6612L1461.31 11.4432L1461.32 11.4486L1461.32 11.4538L1461.93 10.6612ZM1476.3 38.206V39.206H1477.39L1477.3 38.1267L1476.3 38.206ZM1451.15 38.206L1450.16 38.2847L1450.23 39.206H1451.15V38.206ZM1410.64 24.8328L1411.26 25.6112L1410.64 24.8328ZM1408.24 49.7828L1407.5 50.4537L1407.52 50.4722L1407.53 50.4899L1408.24 49.7828ZM1434.59 61.3596L1434.85 60.3955L1434.85 60.394L1434.59 61.3596ZM1456.94 68.9444L1456.54 69.8591L1456.55 69.8625L1456.94 68.9444ZM1471.71 80.7208L1470.91 81.3208L1470.92 81.332L1470.93 81.343L1471.71 80.7208ZM1472.11 121.639L1471.26 121.114L1471.26 121.12L1471.25 121.127L1472.11 121.639ZM1455.54 136.808L1456.01 137.696L1456.01 137.693L1455.54 136.808ZM1430 141.397C1420.8 141.397 1412.55 139.821 1405.24 136.688L1404.45 138.526C1412.05 141.78 1420.57 143.397 1430 143.397V141.397ZM1405.25 136.694C1397.95 133.432 1392.24 128.882 1388.1 123.055L1386.47 124.214C1390.84 130.364 1396.84 135.129 1404.44 138.52L1405.25 136.694ZM1388.1 123.055C1383.97 117.251 1381.89 110.472 1381.89 102.677H1379.89C1379.89 110.85 1382.08 118.042 1386.47 124.214L1388.1 123.055ZM1380.89 103.677H1405.25V101.677H1380.89V103.677ZM1404.25 102.765C1404.8 108.981 1407.23 114.139 1411.55 118.177L1412.91 116.717C1408.98 113.038 1406.75 108.348 1406.24 102.588L1404.25 102.765ZM1411.56 118.188C1416.05 122.261 1422.24 124.236 1430 124.236V122.236C1422.58 122.236 1416.93 120.351 1412.9 116.706L1411.56 118.188ZM1430 124.236C1438 124.236 1444.38 122.336 1449.01 118.409L1447.71 116.884C1443.56 120.409 1437.7 122.236 1430 122.236V124.236ZM1449.02 118.398C1453.63 114.344 1455.95 109.144 1455.95 102.876H1453.95C1453.95 108.585 1451.87 113.232 1447.7 116.896L1449.02 118.398ZM1455.95 102.876C1455.95 98.0036 1454.48 93.9504 1451.48 90.8087L1450.03 92.1897C1452.62 94.903 1453.95 98.4345 1453.95 102.876H1455.95ZM1451.49 90.8265C1448.72 87.7712 1445.19 85.4264 1440.94 83.7802L1440.21 85.6454C1444.21 87.1928 1447.47 89.3722 1450.01 92.1719L1451.49 90.8265ZM1440.95 83.7843C1436.9 82.1645 1431.26 80.4223 1424.06 78.5552L1423.56 80.4912C1430.73 82.3499 1436.27 84.0675 1440.2 85.6413L1440.95 83.7843ZM1424.06 78.5565C1415.04 76.1678 1407.7 73.7861 1402.04 71.4152L1401.27 73.26C1407.05 75.6795 1414.48 78.0882 1423.55 80.4899L1424.06 78.5565ZM1402.07 71.4265C1396.64 68.9705 1391.97 65.2195 1388.07 60.1511L1386.49 61.3705C1390.57 66.6813 1395.49 70.6482 1401.24 73.2487L1402.07 71.4265ZM1388.07 60.1511C1384.25 55.1851 1382.29 48.5019 1382.29 40.0024H1380.29C1380.29 48.8015 1382.33 55.9573 1386.49 61.3705L1388.07 60.1511ZM1382.29 40.0024C1382.29 32.1934 1384.24 25.4051 1388.11 19.5991L1386.45 18.4897C1382.34 24.6597 1380.29 31.8434 1380.29 40.0024H1382.29ZM1388.11 19.5991C1391.99 13.7832 1397.43 9.30986 1404.45 6.18581L1403.64 4.35818C1396.3 7.62133 1390.56 12.3296 1386.45 18.4897L1388.11 19.5991ZM1404.45 6.18581C1411.49 3.05928 1419.66 1.48158 1429 1.48158V-0.518415C1419.44 -0.518415 1410.98 1.09749 1403.64 4.35818L1404.45 6.18581ZM1429 1.48158C1442.27 1.48158 1453.01 4.82851 1461.31 11.4432L1462.56 9.87913C1453.82 2.92106 1442.61 -0.518415 1429 -0.518415V1.48158ZM1461.32 11.4538C1469.73 17.9205 1474.4 26.833 1475.31 38.2853L1477.3 38.1267C1476.35 26.1592 1471.43 16.7085 1462.54 9.86856L1461.32 11.4538ZM1476.3 37.206H1451.15V39.206H1476.3V37.206ZM1452.15 38.1273C1451.73 32.7656 1449.18 28.2008 1444.6 24.458L1443.33 26.0059C1447.54 29.4487 1449.78 33.5333 1450.16 38.2847L1452.15 38.1273ZM1444.6 24.458C1439.99 20.6837 1433.96 18.8428 1426.6 18.8428V20.8428C1433.62 20.8428 1439.17 22.5947 1443.33 26.0059L1444.6 24.458ZM1426.6 18.8428C1419.91 18.8428 1414.35 20.5536 1410.01 24.0544L1411.26 25.6112C1415.17 22.4586 1420.26 20.8428 1426.6 20.8428V18.8428ZM1410.01 24.0544C1405.6 27.606 1403.45 32.7082 1403.45 39.204H1405.45C1405.45 33.1915 1407.42 28.7129 1411.26 25.6112L1410.01 24.0544ZM1403.45 39.204C1403.45 43.6755 1404.78 47.4513 1407.5 50.4537L1408.98 49.1119C1406.64 46.5255 1405.45 43.2488 1405.45 39.204H1403.45ZM1407.53 50.4899C1410.3 53.2597 1413.75 55.4585 1417.85 57.0985L1418.59 55.2415C1414.71 53.6879 1411.5 51.6286 1408.95 49.0757L1407.53 50.4899ZM1417.85 57.0985C1421.89 58.7162 1427.39 60.4578 1434.33 62.3252L1434.85 60.394C1427.94 58.5355 1422.53 56.8174 1418.59 55.2415L1417.85 57.0985ZM1434.32 62.3237C1443.48 64.8449 1450.88 67.3581 1456.54 69.8591L1457.35 68.0297C1451.56 65.4742 1444.06 62.9308 1434.85 60.3955L1434.32 62.3237ZM1456.55 69.8625C1462.23 72.3186 1467.02 76.1312 1470.91 81.3208L1472.51 80.1208C1468.42 74.665 1463.36 70.6267 1457.34 68.0263L1456.55 69.8625ZM1470.93 81.343C1474.87 86.3056 1476.9 93.0488 1476.9 101.679H1478.9C1478.9 92.744 1476.8 85.5151 1472.5 80.0985L1470.93 81.343ZM1476.9 101.679C1476.9 108.538 1475.03 115.01 1471.26 121.114L1472.96 122.164C1476.91 115.759 1478.9 108.925 1478.9 101.679H1476.9ZM1471.25 121.127C1467.63 127.202 1462.26 132.139 1455.08 135.924L1456.01 137.693C1463.47 133.76 1469.14 128.583 1472.97 122.151L1471.25 121.127ZM1455.08 135.921C1448.07 139.558 1439.72 141.397 1430 141.397V143.397C1439.97 143.397 1448.65 141.51 1456.01 137.696L1455.08 135.921Z" fill="#6947EF"/>
</svg>
