<svg width="1019" height="90" viewBox="0 0 1019 90" fill="none" xmlns="http://www.w3.org/2000/svg">
<rect width="1019" height="90" fill="black"/>
<path d="M29.1383 79.6136L28.1528 81.354L28.1617 81.359L29.1383 79.6136ZM14.6631 65.3578L12.9409 66.3746L12.9409 66.3746L14.6631 65.3578ZM14.6631 24.345L16.3854 25.3617L14.6631 24.345ZM29.1383 10.1988L30.1078 11.9481L30.1148 11.9442L29.1383 10.1988ZM69.3835 10.1988L68.398 11.9392L68.406 11.9437L68.414 11.9481L69.3835 10.1988ZM83.7489 24.345L82.0176 25.3462L82.0221 25.354L82.0267 25.3617L83.7489 24.345ZM83.7489 65.3578L82.0267 64.341L82.0221 64.3488L82.0176 64.3565L83.7489 65.3578ZM69.2738 79.6136L68.2972 77.8682L68.2883 77.8733L69.2738 79.6136ZM60.501 57.4623L62.0195 58.7639L62.0271 58.755L62.0345 58.7462L60.501 57.4623ZM60.501 32.2405L58.9675 33.5243L58.975 33.5332L58.9825 33.5421L60.501 32.2405ZM38.0207 32.2405L39.5392 33.5421L39.5468 33.5332L39.5542 33.5243L38.0207 32.2405ZM38.0207 57.4623L36.4872 58.7462L36.4947 58.755L36.5022 58.7639L38.0207 57.4623ZM49.3157 82.7676C42.3331 82.7676 35.9455 81.1307 30.1148 77.8682L28.1617 81.359C34.6129 84.9686 41.6769 86.7676 49.3157 86.7676V82.7676ZM30.1238 77.8733C24.3639 74.6117 19.7916 70.1107 16.3854 64.341L12.9409 66.3746C16.6992 72.7406 21.7769 77.7435 28.1528 81.3539L30.1238 77.8733ZM16.3854 64.341C12.9993 58.6054 11.2898 52.1261 11.2898 44.8514H7.2898C7.2898 52.7829 9.16251 59.9745 12.9409 66.3746L16.3854 64.341ZM11.2898 44.8514C11.2898 37.5767 12.9993 31.0973 16.3854 25.3617L12.9409 23.3282C9.16251 29.7283 7.2898 36.9199 7.2898 44.8514H11.2898ZM16.3854 25.3617C19.7894 19.5957 24.3567 15.1354 30.1078 11.9481L28.1688 8.44951C21.7841 11.988 16.7013 16.9585 12.9409 23.3282L16.3854 25.3617ZM30.1148 11.9442C35.9455 8.68176 42.3331 7.04479 49.3157 7.04479V3.04479C41.6769 3.04479 34.6129 4.84384 28.1617 8.45345L30.1148 11.9442ZM49.3157 7.04479C56.2983 7.04479 62.6455 8.6817 68.398 11.9392L70.369 8.45847C63.9858 4.8439 56.9544 3.04479 49.3157 3.04479V7.04479ZM68.414 11.9481C74.1613 15.1334 78.688 19.5887 82.0176 25.3462L85.4803 23.3437C81.7917 16.9655 76.7413 11.99 70.353 8.44951L68.414 11.9481ZM82.0267 25.3617C85.4128 31.0973 87.1223 37.5767 87.1223 44.8514H91.1223C91.1223 36.9199 89.2496 29.7283 85.4712 23.3282L82.0267 25.3617ZM87.1223 44.8514C87.1223 52.1261 85.4128 58.6054 82.0267 64.341L85.4712 66.3746C89.2496 59.9745 91.1223 52.7829 91.1223 44.8514H87.1223ZM82.0176 64.3565C78.6893 70.1117 74.1256 74.6071 68.2973 77.8682L70.2504 81.359C76.704 77.748 81.7903 72.7396 85.4803 66.359L82.0176 64.3565ZM68.2883 77.8733C62.5327 81.1325 56.2215 82.7676 49.3157 82.7676V86.7676C56.885 86.7676 63.8792 84.9668 70.2593 81.3539L68.2883 77.8733ZM49.3157 64.068C54.6006 64.068 58.9338 62.3638 62.0195 58.7639L58.9825 56.1607C56.8045 58.7017 53.6809 60.068 49.3157 60.068V64.068ZM62.0345 58.7462C65.0448 55.1506 66.4488 50.4485 66.4488 44.8514H62.4488C62.4488 49.7816 61.2209 53.4868 58.9675 56.1784L62.0345 58.7462ZM66.4488 44.8514C66.4488 39.1919 65.0498 34.4742 62.0195 30.9389L58.9825 33.5421C61.2159 36.1477 62.4488 39.8373 62.4488 44.8514H66.4488ZM62.0345 30.9566C58.954 27.277 54.6166 25.5251 49.3157 25.5251V29.5251C53.6649 29.5251 56.7844 30.9167 58.9675 33.5243L62.0345 30.9566ZM49.3157 25.5251C43.9528 25.5251 39.5738 27.2698 36.4872 30.9566L39.5542 33.5243C41.7313 30.9239 44.8823 29.5251 49.3157 29.5251V25.5251ZM36.5022 30.9389C33.4719 34.4742 32.073 39.1919 32.073 44.8514H36.073C36.073 39.8373 37.3058 36.1477 39.5392 33.5421L36.5022 30.9389ZM32.073 44.8514C32.073 50.4485 33.4769 55.1506 36.4872 58.7462L39.5542 56.1784C37.3008 53.4868 36.073 49.7816 36.073 44.8514H32.073ZM36.5022 58.7639C39.5938 62.3708 43.9687 64.068 49.3157 64.068V60.068C44.8664 60.068 41.7113 58.6947 39.5392 56.1607L36.5022 58.7639ZM140.891 6.36072H142.891V4.36072H140.891V6.36072ZM143.194 58.6685L141.574 59.8416L141.597 59.8733L141.621 59.9042L143.194 58.6685ZM158.656 58.6685L160.202 59.938L160.212 59.9248L160.223 59.9113L158.656 58.6685ZM161.178 6.36072V4.36072H159.178V6.36072H161.178ZM185.413 6.36072H187.413V4.36072H185.413V6.36072ZM180.807 69.0862L182.529 70.1045L182.535 70.094L180.807 69.0862ZM168.197 80.8199L169.081 82.6136L169.081 82.6136L168.197 80.8199ZM132.776 80.8199L131.851 82.5931L131.862 82.5984L132.776 80.8199ZM120.933 69.0862L119.18 70.0491L119.18 70.0491L120.933 69.0862ZM116.656 6.36072V4.36072H114.656V6.36072H116.656ZM138.891 6.36072V50.1151H142.891V6.36072H138.891ZM138.891 50.1151C138.891 53.9664 139.716 57.2748 141.574 59.8416L144.814 57.4955C143.602 55.8221 142.891 53.4281 142.891 50.1151H138.891ZM141.621 59.9042C143.731 62.5889 146.976 63.739 150.87 63.739V59.739C147.746 59.739 145.874 58.8422 144.767 57.4329L141.621 59.9042ZM150.87 63.739C154.77 63.739 158.026 62.5872 160.202 59.938L157.111 57.3991C155.924 58.8439 153.989 59.739 150.87 59.739V63.739ZM160.223 59.9113C162.264 57.3379 163.178 54.002 163.178 50.1151H159.178C159.178 53.3925 158.411 55.759 157.089 57.4257L160.223 59.9113ZM163.178 50.1151V6.36072H159.178V50.1151H163.178ZM161.178 8.36072H185.413V4.36072H161.178V8.36072ZM183.413 6.36072V50.1151H187.413V6.36072H183.413ZM183.413 50.1151C183.413 57.2196 181.938 63.1795 179.08 68.0785L182.535 70.094C185.818 64.4657 187.413 57.7781 187.413 50.1151H183.413ZM179.086 68.068C176.211 72.9291 172.296 76.5685 167.312 79.0261L169.081 82.6136C174.771 79.8076 179.263 75.6245 182.529 70.1045L179.086 68.068ZM167.312 79.0261C162.278 81.5085 156.628 82.7676 150.322 82.7676V86.7676C157.176 86.7676 163.441 85.3949 169.081 82.6136L167.312 79.0261ZM150.322 82.7676C144.015 82.7676 138.487 81.508 133.691 79.0413L131.862 82.5984C137.3 85.3954 143.47 86.7676 150.322 86.7676V82.7676ZM133.702 79.0467C129.022 76.6051 125.355 72.983 122.686 68.1233L119.18 70.0491C122.213 75.5706 126.442 79.7709 131.851 82.593L133.702 79.0467ZM122.686 68.1233C120.034 63.2948 118.656 57.3209 118.656 50.1151H114.656C114.656 57.8229 116.13 64.4966 119.18 70.0491L122.686 68.1233ZM118.656 50.1151V6.36072H114.656V50.1151H118.656ZM116.656 8.36072H140.891V4.36072H116.656V8.36072ZM254.143 84L252.371 84.9278L252.932 86H254.143V84ZM239.558 56.1464L241.33 55.2186L240.768 54.1464H239.558V56.1464ZM239.448 56.1464V54.1464H237.448V56.1464H239.448ZM239.448 84V86H241.448V84H239.448ZM215.104 84H213.104V86H215.104V84ZM215.104 6.36072V4.36072H213.104V6.36072H215.104ZM267.411 9.76017L266.505 11.5431L266.517 11.5491L266.529 11.5549L267.411 9.76017ZM277.391 18.862L275.65 19.8472L275.661 19.8667L275.673 19.8861L277.391 18.862ZM276.404 45.619L274.786 44.4427L274.779 44.4524L274.772 44.4621L276.404 45.619ZM264.012 54.2821L263.395 52.3797L261.061 53.1367L262.273 55.2703L264.012 54.2821ZM280.9 84V86H284.337L282.638 83.0119L280.9 84ZM239.448 39.9167H237.448V41.9167H239.448V39.9167ZM254.362 38.3814L255.679 39.8866L255.705 39.864L255.73 39.8405L254.362 38.3814ZM254.252 28.512L252.838 29.9262L252.859 29.9477L252.882 29.9684L254.252 28.512ZM239.448 26.7575V24.7575H237.448V26.7575H239.448ZM255.914 83.0722L241.33 55.2186L237.786 57.0741L252.371 84.9278L255.914 83.0722ZM239.558 54.1464H239.448V58.1464H239.558V54.1464ZM237.448 56.1464V84H241.448V56.1464H237.448ZM239.448 82H215.104V86H239.448V82ZM217.104 84V6.36072H213.104V84H217.104ZM215.104 8.36072H251.291V4.36072H215.104V8.36072ZM251.291 8.36072C257.343 8.36072 262.389 9.45143 266.505 11.5431L268.318 7.9772C263.514 5.5363 257.815 4.36072 251.291 4.36072V8.36072ZM266.529 11.5549C270.671 13.5921 273.678 16.3625 275.65 19.8472L279.131 17.8768C276.717 13.6121 273.071 10.3147 268.294 7.96547L266.529 11.5549ZM275.673 19.8861C277.738 23.3503 278.79 27.3038 278.79 31.8018H282.79C282.79 26.6498 281.576 21.9767 279.108 17.8378L275.673 19.8861ZM278.79 31.8018C278.79 36.5896 277.45 40.7793 274.786 44.4427L278.021 46.7953C281.205 42.4169 282.79 37.3953 282.79 31.8018H278.79ZM274.772 44.4621C272.207 48.0794 268.461 50.7367 263.395 52.3797L264.629 56.1846C270.383 54.3184 274.898 51.2003 278.035 46.7759L274.772 44.4621ZM262.273 55.2703L279.161 84.9881L282.638 83.0119L265.751 53.294L262.273 55.2703ZM280.9 82H254.143V86H280.9V82ZM239.448 41.9167H249.098V37.9167H239.448V41.9167ZM249.098 41.9167C251.685 41.9167 253.999 41.3565 255.679 39.8866L253.045 36.8763C252.385 37.4533 251.19 37.9167 249.098 37.9167V41.9167ZM255.73 39.8405C257.446 38.2313 258.116 35.9227 258.116 33.3371H254.116C254.116 35.2841 253.617 36.3384 252.994 36.9224L255.73 39.8405ZM258.116 33.3371C258.116 30.8575 257.346 28.6777 255.623 27.0556L252.882 29.9684C253.644 30.6858 254.116 31.7227 254.116 33.3371H258.116ZM255.666 27.0978C254 25.4316 251.694 24.7575 249.098 24.7575V28.7575C251.035 28.7575 252.165 29.2531 252.838 29.9262L255.666 27.0978ZM249.098 24.7575H239.448V28.7575H249.098V24.7575ZM237.448 26.7575V39.9167H241.448V26.7575H237.448ZM347.994 24.5643L346.223 23.6355L346.219 23.644L346.214 23.6525L347.994 24.5643ZM361.373 10.6375L362.363 12.3753L362.371 12.3706L362.379 12.3658L361.373 10.6375ZM399.754 9.4312L398.88 11.2299L398.894 11.2372L398.91 11.2442L399.754 9.4312ZM412.694 20.0682L411.066 21.2307L411.072 21.2392L411.079 21.2476L412.694 20.0682ZM419.383 36.1882V38.1882H421.772L421.352 35.8367L419.383 36.1882ZM393.723 36.1882L391.904 37.0198L392.438 38.1882H393.723V36.1882ZM388.678 30.2666L387.543 31.913L387.575 31.9353L387.608 31.9562L388.678 30.2666ZM371.571 32.6791L369.999 31.4435L369.989 31.4552L369.98 31.467L371.571 32.6791ZM371.571 57.4623L369.98 58.6744L369.989 58.6862L369.999 58.6979L371.571 57.4623ZM388.678 59.9845L389.774 61.6574L389.781 61.653L389.788 61.6486L388.678 59.9845ZM393.723 53.9532V51.9532H392.438L391.904 53.1216L393.723 53.9532ZM419.383 53.9532L421.352 54.3047L421.772 51.9532H419.383V53.9532ZM412.694 70.0732L411.079 68.8938L411.072 68.9022L411.066 68.9107L412.694 70.0732ZM399.754 80.8199L400.608 82.6284L400.619 82.6233L399.754 80.8199ZM361.373 79.6136L360.367 81.342L360.375 81.3467L360.383 81.3514L361.373 79.6136ZM347.994 65.5771L346.214 66.4889L346.219 66.4974L346.223 66.5059L347.994 65.5771ZM345.389 45.0707C345.389 37.6669 346.868 31.1514 349.775 25.476L346.214 23.6525C342.98 29.9666 341.389 37.122 341.389 45.0707H345.389ZM349.766 25.4931C352.735 19.8306 356.926 15.4721 362.363 12.3753L360.383 8.89962C354.269 12.3825 349.541 17.3085 346.223 23.6355L349.766 25.4931ZM362.379 12.3658C367.801 9.20912 374.24 7.59309 381.77 7.59309V3.59309C373.655 3.59309 366.496 5.33998 360.367 8.9091L362.379 12.3658ZM381.77 7.59309C388.238 7.59309 393.926 8.82209 398.88 11.2299L400.628 7.63246C395.054 4.92283 388.753 3.59309 381.77 3.59309V7.59309ZM398.91 11.2442C403.947 13.5902 407.985 16.9172 411.066 21.2307L414.321 18.9057C410.823 14.0078 406.235 10.2434 400.598 7.6182L398.91 11.2442ZM411.079 21.2476C414.246 25.5855 416.366 30.6696 417.414 36.5398L421.352 35.8367C420.207 29.425 417.868 23.7624 414.309 18.8888L411.079 21.2476ZM419.383 34.1882H393.723V38.1882H419.383V34.1882ZM395.542 35.3567C394.225 32.4762 392.297 30.1908 389.748 28.577L387.608 31.9562C389.446 33.1204 390.881 34.7828 391.904 37.0198L395.542 35.3567ZM389.814 28.6202C387.333 26.9094 384.481 26.0734 381.331 26.0734V30.0734C383.737 30.0734 385.783 30.6995 387.543 31.913L389.814 28.6202ZM381.331 26.0734C376.658 26.0734 372.811 27.8639 369.999 31.4435L373.144 33.9148C375.157 31.3533 377.816 30.0734 381.331 30.0734V26.0734ZM369.98 31.467C367.297 34.9886 366.062 39.5919 366.062 45.0707H370.062C370.062 40.1683 371.167 36.5105 373.162 33.8912L369.98 31.467ZM366.062 45.0707C366.062 50.5495 367.297 55.1527 369.98 58.6744L373.162 56.2502C371.167 53.6308 370.062 49.9731 370.062 45.0707H366.062ZM369.999 58.6979C372.811 62.2775 376.658 64.068 381.331 64.068V60.068C377.816 60.068 375.157 58.7881 373.144 56.2266L369.999 58.6979ZM381.331 64.068C384.46 64.068 387.297 63.2802 389.774 61.6574L387.582 58.3115C385.819 59.4668 383.759 60.068 381.331 60.068V64.068ZM389.788 61.6486C392.311 59.9662 394.228 57.6578 395.542 54.7847L391.904 53.1216C390.878 55.366 389.432 57.0784 387.569 58.3204L389.788 61.6486ZM393.723 55.9532H419.383V51.9532H393.723V55.9532ZM417.414 53.6016C416.366 59.4718 414.246 64.5559 411.079 68.8938L414.309 71.2526C417.868 66.379 420.207 60.7164 421.352 54.3047L417.414 53.6016ZM411.066 68.9107C407.982 73.2291 403.936 76.5967 398.889 79.0164L400.619 82.6233C406.245 79.9256 410.826 76.1287 414.321 71.2357L411.066 68.9107ZM398.9 79.0114C393.942 81.3527 388.246 82.5483 381.77 82.5483V86.5483C388.745 86.5483 395.039 85.2583 400.608 82.6284L398.9 79.0114ZM381.77 82.5483C374.233 82.5483 367.787 80.9656 362.363 77.8758L360.383 81.3514C366.51 84.8412 373.662 86.5483 381.77 86.5483V82.5483ZM362.379 77.8852C356.933 74.7142 352.737 70.3144 349.766 64.6483L346.223 66.5059C349.539 72.8293 354.262 77.7872 360.367 81.342L362.379 77.8852ZM349.775 64.6654C346.868 58.99 345.389 52.4744 345.389 45.0707H341.389C341.389 53.0194 342.98 60.1747 346.214 66.4889L349.775 64.6654ZM464.994 79.6136L464.008 81.354L464.017 81.359L464.994 79.6136ZM450.519 65.3578L448.797 66.3746L448.797 66.3746L450.519 65.3578ZM450.519 24.345L452.241 25.3617L450.519 24.345ZM464.994 10.1988L465.963 11.9481L465.971 11.9442L464.994 10.1988ZM505.239 10.1988L504.254 11.9392L504.262 11.9437L504.27 11.9481L505.239 10.1988ZM519.605 24.345L517.873 25.3462L517.878 25.354L517.882 25.3617L519.605 24.345ZM519.605 65.3578L517.882 64.341L517.878 64.3488L517.873 64.3565L519.605 65.3578ZM505.13 79.6136L504.153 77.8682L504.144 77.8733L505.13 79.6136ZM496.357 57.4623L497.875 58.7639L497.883 58.755L497.89 58.7462L496.357 57.4623ZM496.357 32.2405L494.823 33.5243L494.831 33.5332L494.838 33.5421L496.357 32.2405ZM473.876 32.2405L475.395 33.5421L475.402 33.5332L475.41 33.5243L473.876 32.2405ZM473.876 57.4623L472.343 58.7462L472.35 58.755L472.358 58.7639L473.876 57.4623ZM485.171 82.7676C478.189 82.7676 471.801 81.1307 465.971 77.8682L464.017 81.359C470.469 84.9686 477.533 86.7676 485.171 86.7676V82.7676ZM465.979 77.8733C460.22 74.6117 455.647 70.1107 452.241 64.341L448.797 66.3746C452.555 72.7406 457.633 77.7435 464.008 81.3539L465.979 77.8733ZM452.241 64.341C448.855 58.6054 447.145 52.1261 447.145 44.8514H443.145C443.145 52.7829 445.018 59.9745 448.797 66.3746L452.241 64.341ZM447.145 44.8514C447.145 37.5767 448.855 31.0973 452.241 25.3617L448.797 23.3282C445.018 29.7283 443.145 36.9199 443.145 44.8514H447.145ZM452.241 25.3617C455.645 19.5957 460.212 15.1354 465.963 11.9481L464.024 8.44951C457.64 11.988 452.557 16.9585 448.797 23.3282L452.241 25.3617ZM465.971 11.9442C471.801 8.68176 478.189 7.04479 485.171 7.04479V3.04479C477.533 3.04479 470.469 4.84384 464.017 8.45345L465.971 11.9442ZM485.171 7.04479C492.154 7.04479 498.501 8.6817 504.254 11.9392L506.225 8.45847C499.841 4.8439 492.81 3.04479 485.171 3.04479V7.04479ZM504.27 11.9481C510.017 15.1334 514.544 19.5887 517.873 25.3462L521.336 23.3437C517.647 16.9655 512.597 11.99 506.209 8.44951L504.27 11.9481ZM517.882 25.3617C521.268 31.0973 522.978 37.5767 522.978 44.8514H526.978C526.978 36.9199 525.105 29.7283 521.327 23.3282L517.882 25.3617ZM522.978 44.8514C522.978 52.1261 521.268 58.6054 517.882 64.341L521.327 66.3746C525.105 59.9745 526.978 52.7829 526.978 44.8514H522.978ZM517.873 64.3565C514.545 70.1117 509.981 74.6071 504.153 77.8682L506.106 81.359C512.56 77.748 517.646 72.7396 521.336 66.359L517.873 64.3565ZM504.144 77.8733C498.388 81.1325 492.077 82.7676 485.171 82.7676V86.7676C492.741 86.7676 499.735 84.9668 506.115 81.3539L504.144 77.8733ZM485.171 64.068C490.456 64.068 494.79 62.3638 497.875 58.7639L494.838 56.1607C492.66 58.7017 489.537 60.068 485.171 60.068V64.068ZM497.89 58.7462C500.9 55.1506 502.304 50.4485 502.304 44.8514H498.304C498.304 49.7816 497.077 53.4868 494.823 56.1784L497.89 58.7462ZM502.304 44.8514C502.304 39.1919 500.905 34.4742 497.875 30.9389L494.838 33.5421C497.072 36.1477 498.304 39.8373 498.304 44.8514H502.304ZM497.89 30.9566C494.81 27.277 490.472 25.5251 485.171 25.5251V29.5251C489.521 29.5251 492.64 30.9167 494.823 33.5243L497.89 30.9566ZM485.171 25.5251C479.809 25.5251 475.429 27.2698 472.343 30.9566L475.41 33.5243C477.587 30.9239 480.738 29.5251 485.171 29.5251V25.5251ZM472.358 30.9389C469.328 34.4742 467.929 39.1919 467.929 44.8514H471.929C471.929 39.8373 473.161 36.1477 475.395 33.5421L472.358 30.9389ZM467.929 44.8514C467.929 50.4485 469.333 55.1506 472.343 58.7462L475.41 56.1784C473.156 53.4868 471.929 49.7816 471.929 44.8514H467.929ZM472.358 58.7639C475.45 62.3708 479.824 64.068 485.171 64.068V60.068C480.722 60.068 477.567 58.6947 475.395 56.1607L472.358 58.7639ZM627.41 84V86H629.41V84H627.41ZM603.065 84L601.396 85.1018L601.989 86H603.065V84ZM577.295 44.961L578.964 43.8592L575.295 38.3009V44.961H577.295ZM577.295 84V86H579.295V84H577.295ZM552.951 84H550.951V86H552.951V84ZM552.951 6.36072V4.36072H550.951V6.36072H552.951ZM577.295 6.36072L578.973 5.27172L578.381 4.36072H577.295V6.36072ZM603.065 46.0576L601.388 47.1466L605.065 52.8116V46.0576H603.065ZM603.065 6.36072V4.36072H601.065V6.36072H603.065ZM627.41 6.36072H629.41V4.36072H627.41V6.36072ZM627.41 82H603.065V86H627.41V82ZM604.734 82.8982L578.964 43.8592L575.626 46.0629L601.396 85.1018L604.734 82.8982ZM575.295 44.961V84H579.295V44.961H575.295ZM577.295 82H552.951V86H577.295V82ZM554.951 84V6.36072H550.951V84H554.951ZM552.951 8.36072H577.295V4.36072H552.951V8.36072ZM575.618 7.44972L601.388 47.1466L604.743 44.9686L578.973 5.27172L575.618 7.44972ZM605.065 46.0576V6.36072H601.065V46.0576H605.065ZM603.065 8.36072H627.41V4.36072H603.065V8.36072ZM625.41 6.36072V84H629.41V6.36072H625.41ZM718.57 6.36072H720.57V4.36072H718.57V6.36072ZM718.57 25.6609V27.6609H720.57V25.6609H718.57ZM697.954 25.6609V23.6609H695.954V25.6609H697.954ZM697.954 84V86H699.954V84H697.954ZM673.609 84H671.609V86H673.609V84ZM673.609 25.6609H675.609V23.6609H673.609V25.6609ZM653.213 25.6609H651.213V27.6609H653.213V25.6609ZM653.213 6.36072V4.36072H651.213V6.36072H653.213ZM716.57 6.36072V25.6609H720.57V6.36072H716.57ZM718.57 23.6609H697.954V27.6609H718.57V23.6609ZM695.954 25.6609V84H699.954V25.6609H695.954ZM697.954 82H673.609V86H697.954V82ZM675.609 84V25.6609H671.609V84H675.609ZM673.609 23.6609H653.213V27.6609H673.609V23.6609ZM655.213 25.6609V6.36072H651.213V25.6609H655.213ZM653.213 8.36072H718.57V4.36072H653.213V8.36072ZM794.149 72.2664L796.05 71.6446L795.599 70.2664H794.149V72.2664ZM768.269 72.2664V70.2664H766.819L766.368 71.6446L768.269 72.2664ZM764.431 84V86H765.881L766.332 84.6218L764.431 84ZM738.88 84L737.002 83.3129L736.019 86H738.88V84ZM767.282 6.36072V4.36072H765.884L765.404 5.67361L767.282 6.36072ZM795.355 6.36072L797.234 5.67595L796.755 4.36072H795.355V6.36072ZM823.647 84V86H826.505L825.526 83.3152L823.647 84ZM797.987 84L796.086 84.6218L796.537 86H797.987V84ZM788.227 53.9532V55.9532H790.98L790.129 53.3352L788.227 53.9532ZM781.209 32.3501L783.111 31.7322L781.209 25.8772L779.307 31.7322L781.209 32.3501ZM774.191 53.9532L772.288 53.3352L771.438 55.9532H774.191V53.9532ZM794.149 70.2664H768.269V74.2664H794.149V70.2664ZM766.368 71.6446L762.53 83.3782L766.332 84.6218L770.17 72.8882L766.368 71.6446ZM764.431 82H738.88V86H764.431V82ZM740.758 84.6871L769.16 7.04782L765.404 5.67361L737.002 83.3129L740.758 84.6871ZM767.282 8.36072H795.355V4.36072H767.282V8.36072ZM793.476 7.04548L821.768 84.6848L825.526 83.3152L797.234 5.67595L793.476 7.04548ZM823.647 82H797.987V86H823.647V82ZM799.888 83.3782L796.05 71.6446L792.248 72.8882L796.086 84.6218L799.888 83.3782ZM790.129 53.3352L783.111 31.7322L779.307 32.9681L786.325 54.5711L790.129 53.3352ZM779.307 31.7322L772.288 53.3352L776.093 54.5711L783.111 32.9681L779.307 31.7322ZM774.191 55.9532H788.227V51.9532H774.191V55.9532ZM850.781 24.5643L849.01 23.6355L849.006 23.644L849.001 23.6525L850.781 24.5643ZM864.16 10.6375L865.15 12.3753L865.158 12.3706L865.166 12.3658L864.16 10.6375ZM902.541 9.4312L901.666 11.2299L901.681 11.2372L901.696 11.2442L902.541 9.4312ZM915.481 20.0682L913.853 21.2307L913.859 21.2392L913.865 21.2476L915.481 20.0682ZM922.17 36.1882V38.1882H924.559L924.139 35.8367L922.17 36.1882ZM896.509 36.1882L894.691 37.0198L895.225 38.1882H896.509V36.1882ZM891.465 30.2666L890.33 31.913L890.362 31.9353L890.395 31.9562L891.465 30.2666ZM874.358 32.6791L872.786 31.4435L872.776 31.4552L872.767 31.467L874.358 32.6791ZM874.358 57.4623L872.767 58.6744L872.776 58.6862L872.786 58.6979L874.358 57.4623ZM891.465 59.9845L892.561 61.6574L892.568 61.653L892.575 61.6486L891.465 59.9845ZM896.509 53.9532V51.9532H895.225L894.691 53.1216L896.509 53.9532ZM922.17 53.9532L924.139 54.3047L924.559 51.9532H922.17V53.9532ZM915.481 70.0732L913.865 68.8938L913.859 68.9022L913.853 68.9107L915.481 70.0732ZM902.541 80.8199L903.395 82.6284L903.405 82.6233L902.541 80.8199ZM864.16 79.6136L863.153 81.342L863.162 81.3467L863.17 81.3514L864.16 79.6136ZM850.781 65.5771L849.001 66.4889L849.006 66.4974L849.01 66.5059L850.781 65.5771ZM848.176 45.0707C848.176 37.6669 849.654 31.1514 852.561 25.476L849.001 23.6525C845.767 29.9666 844.176 37.122 844.176 45.0707H848.176ZM852.553 25.4931C855.522 19.8306 859.713 15.4721 865.15 12.3753L863.17 8.89962C857.056 12.3825 852.328 17.3085 849.01 23.6355L852.553 25.4931ZM865.166 12.3658C870.587 9.20912 877.027 7.59309 884.557 7.59309V3.59309C876.441 3.59309 869.283 5.33998 863.153 8.9091L865.166 12.3658ZM884.557 7.59309C891.025 7.59309 896.713 8.82209 901.666 11.2299L903.415 7.63246C897.841 4.92283 891.54 3.59309 884.557 3.59309V7.59309ZM901.696 11.2442C906.733 13.5902 910.772 16.9172 913.853 21.2307L917.108 18.9057C913.61 14.0078 909.022 10.2434 903.385 7.6182L901.696 11.2442ZM913.865 21.2476C917.033 25.5855 919.153 30.6696 920.201 36.5398L924.139 35.8367C922.994 29.425 920.654 23.7624 917.096 18.8888L913.865 21.2476ZM922.17 34.1882H896.509V38.1882H922.17V34.1882ZM898.328 35.3567C897.012 32.4762 895.083 30.1908 892.535 28.577L890.395 31.9562C892.233 33.1204 893.668 34.7828 894.691 37.0198L898.328 35.3567ZM892.601 28.6202C890.12 26.9094 887.268 26.0734 884.118 26.0734V30.0734C886.524 30.0734 888.57 30.6995 890.33 31.913L892.601 28.6202ZM884.118 26.0734C879.445 26.0734 875.598 27.8639 872.786 31.4435L875.931 33.9148C877.943 31.3533 880.603 30.0734 884.118 30.0734V26.0734ZM872.767 31.467C870.084 34.9886 868.849 39.5919 868.849 45.0707H872.849C872.849 40.1683 873.953 36.5105 875.949 33.8912L872.767 31.467ZM868.849 45.0707C868.849 50.5495 870.084 55.1527 872.767 58.6744L875.949 56.2502C873.953 53.6308 872.849 49.9731 872.849 45.0707H868.849ZM872.786 58.6979C875.598 62.2775 879.445 64.068 884.118 64.068V60.068C880.603 60.068 877.943 58.7881 875.931 56.2266L872.786 58.6979ZM884.118 64.068C887.246 64.068 890.084 63.2802 892.561 61.6574L890.369 58.3115C888.606 59.4668 886.545 60.068 884.118 60.068V64.068ZM892.575 61.6486C895.098 59.9662 897.015 57.6578 898.328 54.7847L894.691 53.1216C893.665 55.366 892.219 57.0784 890.356 58.3204L892.575 61.6486ZM896.509 55.9532H922.17V51.9532H896.509V55.9532ZM920.201 53.6016C919.153 59.4718 917.033 64.5559 913.865 68.8938L917.096 71.2526C920.654 66.379 922.994 60.7164 924.139 54.3047L920.201 53.6016ZM913.853 68.9107C910.769 73.2291 906.723 76.5967 901.676 79.0164L903.405 82.6233C909.032 79.9256 913.613 76.1287 917.108 71.2357L913.853 68.9107ZM901.687 79.0114C896.729 81.3527 891.033 82.5483 884.557 82.5483V86.5483C891.532 86.5483 897.826 85.2583 903.395 82.6284L901.687 79.0114ZM884.557 82.5483C877.019 82.5483 870.574 80.9656 865.15 77.8758L863.17 81.3514C869.296 84.8412 876.449 86.5483 884.557 86.5483V82.5483ZM865.166 77.8852C859.72 74.7142 855.524 70.3144 852.553 64.6483L849.01 66.5059C852.326 72.8293 857.049 77.7872 863.153 81.342L865.166 77.8852ZM852.561 64.6654C849.654 58.99 848.176 52.4744 848.176 45.0707H844.176C844.176 53.0194 845.767 60.1747 849.001 66.4889L852.561 64.6654ZM1011.1 6.36072H1013.1V4.36072H1011.1V6.36072ZM1011.1 25.6609V27.6609H1013.1V25.6609H1011.1ZM990.48 25.6609V23.6609H988.48V25.6609H990.48ZM990.48 84V86H992.48V84H990.48ZM966.136 84H964.136V86H966.136V84ZM966.136 25.6609H968.136V23.6609H966.136V25.6609ZM945.739 25.6609H943.739V27.6609H945.739V25.6609ZM945.739 6.36072V4.36072H943.739V6.36072H945.739ZM1009.1 6.36072V25.6609H1013.1V6.36072H1009.1ZM1011.1 23.6609H990.48V27.6609H1011.1V23.6609ZM988.48 25.6609V84H992.48V25.6609H988.48ZM990.48 82H966.136V86H990.48V82ZM968.136 84V25.6609H964.136V84H968.136ZM966.136 23.6609H945.739V27.6609H966.136V23.6609ZM947.739 25.6609V6.36072H943.739V25.6609H947.739ZM945.739 8.36072H1011.1V4.36072H945.739V8.36072Z" fill="#6947EF"/>
</svg>
