<svg width="1003" height="80" viewBox="0 0 1003 80" fill="none" xmlns="http://www.w3.org/2000/svg">
<path d="M20.1383 74.6136L19.1528 76.354L19.1617 76.359L20.1383 74.6136ZM5.66314 60.3578L3.94087 61.3746L5.66314 60.3578ZM5.66314 19.345L7.38541 20.3617L5.66314 19.345ZM20.1383 5.19881L21.1078 6.94814L21.1148 6.94418L20.1383 5.19881ZM60.3835 5.19881L59.398 6.93916L59.406 6.94368L59.414 6.94812L60.3835 5.19881ZM74.7489 19.345L73.0176 20.3462L73.0221 20.354L73.0267 20.3617L74.7489 19.345ZM74.7489 60.3578L73.0267 59.341L73.0221 59.3488L73.0176 59.3565L74.7489 60.3578ZM60.2738 74.6136L59.2972 72.8682L59.2883 72.8733L60.2738 74.6136ZM51.501 52.4623L53.0195 53.7639L53.0271 53.7551L53.0345 53.7462L51.501 52.4623ZM51.501 27.2405L49.9675 28.5243L49.975 28.5332L49.9825 28.5421L51.501 27.2405ZM29.0207 27.2405L30.5392 28.5421L30.5468 28.5332L30.5542 28.5243L29.0207 27.2405ZM29.0207 52.4623L27.4872 53.7462L27.4947 53.7551L27.5022 53.7639L29.0207 52.4623ZM40.3157 77.7676C33.3331 77.7676 26.9455 76.1307 21.1148 72.8682L19.1617 76.359C25.6129 79.9686 32.6769 81.7676 40.3157 81.7676V77.7676ZM21.1238 72.8733C15.3639 69.6117 10.7916 65.1107 7.38541 59.341L3.94087 61.3746C7.69915 67.7406 12.7769 72.7435 19.1528 76.3539L21.1238 72.8733ZM7.38541 59.341C3.99932 53.6054 2.2898 47.1261 2.2898 39.8514H-1.7102C-1.7102 47.7829 0.162512 54.9745 3.94087 61.3746L7.38541 59.341ZM2.2898 39.8514C2.2898 32.5767 3.99932 26.0973 7.38541 20.3617L3.94087 18.3282C0.162512 24.7283 -1.7102 31.9199 -1.7102 39.8514H2.2898ZM7.38541 20.3617C10.7894 14.5957 15.3567 10.1354 21.1078 6.94812L19.1688 3.44951C12.7841 6.988 7.70129 11.9585 3.94087 18.3282L7.38541 20.3617ZM21.1148 6.94418C26.9455 3.68176 33.3331 2.04479 40.3157 2.04479V-1.95521C32.6769 -1.95521 25.6129 -0.156162 19.1617 3.45345L21.1148 6.94418ZM40.3157 2.04479C47.2983 2.04479 53.6455 3.6817 59.398 6.93916L61.369 3.45847C54.9858 -0.156103 47.9544 -1.95521 40.3157 -1.95521V2.04479ZM59.414 6.94812C65.1613 10.1334 69.688 14.5887 73.0176 20.3462L76.4803 18.3437C72.7917 11.9655 67.7413 6.99004 61.353 3.44951L59.414 6.94812ZM73.0267 20.3617C76.4128 26.0973 78.1223 32.5767 78.1223 39.8514H82.1223C82.1223 31.9199 80.2496 24.7283 76.4712 18.3282L73.0267 20.3617ZM78.1223 39.8514C78.1223 47.1261 76.4128 53.6054 73.0267 59.341L76.4712 61.3746C80.2496 54.9745 82.1223 47.7829 82.1223 39.8514H78.1223ZM73.0176 59.3565C69.6893 65.1117 65.1256 69.6071 59.2972 72.8682L61.2504 76.359C67.704 72.748 72.7903 67.7396 76.4803 61.3591L73.0176 59.3565ZM59.2883 72.8733C53.5327 76.1325 47.2215 77.7676 40.3157 77.7676V81.7676C47.885 81.7676 54.8792 79.9668 61.2593 76.3539L59.2883 72.8733ZM40.3157 59.068C45.6006 59.068 49.9338 57.3638 53.0195 53.7639L49.9825 51.1607C47.8045 53.7017 44.6809 55.068 40.3157 55.068V59.068ZM53.0345 53.7462C56.0448 50.1506 57.4488 45.4485 57.4488 39.8514H53.4488C53.4488 44.7816 52.2209 48.4868 49.9675 51.1784L53.0345 53.7462ZM57.4488 39.8514C57.4488 34.1919 56.0498 29.4742 53.0195 25.9389L49.9825 28.5421C52.2159 31.1477 53.4488 34.8373 53.4488 39.8514H57.4488ZM53.0345 25.9566C49.954 22.277 45.6166 20.5251 40.3157 20.5251V24.5251C44.6649 24.5251 47.7844 25.9167 49.9675 28.5243L53.0345 25.9566ZM40.3157 20.5251C34.9528 20.5251 30.5738 22.2698 27.4872 25.9566L30.5542 28.5243C32.7313 25.9239 35.8823 24.5251 40.3157 24.5251V20.5251ZM27.5022 25.9389C24.4719 29.4742 23.073 34.1919 23.073 39.8514H27.073C27.073 34.8373 28.3058 31.1477 30.5392 28.5421L27.5022 25.9389ZM23.073 39.8514C23.073 45.4485 24.4769 50.1506 27.4872 53.7462L30.5542 51.1784C28.3008 48.4868 27.073 44.7816 27.073 39.8514H23.073ZM27.5022 53.7639C30.5938 57.3708 34.9687 59.068 40.3157 59.068V55.068C35.8664 55.068 32.7113 53.6947 30.5392 51.1607L27.5022 53.7639ZM131.891 1.36072H133.891V-0.639283H131.891V1.36072ZM134.194 53.6685L132.574 54.8416L132.597 54.8733L132.621 54.9042L134.194 53.6685ZM149.656 53.6685L151.202 54.938L151.212 54.9248L151.223 54.9113L149.656 53.6685ZM152.178 1.36072V-0.639283H150.178V1.36072H152.178ZM176.413 1.36072H178.413V-0.639283H176.413V1.36072ZM171.807 64.0862L173.529 65.1045L173.535 65.094L171.807 64.0862ZM159.197 75.8199L160.081 77.6136L159.197 75.8199ZM123.776 75.8199L122.851 77.5931L122.862 77.5984L123.776 75.8199ZM111.933 64.0862L110.18 65.0491L111.933 64.0862ZM107.656 1.36072V-0.639283H105.656V1.36072H107.656ZM129.891 1.36072V45.1151H133.891V1.36072H129.891ZM129.891 45.1151C129.891 48.9664 130.716 52.2748 132.574 54.8416L135.814 52.4955C134.602 50.8221 133.891 48.4281 133.891 45.1151H129.891ZM132.621 54.9042C134.731 57.5889 137.976 58.739 141.87 58.739V54.739C138.746 54.739 136.874 53.8422 135.767 52.4329L132.621 54.9042ZM141.87 58.739C145.77 58.739 149.026 57.5872 151.202 54.938L148.111 52.3991C146.924 53.8439 144.989 54.739 141.87 54.739V58.739ZM151.223 54.9113C153.264 52.3379 154.178 49.002 154.178 45.1151H150.178C150.178 48.3925 149.411 50.759 148.089 52.4258L151.223 54.9113ZM154.178 45.1151V1.36072H150.178V45.1151H154.178ZM152.178 3.36072H176.413V-0.639283H152.178V3.36072ZM174.413 1.36072V45.1151H178.413V1.36072H174.413ZM174.413 45.1151C174.413 52.2196 172.938 58.1795 170.08 63.0785L173.535 65.094C176.818 59.4657 178.413 52.7781 178.413 45.1151H174.413ZM170.086 63.068C167.211 67.9291 163.296 71.5685 158.312 74.0261L160.081 77.6136C165.771 74.8075 170.263 70.6245 173.529 65.1045L170.086 63.068ZM158.312 74.0261C153.278 76.5085 147.628 77.7676 141.322 77.7676V81.7676C148.176 81.7676 154.441 80.395 160.081 77.6136L158.312 74.0261ZM141.322 77.7676C135.015 77.7676 129.487 76.508 124.691 74.0413L122.862 77.5984C128.3 80.3954 134.47 81.7676 141.322 81.7676V77.7676ZM124.702 74.0467C120.022 71.6051 116.355 67.983 113.686 63.1233L110.18 65.0491C113.213 70.5706 117.442 74.7709 122.851 77.593L124.702 74.0467ZM113.686 63.1233C111.034 58.2948 109.656 52.3209 109.656 45.1151H105.656C105.656 52.8229 107.13 59.4966 110.18 65.0491L113.686 63.1233ZM109.656 45.1151V1.36072H105.656V45.1151H109.656ZM107.656 3.36072H131.891V-0.639283H107.656V3.36072ZM245.143 79L243.371 79.9277L243.932 81H245.143V79ZM230.558 51.1464L232.33 50.2186L231.768 49.1464H230.558V51.1464ZM230.448 51.1464V49.1464H228.448V51.1464H230.448ZM230.448 79V81H232.448V79H230.448ZM206.104 79H204.104V81H206.104V79ZM206.104 1.36072V-0.639283H204.104V1.36072H206.104ZM258.411 4.76017L257.505 6.54314L257.517 6.54908L257.529 6.55487L258.411 4.76017ZM268.391 13.862L266.65 14.8472L266.661 14.8667L266.673 14.8861L268.391 13.862ZM267.404 40.619L265.786 39.4427L265.779 39.4524L265.772 39.4621L267.404 40.619ZM255.012 49.2821L254.395 47.3797L252.061 48.1367L253.273 50.2703L255.012 49.2821ZM271.9 79V81H275.337L273.638 78.0119L271.9 79ZM230.448 34.9167H228.448V36.9167H230.448V34.9167ZM245.362 33.3814L246.679 34.8866L246.705 34.864L246.73 34.8405L245.362 33.3814ZM245.252 23.512L243.838 24.9262L243.859 24.9477L243.882 24.9684L245.252 23.512ZM230.448 21.7575V19.7575H228.448V21.7575H230.448ZM246.914 78.0723L232.33 50.2186L228.786 52.0741L243.371 79.9277L246.914 78.0723ZM230.558 49.1464H230.448V53.1464H230.558V49.1464ZM228.448 51.1464V79H232.448V51.1464H228.448ZM230.448 77H206.104V81H230.448V77ZM208.104 79V1.36072H204.104V79H208.104ZM206.104 3.36072H242.291V-0.639283H206.104V3.36072ZM242.291 3.36072C248.343 3.36072 253.389 4.45143 257.505 6.54314L259.318 2.9772C254.514 0.536304 248.815 -0.639283 242.291 -0.639283V3.36072ZM257.529 6.55487C261.671 8.59205 264.678 11.3625 266.65 14.8472L270.131 12.8768C267.717 8.61215 264.071 5.3147 259.294 2.96547L257.529 6.55487ZM266.673 14.8861C268.738 18.3503 269.79 22.3038 269.79 26.8018H273.79C273.79 21.6498 272.576 16.9767 270.108 12.8378L266.673 14.8861ZM269.79 26.8018C269.79 31.5896 268.45 35.7793 265.786 39.4427L269.021 41.7953C272.205 37.4169 273.79 32.3953 273.79 26.8018H269.79ZM265.772 39.4621C263.207 43.0794 259.461 45.7367 254.395 47.3797L255.629 51.1846C261.383 49.3184 265.898 46.2003 269.035 41.7759L265.772 39.4621ZM253.273 50.2703L270.161 79.9881L273.638 78.0119L256.751 48.294L253.273 50.2703ZM271.9 77H245.143V81H271.9V77ZM230.448 36.9167H240.098V32.9167H230.448V36.9167ZM240.098 36.9167C242.685 36.9167 244.999 36.3565 246.679 34.8866L244.045 31.8763C243.385 32.4533 242.19 32.9167 240.098 32.9167V36.9167ZM246.73 34.8405C248.446 33.2313 249.116 30.9227 249.116 28.3371H245.116C245.116 30.2841 244.617 31.3384 243.994 31.9224L246.73 34.8405ZM249.116 28.3371C249.116 25.8575 248.346 23.6777 246.623 22.0556L243.882 24.9684C244.644 25.6858 245.116 26.7227 245.116 28.3371H249.116ZM246.666 22.0978C245 20.4316 242.694 19.7575 240.098 19.7575V23.7575C242.035 23.7575 243.165 24.2531 243.838 24.9262L246.666 22.0978ZM240.098 19.7575H230.448V23.7575H240.098V19.7575ZM228.448 21.7575V34.9167H232.448V21.7575H228.448ZM338.994 19.5643L337.223 18.6355L337.219 18.644L337.214 18.6525L338.994 19.5643ZM352.373 5.63745L353.363 7.37529L353.371 7.37059L353.379 7.36581L352.373 5.63745ZM390.754 4.4312L389.88 6.22993L389.895 6.23719L389.91 6.2442L390.754 4.4312ZM403.694 15.0682L402.066 16.2307L402.072 16.2392L402.079 16.2476L403.694 15.0682ZM410.383 31.1882V33.1882H412.772L412.352 30.8367L410.383 31.1882ZM384.723 31.1882L382.904 32.0198L383.438 33.1882H384.723V31.1882ZM379.678 25.2666L378.543 26.913L378.575 26.9353L378.608 26.9562L379.678 25.2666ZM362.571 27.6791L360.999 26.4435L360.99 26.4552L360.98 26.467L362.571 27.6791ZM362.571 52.4623L360.98 53.6744L360.99 53.6862L360.999 53.6979L362.571 52.4623ZM379.678 54.9845L380.774 56.6574L380.781 56.653L380.788 56.6486L379.678 54.9845ZM384.723 48.9532V46.9532H383.438L382.904 48.1216L384.723 48.9532ZM410.383 48.9532L412.352 49.3047L412.772 46.9532H410.383V48.9532ZM403.694 65.0732L402.079 63.8938L402.072 63.9022L402.066 63.9107L403.694 65.0732ZM390.754 75.8199L391.608 77.6284L391.619 77.6233L390.754 75.8199ZM352.373 74.6136L351.367 76.3419L351.375 76.3467L351.383 76.3514L352.373 74.6136ZM338.994 60.5771L337.214 61.4889L337.219 61.4974L337.223 61.5059L338.994 60.5771ZM336.389 40.0707C336.389 32.667 337.868 26.1514 340.775 20.476L337.214 18.6525C333.98 24.9666 332.389 32.122 332.389 40.0707H336.389ZM340.766 20.4931C343.735 14.8306 347.926 10.4721 353.363 7.37529L351.383 3.89962C345.269 7.38246 340.541 12.3085 337.223 18.6355L340.766 20.4931ZM353.379 7.36581C358.801 4.20912 365.24 2.59309 372.77 2.59309V-1.40691C364.655 -1.40691 357.496 0.339979 351.367 3.9091L353.379 7.36581ZM372.77 2.59309C379.238 2.59309 384.926 3.82209 389.88 6.22993L391.628 2.63246C386.054 -0.0771686 379.753 -1.40691 372.77 -1.40691V2.59309ZM389.91 6.2442C394.947 8.59024 398.985 11.9172 402.066 16.2307L405.321 13.9057C401.823 9.00776 397.235 5.2434 391.598 2.6182L389.91 6.2442ZM402.079 16.2476C405.246 20.5855 407.366 25.6696 408.414 31.5398L412.352 30.8367C411.207 24.425 408.868 18.7624 405.309 13.8888L402.079 16.2476ZM410.383 29.1882H384.723V33.1882H410.383V29.1882ZM386.542 30.3567C385.225 27.4762 383.297 25.1908 380.748 23.577L378.608 26.9562C380.446 28.1204 381.881 29.7828 382.904 32.0198L386.542 30.3567ZM380.814 23.6202C378.333 21.9094 375.481 21.0734 372.331 21.0734V25.0734C374.737 25.0734 376.783 25.6995 378.543 26.913L380.814 23.6202ZM372.331 21.0734C367.658 21.0734 363.811 22.8639 360.999 26.4435L364.144 28.9148C366.157 26.3533 368.816 25.0734 372.331 25.0734V21.0734ZM360.98 26.467C358.297 29.9886 357.062 34.5919 357.062 40.0707H361.062C361.062 35.1683 362.167 31.5105 364.162 28.8912L360.98 26.467ZM357.062 40.0707C357.062 45.5495 358.297 50.1527 360.98 53.6744L364.162 51.2502C362.167 48.6308 361.062 44.9731 361.062 40.0707H357.062ZM360.999 53.6979C363.811 57.2775 367.658 59.068 372.331 59.068V55.068C368.816 55.068 366.157 53.7881 364.144 51.2266L360.999 53.6979ZM372.331 59.068C375.46 59.068 378.297 58.2802 380.774 56.6574L378.582 53.3115C376.819 54.4668 374.759 55.068 372.331 55.068V59.068ZM380.788 56.6486C383.311 54.9662 385.228 52.6577 386.542 49.7847L382.904 48.1216C381.878 50.366 380.432 52.0784 378.569 53.3204L380.788 56.6486ZM384.723 50.9532H410.383V46.9532H384.723V50.9532ZM408.414 48.6016C407.366 54.4718 405.246 59.5559 402.079 63.8938L405.309 66.2526C408.868 61.379 411.207 55.7164 412.352 49.3047L408.414 48.6016ZM402.066 63.9107C398.982 68.2291 394.936 71.5967 389.889 74.0164L391.619 77.6233C397.245 74.9256 401.826 71.1287 405.321 66.2357L402.066 63.9107ZM389.9 74.0114C384.942 76.3527 379.246 77.5483 372.77 77.5483V81.5483C379.745 81.5483 386.039 80.2583 391.608 77.6284L389.9 74.0114ZM372.77 77.5483C365.233 77.5483 358.787 75.9656 353.363 72.8758L351.383 76.3514C357.51 79.8412 364.662 81.5483 372.77 81.5483V77.5483ZM353.379 72.8852C347.933 69.7142 343.737 65.3144 340.766 59.6483L337.223 61.5059C340.539 67.8293 345.262 72.7872 351.367 76.3419L353.379 72.8852ZM340.775 59.6654C337.868 53.99 336.389 47.4744 336.389 40.0707H332.389C332.389 48.0194 333.98 55.1747 337.214 61.4889L340.775 59.6654ZM455.994 74.6136L455.008 76.354L455.017 76.359L455.994 74.6136ZM441.519 60.3578L439.797 61.3746L441.519 60.3578ZM441.519 19.345L443.241 20.3617L441.519 19.345ZM455.994 5.19881L456.963 6.94814L456.971 6.94418L455.994 5.19881ZM496.239 5.19881L495.254 6.93916L495.262 6.94368L495.27 6.94812L496.239 5.19881ZM510.605 19.345L508.873 20.3462L508.878 20.354L508.882 20.3617L510.605 19.345ZM510.605 60.3578L508.882 59.341L508.878 59.3488L508.873 59.3565L510.605 60.3578ZM496.13 74.6136L495.153 72.8682L495.144 72.8733L496.13 74.6136ZM487.357 52.4623L488.875 53.7639L488.883 53.7551L488.89 53.7462L487.357 52.4623ZM487.357 27.2405L485.823 28.5243L485.831 28.5332L485.838 28.5421L487.357 27.2405ZM464.876 27.2405L466.395 28.5421L466.402 28.5332L466.41 28.5243L464.876 27.2405ZM464.876 52.4623L463.343 53.7462L463.35 53.7551L463.358 53.7639L464.876 52.4623ZM476.171 77.7676C469.189 77.7676 462.801 76.1307 456.971 72.8682L455.017 76.359C461.469 79.9686 468.533 81.7676 476.171 81.7676V77.7676ZM456.979 72.8733C451.22 69.6117 446.647 65.1107 443.241 59.341L439.797 61.3746C443.555 67.7406 448.633 72.7435 455.008 76.3539L456.979 72.8733ZM443.241 59.341C439.855 53.6054 438.145 47.1261 438.145 39.8514H434.145C434.145 47.7829 436.018 54.9745 439.797 61.3746L443.241 59.341ZM438.145 39.8514C438.145 32.5767 439.855 26.0973 443.241 20.3617L439.797 18.3282C436.018 24.7283 434.145 31.9199 434.145 39.8514H438.145ZM443.241 20.3617C446.645 14.5957 451.212 10.1354 456.963 6.94812L455.024 3.44951C448.64 6.988 443.557 11.9585 439.797 18.3282L443.241 20.3617ZM456.971 6.94418C462.801 3.68176 469.189 2.04479 476.171 2.04479V-1.95521C468.533 -1.95521 461.469 -0.156162 455.017 3.45345L456.971 6.94418ZM476.171 2.04479C483.154 2.04479 489.501 3.6817 495.254 6.93916L497.225 3.45847C490.841 -0.156103 483.81 -1.95521 476.171 -1.95521V2.04479ZM495.27 6.94812C501.017 10.1334 505.544 14.5887 508.873 20.3462L512.336 18.3437C508.647 11.9655 503.597 6.99004 497.209 3.44951L495.27 6.94812ZM508.882 20.3617C512.268 26.0973 513.978 32.5767 513.978 39.8514H517.978C517.978 31.9199 516.105 24.7283 512.327 18.3282L508.882 20.3617ZM513.978 39.8514C513.978 47.1261 512.268 53.6054 508.882 59.341L512.327 61.3746C516.105 54.9745 517.978 47.7829 517.978 39.8514H513.978ZM508.873 59.3565C505.545 65.1117 500.981 69.6071 495.153 72.8682L497.106 76.359C503.56 72.748 508.646 67.7396 512.336 61.3591L508.873 59.3565ZM495.144 72.8733C489.388 76.1325 483.077 77.7676 476.171 77.7676V81.7676C483.741 81.7676 490.735 79.9668 497.115 76.3539L495.144 72.8733ZM476.171 59.068C481.456 59.068 485.79 57.3638 488.875 53.7639L485.838 51.1607C483.66 53.7017 480.537 55.068 476.171 55.068V59.068ZM488.89 53.7462C491.9 50.1506 493.304 45.4485 493.304 39.8514H489.304C489.304 44.7816 488.077 48.4868 485.823 51.1784L488.89 53.7462ZM493.304 39.8514C493.304 34.1919 491.905 29.4742 488.875 25.9389L485.838 28.5421C488.072 31.1477 489.304 34.8373 489.304 39.8514H493.304ZM488.89 25.9566C485.81 22.277 481.472 20.5251 476.171 20.5251V24.5251C480.521 24.5251 483.64 25.9167 485.823 28.5243L488.89 25.9566ZM476.171 20.5251C470.809 20.5251 466.429 22.2698 463.343 25.9566L466.41 28.5243C468.587 25.9239 471.738 24.5251 476.171 24.5251V20.5251ZM463.358 25.9389C460.328 29.4742 458.929 34.1919 458.929 39.8514H462.929C462.929 34.8373 464.161 31.1477 466.395 28.5421L463.358 25.9389ZM458.929 39.8514C458.929 45.4485 460.333 50.1506 463.343 53.7462L466.41 51.1784C464.156 48.4868 462.929 44.7816 462.929 39.8514H458.929ZM463.358 53.7639C466.45 57.3708 470.824 59.068 476.171 59.068V55.068C471.722 55.068 468.567 53.6947 466.395 51.1607L463.358 53.7639ZM618.41 79V81H620.41V79H618.41ZM594.065 79L592.396 80.1018L592.989 81H594.065V79ZM568.295 39.961L569.964 38.8592L566.295 33.3009V39.961H568.295ZM568.295 79V81H570.295V79H568.295ZM543.951 79H541.951V81H543.951V79ZM543.951 1.36072V-0.639283H541.951V1.36072H543.951ZM568.295 1.36072L569.973 0.271718L569.381 -0.639283H568.295V1.36072ZM594.065 41.0576L592.388 42.1466L596.065 47.8116V41.0576H594.065ZM594.065 1.36072V-0.639283H592.065V1.36072H594.065ZM618.41 1.36072H620.41V-0.639283H618.41V1.36072ZM618.41 77H594.065V81H618.41V77ZM595.734 77.8982L569.964 38.8592L566.626 41.0629L592.396 80.1018L595.734 77.8982ZM566.295 39.961V79H570.295V39.961H566.295ZM568.295 77H543.951V81H568.295V77ZM545.951 79V1.36072H541.951V79H545.951ZM543.951 3.36072H568.295V-0.639283H543.951V3.36072ZM566.618 2.44972L592.388 42.1466L595.743 39.9686L569.973 0.271718L566.618 2.44972ZM596.065 41.0576V1.36072H592.065V41.0576H596.065ZM594.065 3.36072H618.41V-0.639283H594.065V3.36072ZM616.41 1.36072V79H620.41V1.36072H616.41ZM709.57 1.36072H711.57V-0.639283H709.57V1.36072ZM709.57 20.6609V22.6609H711.57V20.6609H709.57ZM688.954 20.6609V18.6609H686.954V20.6609H688.954ZM688.954 79V81H690.954V79H688.954ZM664.609 79H662.609V81H664.609V79ZM664.609 20.6609H666.609V18.6609H664.609V20.6609ZM644.213 20.6609H642.213V22.6609H644.213V20.6609ZM644.213 1.36072V-0.639283H642.213V1.36072H644.213ZM707.57 1.36072V20.6609H711.57V1.36072H707.57ZM709.57 18.6609H688.954V22.6609H709.57V18.6609ZM686.954 20.6609V79H690.954V20.6609H686.954ZM688.954 77H664.609V81H688.954V77ZM666.609 79V20.6609H662.609V79H666.609ZM664.609 18.6609H644.213V22.6609H664.609V18.6609ZM646.213 20.6609V1.36072H642.213V20.6609H646.213ZM644.213 3.36072H709.57V-0.639283H644.213V3.36072ZM785.149 67.2664L787.05 66.6446L786.599 65.2664H785.149V67.2664ZM759.269 67.2664V65.2664H757.819L757.368 66.6446L759.269 67.2664ZM755.431 79V81H756.881L757.332 79.6218L755.431 79ZM729.88 79L728.002 78.3129L727.019 81H729.88V79ZM758.282 1.36072V-0.639283H756.884L756.404 0.673611L758.282 1.36072ZM786.355 1.36072L788.234 0.675952L787.755 -0.639283H786.355V1.36072ZM814.647 79V81H817.505L816.526 78.3152L814.647 79ZM788.987 79L787.086 79.6218L787.537 81H788.987V79ZM779.227 48.9532V50.9532H781.98L781.129 48.3352L779.227 48.9532ZM772.209 27.3501L774.111 26.7322L772.209 20.8772L770.307 26.7322L772.209 27.3501ZM765.191 48.9532L763.288 48.3352L762.438 50.9532H765.191V48.9532ZM785.149 65.2664H759.269V69.2664H785.149V65.2664ZM757.368 66.6446L753.53 78.3782L757.332 79.6218L761.17 67.8882L757.368 66.6446ZM755.431 77H729.88V81H755.431V77ZM731.758 79.6871L760.16 2.04782L756.404 0.673611L728.002 78.3129L731.758 79.6871ZM758.282 3.36072H786.355V-0.639283H758.282V3.36072ZM784.476 2.04548L812.768 79.6848L816.526 78.3152L788.234 0.675952L784.476 2.04548ZM814.647 77H788.987V81H814.647V77ZM790.888 78.3782L787.05 66.6446L783.248 67.8882L787.086 79.6218L790.888 78.3782ZM781.129 48.3352L774.111 26.7322L770.307 27.9681L777.325 49.5711L781.129 48.3352ZM770.307 26.7322L763.288 48.3352L767.093 49.5711L774.111 27.9681L770.307 26.7322ZM765.191 50.9532H779.227V46.9532H765.191V50.9532ZM841.781 19.5643L840.01 18.6355L840.006 18.644L840.001 18.6525L841.781 19.5643ZM855.16 5.63745L856.15 7.37529L856.158 7.37059L856.166 7.36581L855.16 5.63745ZM893.541 4.4312L892.666 6.22993L892.681 6.23719L892.696 6.2442L893.541 4.4312ZM906.481 15.0682L904.853 16.2307L904.859 16.2392L904.865 16.2476L906.481 15.0682ZM913.17 31.1882V33.1882H915.559L915.139 30.8367L913.17 31.1882ZM887.509 31.1882L885.691 32.0198L886.225 33.1882H887.509V31.1882ZM882.465 25.2666L881.33 26.913L881.362 26.9353L881.395 26.9562L882.465 25.2666ZM865.358 27.6791L863.786 26.4435L863.776 26.4552L863.767 26.467L865.358 27.6791ZM865.358 52.4623L863.767 53.6744L863.776 53.6862L863.786 53.6979L865.358 52.4623ZM882.465 54.9845L883.561 56.6574L883.568 56.653L883.575 56.6486L882.465 54.9845ZM887.509 48.9532V46.9532H886.225L885.691 48.1216L887.509 48.9532ZM913.17 48.9532L915.139 49.3047L915.559 46.9532H913.17V48.9532ZM906.481 65.0732L904.865 63.8938L904.859 63.9022L904.853 63.9107L906.481 65.0732ZM893.541 75.8199L894.395 77.6284L894.405 77.6233L893.541 75.8199ZM855.16 74.6136L854.153 76.3419L854.162 76.3467L854.17 76.3514L855.16 74.6136ZM841.781 60.5771L840.001 61.4889L840.006 61.4974L840.01 61.5059L841.781 60.5771ZM839.176 40.0707C839.176 32.667 840.654 26.1514 843.561 20.476L840.001 18.6525C836.767 24.9666 835.176 32.122 835.176 40.0707H839.176ZM843.552 20.4931C846.522 14.8306 850.713 10.4721 856.15 7.37529L854.17 3.89962C848.056 7.38246 843.328 12.3085 840.01 18.6355L843.552 20.4931ZM856.166 7.36581C861.587 4.20912 868.027 2.59309 875.557 2.59309V-1.40691C867.441 -1.40691 860.283 0.339979 854.153 3.9091L856.166 7.36581ZM875.557 2.59309C882.025 2.59309 887.713 3.82209 892.666 6.22993L894.415 2.63246C888.841 -0.0771686 882.54 -1.40691 875.557 -1.40691V2.59309ZM892.696 6.2442C897.733 8.59024 901.772 11.9172 904.853 16.2307L908.108 13.9057C904.61 9.00776 900.022 5.2434 894.385 2.6182L892.696 6.2442ZM904.865 16.2476C908.033 20.5855 910.153 25.6696 911.201 31.5398L915.139 30.8367C913.994 24.425 911.654 18.7624 908.096 13.8888L904.865 16.2476ZM913.17 29.1882H887.509V33.1882H913.17V29.1882ZM889.328 30.3567C888.012 27.4762 886.083 25.1908 883.535 23.577L881.395 26.9562C883.233 28.1204 884.668 29.7828 885.691 32.0198L889.328 30.3567ZM883.601 23.6202C881.12 21.9094 878.268 21.0734 875.118 21.0734V25.0734C877.524 25.0734 879.57 25.6995 881.33 26.913L883.601 23.6202ZM875.118 21.0734C870.445 21.0734 866.598 22.8639 863.786 26.4435L866.931 28.9148C868.943 26.3533 871.603 25.0734 875.118 25.0734V21.0734ZM863.767 26.467C861.084 29.9886 859.849 34.5919 859.849 40.0707H863.849C863.849 35.1683 864.953 31.5105 866.949 28.8912L863.767 26.467ZM859.849 40.0707C859.849 45.5495 861.084 50.1527 863.767 53.6744L866.949 51.2502C864.953 48.6308 863.849 44.9731 863.849 40.0707H859.849ZM863.786 53.6979C866.598 57.2775 870.445 59.068 875.118 59.068V55.068C871.603 55.068 868.943 53.7881 866.931 51.2266L863.786 53.6979ZM875.118 59.068C878.246 59.068 881.084 58.2802 883.561 56.6574L881.369 53.3115C879.606 54.4668 877.545 55.068 875.118 55.068V59.068ZM883.575 56.6486C886.098 54.9662 888.015 52.6577 889.328 49.7847L885.691 48.1216C884.665 50.366 883.219 52.0784 881.356 53.3204L883.575 56.6486ZM887.509 50.9532H913.17V46.9532H887.509V50.9532ZM911.201 48.6016C910.153 54.4718 908.033 59.5559 904.865 63.8938L908.096 66.2526C911.654 61.379 913.994 55.7164 915.139 49.3047L911.201 48.6016ZM904.853 63.9107C901.769 68.2291 897.723 71.5967 892.676 74.0164L894.405 77.6233C900.032 74.9256 904.613 71.1287 908.108 66.2357L904.853 63.9107ZM892.687 74.0114C887.729 76.3527 882.033 77.5483 875.557 77.5483V81.5483C882.532 81.5483 888.826 80.2583 894.395 77.6284L892.687 74.0114ZM875.557 77.5483C868.019 77.5483 861.574 75.9656 856.15 72.8758L854.17 76.3514C860.296 79.8412 867.449 81.5483 875.557 81.5483V77.5483ZM856.166 72.8852C850.72 69.7142 846.524 65.3144 843.552 59.6483L840.01 61.5059C843.326 67.8293 848.049 72.7872 854.153 76.3419L856.166 72.8852ZM843.561 59.6654C840.654 53.99 839.176 47.4744 839.176 40.0707H835.176C835.176 48.0194 836.767 55.1747 840.001 61.4889L843.561 59.6654ZM1002.1 1.36072H1004.1V-0.639283H1002.1V1.36072ZM1002.1 20.6609V22.6609H1004.1V20.6609H1002.1ZM981.48 20.6609V18.6609H979.48V20.6609H981.48ZM981.48 79V81H983.48V79H981.48ZM957.136 79H955.136V81H957.136V79ZM957.136 20.6609H959.136V18.6609H957.136V20.6609ZM936.739 20.6609H934.739V22.6609H936.739V20.6609ZM936.739 1.36072V-0.639283H934.739V1.36072H936.739ZM1000.1 1.36072V20.6609H1004.1V1.36072H1000.1ZM1002.1 18.6609H981.48V22.6609H1002.1V18.6609ZM979.48 20.6609V79H983.48V20.6609H979.48ZM981.48 77H957.136V81H981.48V77ZM959.136 79V20.6609H955.136V79H959.136ZM957.136 18.6609H936.739V22.6609H957.136V18.6609ZM938.739 20.6609V1.36072H934.739V20.6609H938.739ZM936.739 3.36072H1002.1V-0.639283H936.739V3.36072Z" fill="#6947EF"/>
</svg>
