<svg width="619" height="80" viewBox="0 0 619 80" fill="none" xmlns="http://www.w3.org/2000/svg">
<path d="M60.5767 41.3866L62.3112 42.3824L62.3151 42.3755L62.319 42.3686L60.5767 41.3866ZM50.488 50.8174L49.5588 49.0462L49.5468 49.0527L50.488 50.8174ZM24.8275 54.3265V52.3265H22.8275V54.3265H24.8275ZM24.8275 79V81H26.8275V79H24.8275ZM0.483 79H-1.517V81H0.483V79ZM0.483 1.36072V-0.639283H-1.517V1.36072H0.483ZM56.2999 8.59828L54.9175 10.0436L54.9227 10.0485L54.9279 10.0535L56.2999 8.59828ZM24.8275 20.8802V18.8802H22.8275V20.8802H24.8275ZM24.8275 35.136H22.8275V37.136H24.8275V35.136ZM61.9761 28.0081C61.9761 32.584 60.9214 36.7019 58.8344 40.4046L62.319 42.3686C64.7646 38.0296 65.9761 33.2285 65.9761 28.0081H61.9761ZM58.8422 40.3909C56.785 43.9744 53.7187 46.8641 49.5589 49.0463L51.4171 52.5885C56.1763 50.0919 59.8358 46.6944 62.3112 42.3824L58.8422 40.3909ZM49.5468 49.0527C45.5168 51.202 40.5215 52.3265 34.4776 52.3265V56.3265C41.0081 56.3265 46.6864 55.1116 51.4291 52.5821L49.5468 49.0527ZM34.4776 52.3265H24.8275V56.3265H34.4776V52.3265ZM22.8275 54.3265V79H26.8275V54.3265H22.8275ZM24.8275 77H0.483V81H24.8275V77ZM2.483 79V1.36072H-1.517V79H2.483ZM0.483 3.36072H34.4776V-0.639283H0.483V3.36072ZM34.4776 3.36072C43.6561 3.36072 50.3629 5.68699 54.9175 10.0436L57.6824 7.15299C52.1483 1.85948 44.3069 -0.639283 34.4776 -0.639283V3.36072ZM54.9279 10.0535C59.5818 14.4414 61.9761 20.3515 61.9761 28.0081H65.9761C65.9761 19.435 63.253 12.4052 57.672 7.1431L54.9279 10.0535ZM31.7361 37.136C34.5378 37.136 37.0111 36.4784 38.7824 34.8098C40.5762 33.12 41.3026 30.7239 41.3026 28.0081H37.3026C37.3026 30.0442 36.768 31.212 36.0396 31.8982C35.2888 32.6056 33.9788 33.136 31.7361 33.136V37.136ZM41.3026 28.0081C41.3026 25.2923 40.5762 22.8962 38.7824 21.2064C37.0111 19.5377 34.5378 18.8802 31.7361 18.8802V22.8802C33.9788 22.8802 35.2888 23.4106 36.0396 24.118C36.768 24.8041 37.3026 25.972 37.3026 28.0081H41.3026ZM31.7361 18.8802H24.8275V22.8802H31.7361V18.8802ZM22.8275 20.8802V35.136H26.8275V20.8802H22.8275ZM24.8275 37.136H31.7361V33.136H24.8275V37.136ZM129.927 79L128.155 79.9277L128.717 81H129.927V79ZM115.342 51.1464L117.114 50.2186L116.553 49.1464H115.342V51.1464ZM115.233 51.1464V49.1464H113.233V51.1464H115.233ZM115.233 79V81H117.233V79H115.233ZM90.8883 79H88.8883V81H90.8883V79ZM90.8883 1.36072V-0.639283H88.8883V1.36072H90.8883ZM143.196 4.76017L142.29 6.54314L142.302 6.54908L142.313 6.55487L143.196 4.76017ZM153.175 13.862L151.435 14.8472L151.446 14.8667L151.457 14.8861L153.175 13.862ZM152.188 40.619L150.571 39.4427L150.564 39.4524L150.557 39.4621L152.188 40.619ZM139.797 49.2821L139.18 47.3797L136.845 48.1367L138.058 50.2703L139.797 49.2821ZM156.684 79V81H160.121L158.423 78.0119L156.684 79ZM115.233 34.9167H113.233V36.9167H115.233V34.9167ZM130.147 33.3814L131.464 34.8866L131.489 34.864L131.514 34.8405L130.147 33.3814ZM130.037 23.512L128.623 24.9262L128.644 24.9477L128.666 24.9684L130.037 23.512ZM115.233 21.7575V19.7575H113.233V21.7575H115.233ZM131.699 78.0723L117.114 50.2186L113.571 52.0741L128.155 79.9277L131.699 78.0723ZM115.342 49.1464H115.233V53.1464H115.342V49.1464ZM113.233 51.1464V79H117.233V51.1464H113.233ZM115.233 77H90.8883V81H115.233V77ZM92.8883 79V1.36072H88.8883V79H92.8883ZM90.8883 3.36072H127.076V-0.639283H90.8883V3.36072ZM127.076 3.36072C133.127 3.36072 138.174 4.45143 142.29 6.54314L144.102 2.9772C139.299 0.536304 133.599 -0.639283 127.076 -0.639283V3.36072ZM142.313 6.55487C146.456 8.59205 149.462 11.3625 151.435 14.8472L154.916 12.8768C152.502 8.61215 148.855 5.3147 144.079 2.96547L142.313 6.55487ZM151.457 14.8861C153.522 18.3503 154.575 22.3038 154.575 26.8018H158.575C158.575 21.6498 157.36 16.9767 154.893 12.8378L151.457 14.8861ZM154.575 26.8018C154.575 31.5896 153.235 35.7793 150.571 39.4427L153.806 41.7953C156.99 37.4169 158.575 32.3953 158.575 26.8018H154.575ZM150.557 39.4621C147.992 43.0794 144.245 45.7367 139.18 47.3797L140.414 51.1846C146.168 49.3184 150.682 46.2003 153.82 41.7759L150.557 39.4621ZM138.058 50.2703L154.945 79.9881L158.423 78.0119L141.535 48.294L138.058 50.2703ZM156.684 77H129.927V81H156.684V77ZM115.233 36.9167H124.883V32.9167H115.233V36.9167ZM124.883 36.9167C127.47 36.9167 129.784 36.3565 131.464 34.8866L128.83 31.8763C128.17 32.4533 126.975 32.9167 124.883 32.9167V36.9167ZM131.514 34.8405C133.231 33.2313 133.901 30.9227 133.901 28.3371H129.901C129.901 30.2841 129.402 31.3384 128.779 31.9224L131.514 34.8405ZM133.901 28.3371C133.901 25.8575 133.131 23.6777 131.408 22.0556L128.666 24.9684C129.428 25.6858 129.901 26.7227 129.901 28.3371H133.901ZM131.451 22.0978C129.785 20.4316 127.479 19.7575 124.883 19.7575V23.7575C126.82 23.7575 127.949 24.2531 128.623 24.9262L131.451 22.0978ZM124.883 19.7575H115.233V23.7575H124.883V19.7575ZM113.233 21.7575V34.9167H117.233V21.7575H113.233ZM201.198 74.6136L200.212 76.354L200.221 76.359L201.198 74.6136ZM186.723 60.3578L185 61.3746L186.723 60.3578ZM186.723 19.345L188.445 20.3617L186.723 19.345ZM201.198 5.19881L202.167 6.94814L202.174 6.94418L201.198 5.19881ZM241.443 5.19881L240.457 6.93916L240.465 6.94368L240.473 6.94812L241.443 5.19881ZM255.808 19.345L254.077 20.3462L254.082 20.354L254.086 20.3617L255.808 19.345ZM255.808 60.3578L254.086 59.341L254.082 59.3488L254.077 59.3565L255.808 60.3578ZM241.333 74.6136L240.357 72.8682L240.348 72.8733L241.333 74.6136ZM232.56 52.4623L234.079 53.7639L234.086 53.7551L234.094 53.7462L232.56 52.4623ZM232.56 27.2405L231.027 28.5243L231.034 28.5332L231.042 28.5421L232.56 27.2405ZM210.08 27.2405L211.599 28.5421L211.606 28.5332L211.614 28.5243L210.08 27.2405ZM210.08 52.4623L208.547 53.7462L208.554 53.7551L208.562 53.7639L210.08 52.4623ZM221.375 77.7676C214.393 77.7676 208.005 76.1307 202.174 72.8682L200.221 76.359C206.672 79.9686 213.736 81.7676 221.375 81.7676V77.7676ZM202.183 72.8733C196.423 69.6117 191.851 65.1107 188.445 59.341L185 61.3746C188.759 67.7406 193.836 72.7435 200.212 76.3539L202.183 72.8733ZM188.445 59.341C185.059 53.6054 183.349 47.1261 183.349 39.8514H179.349C179.349 47.7829 181.222 54.9745 185 61.3746L188.445 59.341ZM183.349 39.8514C183.349 32.5767 185.059 26.0973 188.445 20.3617L185 18.3282C181.222 24.7283 179.349 31.9199 179.349 39.8514H183.349ZM188.445 20.3617C191.849 14.5957 196.416 10.1354 202.167 6.94812L200.228 3.44951C193.843 6.988 188.761 11.9585 185 18.3282L188.445 20.3617ZM202.174 6.94418C208.005 3.68176 214.393 2.04479 221.375 2.04479V-1.95521C213.736 -1.95521 206.672 -0.156162 200.221 3.45345L202.174 6.94418ZM221.375 2.04479C228.358 2.04479 234.705 3.6817 240.457 6.93916L242.428 3.45847C236.045 -0.156103 229.014 -1.95521 221.375 -1.95521V2.04479ZM240.473 6.94812C246.221 10.1334 250.747 14.5887 254.077 20.3462L257.54 18.3437C253.851 11.9655 248.801 6.99004 242.412 3.44951L240.473 6.94812ZM254.086 20.3617C257.472 26.0973 259.182 32.5767 259.182 39.8514H263.182C263.182 31.9199 261.309 24.7283 257.531 18.3282L254.086 20.3617ZM259.182 39.8514C259.182 47.1261 257.472 53.6054 254.086 59.341L257.531 61.3746C261.309 54.9745 263.182 47.7829 263.182 39.8514H259.182ZM254.077 59.3565C250.749 65.1117 246.185 69.6071 240.357 72.8682L242.31 76.359C248.763 72.748 253.85 67.7396 257.54 61.3591L254.077 59.3565ZM240.348 72.8733C234.592 76.1325 228.281 77.7676 221.375 77.7676V81.7676C228.944 81.7676 235.939 79.9668 242.319 76.3539L240.348 72.8733ZM221.375 59.068C226.66 59.068 230.993 57.3638 234.079 53.7639L231.042 51.1607C228.864 53.7017 225.74 55.068 221.375 55.068V59.068ZM234.094 53.7462C237.104 50.1506 238.508 45.4485 238.508 39.8514H234.508C234.508 44.7816 233.28 48.4868 231.027 51.1784L234.094 53.7462ZM238.508 39.8514C238.508 34.1919 237.109 29.4742 234.079 25.9389L231.042 28.5421C233.275 31.1477 234.508 34.8373 234.508 39.8514H238.508ZM234.094 25.9566C231.013 22.277 226.676 20.5251 221.375 20.5251V24.5251C225.724 24.5251 228.844 25.9167 231.027 28.5243L234.094 25.9566ZM221.375 20.5251C216.012 20.5251 211.633 22.2698 208.547 25.9566L211.614 28.5243C213.791 25.9239 216.942 24.5251 221.375 24.5251V20.5251ZM208.562 25.9389C205.531 29.4742 204.132 34.1919 204.132 39.8514H208.132C208.132 34.8373 209.365 31.1477 211.599 28.5421L208.562 25.9389ZM204.132 39.8514C204.132 45.4485 205.536 50.1506 208.547 53.7462L211.614 51.1784C209.36 48.4868 208.132 44.7816 208.132 39.8514H204.132ZM208.562 53.7639C211.653 57.3708 216.028 59.068 221.375 59.068V55.068C216.926 55.068 213.771 53.6947 211.599 51.1607L208.562 53.7639ZM291.567 19.5643L289.796 18.6355L289.791 18.644L289.787 18.6525L291.567 19.5643ZM304.945 5.63745L305.935 7.37529L305.944 7.37059L305.952 7.36581L304.945 5.63745ZM343.326 4.4312L342.452 6.22993L342.467 6.23719L342.482 6.2442L343.326 4.4312ZM356.266 15.0682L354.639 16.2307L354.645 16.2392L354.651 16.2476L356.266 15.0682ZM362.956 31.1882V33.1882H365.344L364.924 30.8367L362.956 31.1882ZM337.295 31.1882L335.476 32.0198L336.01 33.1882H337.295V31.1882ZM332.251 25.2666L331.115 26.913L331.148 26.9353L331.181 26.9562L332.251 25.2666ZM315.144 27.6791L313.571 26.4435L313.562 26.4552L313.553 26.467L315.144 27.6791ZM315.144 52.4623L313.553 53.6744L313.562 53.6862L313.571 53.6979L315.144 52.4623ZM332.251 54.9845L333.347 56.6574L333.354 56.653L333.36 56.6486L332.251 54.9845ZM337.295 48.9532V46.9532H336.01L335.476 48.1216L337.295 48.9532ZM362.956 48.9532L364.924 49.3047L365.344 46.9532H362.956V48.9532ZM356.266 65.0732L354.651 63.8938L354.645 63.9022L354.639 63.9107L356.266 65.0732ZM343.326 75.8199L344.18 77.6284L344.191 77.6233L343.326 75.8199ZM304.945 74.6136L303.939 76.3419L303.947 76.3467L303.956 76.3514L304.945 74.6136ZM291.567 60.5771L289.787 61.4889L289.791 61.4974L289.796 61.5059L291.567 60.5771ZM288.961 40.0707C288.961 32.667 290.44 26.1514 293.347 20.476L289.787 18.6525C286.553 24.9666 284.961 32.122 284.961 40.0707H288.961ZM293.338 20.4931C296.307 14.8306 300.499 10.4721 305.935 7.37529L303.956 3.89962C297.841 7.38246 293.113 12.3085 289.796 18.6355L293.338 20.4931ZM305.952 7.36581C311.373 4.20912 317.812 2.59309 325.342 2.59309V-1.40691C317.227 -1.40691 310.069 0.339979 303.939 3.9091L305.952 7.36581ZM325.342 2.59309C331.81 2.59309 337.499 3.82209 342.452 6.22993L344.201 2.63246C338.627 -0.0771686 332.326 -1.40691 325.342 -1.40691V2.59309ZM342.482 6.2442C347.519 8.59024 351.558 11.9172 354.639 16.2307L357.894 13.9057C354.395 9.00776 349.807 5.2434 344.171 2.6182L342.482 6.2442ZM354.651 16.2476C357.818 20.5855 359.938 25.6696 360.987 31.5398L364.924 30.8367C363.779 24.425 361.44 18.7624 357.882 13.8888L354.651 16.2476ZM362.956 29.1882H337.295V33.1882H362.956V29.1882ZM339.114 30.3567C337.797 27.4762 335.869 25.1908 333.321 23.577L331.181 26.9562C333.019 28.1204 334.454 29.7828 335.476 32.0198L339.114 30.3567ZM333.386 23.6202C330.906 21.9094 328.054 21.0734 324.904 21.0734V25.0734C327.31 25.0734 329.356 25.6995 331.115 26.913L333.386 23.6202ZM324.904 21.0734C320.23 21.0734 316.384 22.8639 313.571 26.4435L316.716 28.9148C318.729 26.3533 321.389 25.0734 324.904 25.0734V21.0734ZM313.553 26.467C310.87 29.9886 309.635 34.5919 309.635 40.0707H313.635C313.635 35.1683 314.739 31.5105 316.735 28.8912L313.553 26.467ZM309.635 40.0707C309.635 45.5495 310.87 50.1527 313.553 53.6744L316.735 51.2502C314.739 48.6308 313.635 44.9731 313.635 40.0707H309.635ZM313.571 53.6979C316.384 57.2775 320.23 59.068 324.904 59.068V55.068C321.389 55.068 318.729 53.7881 316.716 51.2266L313.571 53.6979ZM324.904 59.068C328.032 59.068 330.87 58.2802 333.347 56.6574L331.155 53.3115C329.391 54.4668 327.331 55.068 324.904 55.068V59.068ZM333.36 56.6486C335.884 54.9662 337.801 52.6577 339.114 49.7847L335.476 48.1216C334.45 50.366 333.004 52.0784 331.141 53.3204L333.36 56.6486ZM337.295 50.9532H362.956V46.9532H337.295V50.9532ZM360.987 48.6016C359.938 54.4718 357.818 59.5559 354.651 63.8938L357.882 66.2526C361.44 61.379 363.779 55.7164 364.924 49.3047L360.987 48.6016ZM354.639 63.9107C351.554 68.2291 347.509 71.5967 342.462 74.0164L344.191 77.6233C349.818 74.9256 354.399 71.1287 357.894 66.2357L354.639 63.9107ZM342.472 74.0114C337.514 76.3527 331.818 77.5483 325.342 77.5483V81.5483C332.318 81.5483 338.611 80.2583 344.18 77.6284L342.472 74.0114ZM325.342 77.5483C317.805 77.5483 311.36 75.9656 305.935 72.8758L303.956 76.3514C310.082 79.8412 317.234 81.5483 325.342 81.5483V77.5483ZM305.952 72.8852C300.506 69.7142 296.309 65.3144 293.338 59.6483L289.796 61.5059C293.112 67.8293 297.834 72.7872 303.939 76.3419L305.952 72.8852ZM293.347 59.6654C290.44 53.99 288.961 47.4744 288.961 40.0707H284.961C284.961 48.0194 286.553 55.1747 289.787 61.4889L293.347 59.6654ZM415.256 20.7705V18.7705H413.256V20.7705H415.256ZM415.256 30.311H413.256V32.311H415.256V30.311ZM439.381 30.311H441.381V28.311H439.381V30.311ZM439.381 48.6242V50.6242H441.381V48.6242H439.381ZM415.256 48.6242V46.6242H413.256V48.6242H415.256ZM415.256 59.5902H413.256V61.5902H415.256V59.5902ZM442.671 59.5902H444.671V57.5902H442.671V59.5902ZM442.671 79V81H444.671V79H442.671ZM390.911 79H388.911V81H390.911V79ZM390.911 1.36072V-0.639283H388.911V1.36072H390.911ZM442.671 1.36072H444.671V-0.639283H442.671V1.36072ZM442.671 20.7705V22.7705H444.671V20.7705H442.671ZM413.256 20.7705V30.311H417.256V20.7705H413.256ZM415.256 32.311H439.381V28.311H415.256V32.311ZM437.381 30.311V48.6242H441.381V30.311H437.381ZM439.381 46.6242H415.256V50.6242H439.381V46.6242ZM413.256 48.6242V59.5902H417.256V48.6242H413.256ZM415.256 61.5902H442.671V57.5902H415.256V61.5902ZM440.671 59.5902V79H444.671V59.5902H440.671ZM442.671 77H390.911V81H442.671V77ZM392.911 79V1.36072H388.911V79H392.911ZM390.911 3.36072H442.671V-0.639283H390.911V3.36072ZM440.671 1.36072V20.7705H444.671V1.36072H440.671ZM442.671 18.7705H415.256V22.7705H442.671V18.7705ZM478.383 73.2977L477.202 74.9117L477.213 74.9198L477.224 74.9278L478.383 73.2977ZM468.623 54.1072V52.1072H466.498L466.627 54.2287L468.623 54.1072ZM494.503 54.1072L496.496 53.9438L496.346 52.1072H494.503V54.1072ZM503.714 59.9192L504.824 61.5833L504.838 61.5735L504.853 61.5635L503.714 59.9192ZM502.179 52.5719L501.16 54.2925L501.184 54.3067L501.208 54.3203L502.179 52.5719ZM492.968 48.6242L492.302 50.5102L492.306 50.5114L492.968 48.6242ZM480.576 43.4702L479.65 45.2426L479.658 45.2469L479.666 45.251L480.576 43.4702ZM472.242 36.1229L473.86 34.9466L472.242 36.1229ZM468.843 23.7314L470.842 23.7603L470.843 23.7458V23.7314H468.843ZM472.681 10.9011L471.069 9.71697L471.065 9.72279L472.681 10.9011ZM483.318 2.78629L482.57 0.931379L482.559 0.935682L483.318 2.78629ZM521.15 6.62439L519.911 8.19419L519.921 8.202L521.15 6.62439ZM530.033 25.1569V27.1569H532.108L532.032 25.0836L530.033 25.1569ZM503.824 25.1569L501.825 25.2236L501.89 27.1569H503.824V25.1569ZM495.929 20.1126L497.343 21.5268L497.38 21.4896L497.415 21.4505L495.929 20.1126ZM497.793 27.3501L496.745 29.0535L496.783 29.0768L496.822 29.0985L497.793 27.3501ZM507.114 31.4076L506.405 33.2776L506.415 33.2814L507.114 31.4076ZM519.177 36.6712L518.233 38.4348L518.242 38.4393L518.25 38.4437L519.177 36.6712ZM527.511 43.6895L525.934 44.92L527.511 43.6895ZM527.511 67.8147L529.205 68.8777L529.209 68.8703L529.214 68.8629L527.511 67.8147ZM517.312 76.5875L516.454 74.7812L517.312 76.5875ZM501.412 77.7676C492.439 77.7676 485.195 75.6865 479.542 71.6676L477.224 74.9278C483.706 79.5355 491.815 81.7676 501.412 81.7676V77.7676ZM479.564 71.6836C474.117 67.6983 471.101 61.8883 470.62 53.9857L466.627 54.2287C467.169 63.1406 470.659 70.1243 477.202 74.9117L479.564 71.6836ZM468.623 56.1072H494.503V52.1072H468.623V56.1072ZM492.51 54.2706C492.711 56.7255 493.375 58.8849 494.76 60.4498C496.203 62.0801 498.188 62.7964 500.425 62.7964V58.7964C499.079 58.7964 498.286 58.3979 497.755 57.7984C497.167 57.1336 496.661 55.9483 496.496 53.9438L492.51 54.2706ZM500.425 62.7964C502.037 62.7964 503.545 62.4359 504.824 61.5833L502.605 58.2551C502.129 58.5721 501.444 58.7964 500.425 58.7964V62.7964ZM504.853 61.5635C506.424 60.4758 507.14 58.8252 507.14 56.9583H503.14C503.14 57.7233 502.906 58.0466 502.576 58.2748L504.853 61.5635ZM507.14 56.9583C507.14 54.223 505.583 52.1751 503.151 50.8236L501.208 54.3203C502.723 55.162 503.14 56.0383 503.14 56.9583H507.14ZM503.199 50.8514C501.051 49.5785 497.83 48.2106 493.63 46.737L492.306 50.5114C496.44 51.9621 499.36 53.226 501.16 54.2925L503.199 50.8514ZM493.633 46.7382C488.714 45.0019 484.672 43.3173 481.486 41.6893L479.666 45.251C483.06 46.9859 487.279 48.7374 492.302 50.5102L493.633 46.7382ZM481.503 41.6977C478.585 40.1723 476.035 37.9383 473.86 34.9466L470.625 37.2993C473.128 40.741 476.134 43.4051 479.65 45.2426L481.503 41.6977ZM473.86 34.9466C471.836 32.164 470.774 28.4894 470.842 23.7603L466.843 23.7024C466.765 29.062 467.969 33.6485 470.625 37.2993L473.86 34.9466ZM470.843 23.7314C470.843 19.0397 472.026 15.1933 474.297 12.0795L471.065 9.72279C468.218 13.6272 466.843 18.3343 466.843 23.7314H470.843ZM474.292 12.0853C476.688 8.8243 479.927 6.33728 484.076 4.6369L482.559 0.935682C477.789 2.89064 473.937 5.81352 471.069 9.71698L474.292 12.0853ZM484.066 4.64118C488.327 2.92278 493.149 2.04479 498.56 2.04479V-1.95521C492.713 -1.95521 487.373 -1.00552 482.57 0.931408L484.066 4.64118ZM498.56 2.04479C507.768 2.04479 514.812 4.16863 519.911 8.19416L522.39 5.05463C516.377 0.30736 508.36 -1.95521 498.56 -1.95521V2.04479ZM519.921 8.202C525.026 12.1798 527.761 17.7741 528.034 25.2303L532.032 25.0836C531.72 16.6025 528.533 9.84176 522.38 5.04679L519.921 8.202ZM530.033 23.1569H503.824V27.1569H530.033V23.1569ZM505.823 25.0903C505.742 22.6598 505.128 20.45 503.54 18.976L500.818 21.9071C501.278 22.3339 501.76 23.2677 501.825 25.2236L505.823 25.0903ZM503.54 18.976C502.128 17.6648 500.392 17.016 498.451 17.016V21.016C499.434 21.016 500.183 21.3176 500.818 21.9071L503.54 18.976ZM498.451 17.016C496.886 17.016 495.496 17.6031 494.442 18.7747L497.415 21.4505C497.677 21.1599 497.968 21.016 498.451 21.016V17.016ZM494.514 18.6984C493.369 19.844 492.942 21.3743 492.942 22.9637H496.942C496.942 22.0675 497.173 21.6971 497.343 21.5268L494.514 18.6984ZM492.942 22.9637C492.942 25.6045 494.436 27.633 496.745 29.0535L498.841 25.6468C497.348 24.7278 496.942 23.832 496.942 22.9637H492.942ZM496.822 29.0985C498.927 30.2681 502.145 31.6619 506.405 33.2775L507.823 29.5376C503.602 27.9365 500.607 26.6254 498.764 25.6018L496.822 29.0985ZM506.415 33.2814C511.264 35.0908 515.196 36.81 518.233 38.4348L520.12 34.9077C516.87 33.1696 512.76 31.3797 507.813 29.5338L506.415 33.2814ZM518.25 38.4437C521.202 39.9867 523.762 42.1367 525.934 44.92L529.087 42.4589C526.581 39.2476 523.585 36.7187 520.103 34.8988L518.25 38.4437ZM525.934 44.92C527.949 47.5018 529.02 50.809 529.02 54.9845H533.02C533.02 50.0946 531.751 45.8719 529.087 42.4589L525.934 44.92ZM529.02 54.9845C529.02 59.3912 527.94 63.3007 525.807 66.7665L529.214 68.8629C531.76 64.7255 533.02 60.0816 533.02 54.9845H529.02ZM525.817 66.7517C523.703 70.1198 520.613 72.8039 516.454 74.7812L518.171 78.3937C522.931 76.1309 526.639 72.9664 529.205 68.8777L525.817 66.7517ZM516.454 74.7812C512.32 76.7466 507.326 77.7676 501.412 77.7676V81.7676C507.779 81.7676 513.386 80.6686 518.171 78.3937L516.454 74.7812ZM566.111 73.2977L564.93 74.9117L564.941 74.9198L564.952 74.9278L566.111 73.2977ZM556.351 54.1072V52.1072H554.226L554.355 54.2287L556.351 54.1072ZM582.231 54.1072L584.224 53.9438L584.074 52.1072H582.231V54.1072ZM591.443 59.9192L592.552 61.5833L592.567 61.5735L592.581 61.5635L591.443 59.9192ZM589.907 52.5719L588.888 54.2925L588.912 54.3067L588.936 54.3203L589.907 52.5719ZM580.696 48.6242L580.03 50.5102L580.034 50.5114L580.696 48.6242ZM568.304 43.4702L567.378 45.2426L567.386 45.2469L567.394 45.251L568.304 43.4702ZM559.97 36.1229L561.588 34.9466L559.97 36.1229ZM556.571 23.7314L558.57 23.7603L558.571 23.7458V23.7314H556.571ZM560.409 10.9011L558.797 9.71697L558.793 9.72279L560.409 10.9011ZM571.046 2.78629L570.298 0.931379L570.287 0.935682L571.046 2.78629ZM608.878 6.62439L607.639 8.19419L607.649 8.202L608.878 6.62439ZM617.761 25.1569V27.1569H619.836L619.76 25.0836L617.761 25.1569ZM591.552 25.1569L589.553 25.2236L589.618 27.1569H591.552V25.1569ZM583.657 20.1126L585.071 21.5268L585.108 21.4896L585.143 21.4505L583.657 20.1126ZM585.521 27.3501L584.473 29.0535L584.511 29.0768L584.55 29.0985L585.521 27.3501ZM594.842 31.4076L594.133 33.2776L594.143 33.2814L594.842 31.4076ZM606.905 36.6712L605.961 38.4348L605.97 38.4393L605.978 38.4437L606.905 36.6712ZM615.239 43.6895L613.662 44.92L615.239 43.6895ZM615.239 67.8147L616.933 68.8777L616.938 68.8703L616.942 68.8629L615.239 67.8147ZM605.04 76.5875L604.182 74.7812L605.04 76.5875ZM589.14 77.7676C580.167 77.7676 572.924 75.6865 567.27 71.6676L564.952 74.9278C571.434 79.5355 579.543 81.7676 589.14 81.7676V77.7676ZM567.292 71.6836C561.845 67.6983 558.829 61.8883 558.348 53.9857L554.355 54.2287C554.897 63.1406 558.387 70.1243 564.93 74.9117L567.292 71.6836ZM556.351 56.1072H582.231V52.1072H556.351V56.1072ZM580.238 54.2706C580.439 56.7255 581.103 58.8849 582.488 60.4498C583.931 62.0801 585.916 62.7964 588.153 62.7964V58.7964C586.807 58.7964 586.014 58.3979 585.483 57.7984C584.895 57.1336 584.389 55.9483 584.224 53.9438L580.238 54.2706ZM588.153 62.7964C589.765 62.7964 591.273 62.4359 592.552 61.5833L590.333 58.2551C589.857 58.5721 589.172 58.7964 588.153 58.7964V62.7964ZM592.581 61.5635C594.152 60.4758 594.868 58.8252 594.868 56.9583H590.868C590.868 57.7233 590.634 58.0466 590.304 58.2748L592.581 61.5635ZM594.868 56.9583C594.868 54.223 593.311 52.1751 590.879 50.8236L588.936 54.3203C590.451 55.162 590.868 56.0383 590.868 56.9583H594.868ZM590.927 50.8514C588.779 49.5785 585.558 48.2106 581.358 46.737L580.034 50.5114C584.168 51.9621 587.088 53.226 588.888 54.2925L590.927 50.8514ZM581.361 46.7382C576.442 45.0019 572.4 43.3173 569.214 41.6893L567.394 45.251C570.788 46.9859 575.007 48.7374 580.03 50.5102L581.361 46.7382ZM569.231 41.6977C566.313 40.1723 563.763 37.9383 561.588 34.9466L558.353 37.2993C560.856 40.741 563.862 43.4051 567.378 45.2426L569.231 41.6977ZM561.588 34.9466C559.564 32.164 558.502 28.4894 558.57 23.7603L554.571 23.7024C554.493 29.062 555.698 33.6485 558.353 37.2993L561.588 34.9466ZM558.571 23.7314C558.571 19.0397 559.754 15.1933 562.025 12.0795L558.793 9.72279C555.946 13.6272 554.571 18.3343 554.571 23.7314H558.571ZM562.021 12.0853C564.416 8.8243 567.655 6.33728 571.804 4.6369L570.287 0.935682C565.517 2.89064 561.665 5.81352 558.797 9.71698L562.021 12.0853ZM571.794 4.64118C576.055 2.92278 580.877 2.04479 586.289 2.04479V-1.95521C580.441 -1.95521 575.101 -1.00552 570.298 0.931408L571.794 4.64118ZM586.289 2.04479C595.496 2.04479 602.54 4.16863 607.639 8.19416L610.118 5.05463C604.105 0.30736 596.089 -1.95521 586.289 -1.95521V2.04479ZM607.649 8.202C612.754 12.1798 615.489 17.7741 615.762 25.2303L619.76 25.0836C619.448 16.6025 616.261 9.84176 610.108 5.04679L607.649 8.202ZM617.761 23.1569H591.552V27.1569H617.761V23.1569ZM593.551 25.0903C593.47 22.6598 592.856 20.45 591.268 18.976L588.546 21.9071C589.006 22.3339 589.488 23.2677 589.553 25.2236L593.551 25.0903ZM591.268 18.976C589.856 17.6648 588.12 17.016 586.179 17.016V21.016C587.162 21.016 587.911 21.3176 588.546 21.9071L591.268 18.976ZM586.179 17.016C584.615 17.016 583.224 17.6031 582.17 18.7747L585.143 21.4505C585.405 21.1599 585.696 21.016 586.179 21.016V17.016ZM582.242 18.6984C581.097 19.844 580.67 21.3743 580.67 22.9637H584.67C584.67 22.0675 584.901 21.6971 585.071 21.5268L582.242 18.6984ZM580.67 22.9637C580.67 25.6045 582.164 27.633 584.473 29.0535L586.569 25.6468C585.076 24.7278 584.67 23.832 584.67 22.9637H580.67ZM584.55 29.0985C586.655 30.2681 589.873 31.6619 594.133 33.2775L595.551 29.5376C591.33 27.9365 588.335 26.6254 586.492 25.6018L584.55 29.0985ZM594.143 33.2814C598.992 35.0908 602.924 36.81 605.961 38.4348L607.848 34.9077C604.598 33.1696 600.488 31.3797 595.541 29.5338L594.143 33.2814ZM605.978 38.4437C608.93 39.9867 611.49 42.1367 613.662 44.92L616.815 42.4589C614.309 39.2476 611.313 36.7187 607.831 34.8988L605.978 38.4437ZM613.662 44.92C615.677 47.5018 616.748 50.809 616.748 54.9845H620.748C620.748 50.0946 619.479 45.8719 616.815 42.4589L613.662 44.92ZM616.748 54.9845C616.748 59.3912 615.668 63.3007 613.535 66.7665L616.942 68.8629C619.488 64.7255 620.748 60.0816 620.748 54.9845H616.748ZM613.545 66.7517C611.431 70.1198 608.341 72.8039 604.182 74.7812L605.899 78.3937C610.659 76.1309 614.367 72.9664 616.933 68.8777L613.545 66.7517ZM604.182 74.7812C600.048 76.7466 595.054 77.7676 589.14 77.7676V81.7676C595.507 81.7676 601.114 80.6686 605.899 78.3937L604.182 74.7812Z" fill="#6947EF"/>
</svg>
