<svg width="645" height="89" viewBox="0 0 645 89" fill="none" xmlns="http://www.w3.org/2000/svg">
<rect width="645" height="89" fill="black"/>
<path d="M74.5767 45.3866L76.3112 46.3824L76.3151 46.3755L76.319 46.3686L74.5767 45.3866ZM64.488 54.8174L63.5588 53.0462L63.5468 53.0527L64.488 54.8174ZM38.8275 58.3265V56.3265H36.8275V58.3265H38.8275ZM38.8275 83V85H40.8275V83H38.8275ZM14.483 83H12.483V85H14.483V83ZM14.483 5.36072V3.36072H12.483V5.36072H14.483ZM70.2999 12.5983L68.9175 14.0436L68.9227 14.0485L68.9279 14.0535L70.2999 12.5983ZM38.8275 24.8802V22.8802H36.8275V24.8802H38.8275ZM38.8275 39.136H36.8275V41.136H38.8275V39.136ZM75.9761 32.0081C75.9761 36.584 74.9214 40.7019 72.8344 44.4046L76.319 46.3686C78.7646 42.0296 79.9761 37.2285 79.9761 32.0081H75.9761ZM72.8422 44.3909C70.785 47.9744 67.7187 50.8641 63.5589 53.0463L65.4171 56.5885C70.1762 54.0919 73.8358 50.6944 76.3112 46.3824L72.8422 44.3909ZM63.5468 53.0527C59.5167 55.202 54.5215 56.3265 48.4776 56.3265V60.3265C55.0081 60.3265 60.6864 59.1116 65.4291 56.5821L63.5468 53.0527ZM48.4776 56.3265H38.8275V60.3265H48.4776V56.3265ZM36.8275 58.3265V83H40.8275V58.3265H36.8275ZM38.8275 81H14.483V85H38.8275V81ZM16.483 83V5.36072H12.483V83H16.483ZM14.483 7.36072H48.4776V3.36072H14.483V7.36072ZM48.4776 7.36072C57.6561 7.36072 64.3629 9.68699 68.9175 14.0436L71.6824 11.153C66.1483 5.85948 58.3069 3.36072 48.4776 3.36072V7.36072ZM68.9279 14.0535C73.5819 18.4414 75.9761 24.3515 75.9761 32.0081H79.9761C79.9761 23.435 77.253 16.4052 71.672 11.1431L68.9279 14.0535ZM45.7361 41.136C48.5378 41.136 51.0111 40.4784 52.7824 38.8098C54.5762 37.12 55.3026 34.7239 55.3026 32.0081H51.3026C51.3026 34.0442 50.768 35.212 50.0396 35.8982C49.2888 36.6056 47.9788 37.136 45.7361 37.136V41.136ZM55.3026 32.0081C55.3026 29.2923 54.5762 26.8962 52.7824 25.2064C51.0111 23.5377 48.5378 22.8802 45.7361 22.8802V26.8802C47.9788 26.8802 49.2888 27.4106 50.0396 28.118C50.768 28.8041 51.3026 29.972 51.3026 32.0081H55.3026ZM45.7361 22.8802H38.8275V26.8802H45.7361V22.8802ZM36.8275 24.8802V39.136H40.8275V24.8802H36.8275ZM38.8275 41.136H45.7361V37.136H38.8275V41.136ZM143.927 83L142.155 83.9278L142.717 85H143.927V83ZM129.342 55.1464L131.114 54.2186L130.553 53.1464H129.342V55.1464ZM129.233 55.1464V53.1464H127.233V55.1464H129.233ZM129.233 83V85H131.233V83H129.233ZM104.888 83H102.888V85H104.888V83ZM104.888 5.36072V3.36072H102.888V5.36072H104.888ZM157.196 8.76017L156.29 10.5431L156.302 10.5491L156.313 10.5549L157.196 8.76017ZM167.175 17.862L165.435 18.8472L165.446 18.8667L165.457 18.8861L167.175 17.862ZM166.188 44.619L164.571 43.4427L164.564 43.4524L164.557 43.4621L166.188 44.619ZM153.797 53.2821L153.18 51.3797L150.845 52.1367L152.058 54.2703L153.797 53.2821ZM170.684 83V85H174.121L172.423 82.0119L170.684 83ZM129.233 38.9167H127.233V40.9167H129.233V38.9167ZM144.147 37.3814L145.464 38.8866L145.489 38.864L145.514 38.8405L144.147 37.3814ZM144.037 27.512L142.623 28.9262L142.644 28.9477L142.666 28.9684L144.037 27.512ZM129.233 25.7575V23.7575H127.233V25.7575H129.233ZM145.699 82.0722L131.114 54.2186L127.571 56.0741L142.155 83.9278L145.699 82.0722ZM129.342 53.1464H129.233V57.1464H129.342V53.1464ZM127.233 55.1464V83H131.233V55.1464H127.233ZM129.233 81H104.888V85H129.233V81ZM106.888 83V5.36072H102.888V83H106.888ZM104.888 7.36072H141.076V3.36072H104.888V7.36072ZM141.076 7.36072C147.127 7.36072 152.174 8.45143 156.29 10.5431L158.102 6.9772C153.299 4.5363 147.599 3.36072 141.076 3.36072V7.36072ZM156.313 10.5549C160.456 12.5921 163.462 15.3625 165.435 18.8472L168.916 16.8768C166.502 12.6121 162.855 9.3147 158.079 6.96547L156.313 10.5549ZM165.457 18.8861C167.522 22.3503 168.575 26.3038 168.575 30.8018H172.575C172.575 25.6498 171.36 20.9767 168.893 16.8378L165.457 18.8861ZM168.575 30.8018C168.575 35.5896 167.235 39.7793 164.571 43.4427L167.806 45.7953C170.99 41.4169 172.575 36.3953 172.575 30.8018H168.575ZM164.557 43.4621C161.992 47.0794 158.245 49.7367 153.18 51.3797L154.414 55.1846C160.168 53.3184 164.682 50.2003 167.82 45.7759L164.557 43.4621ZM152.058 54.2703L168.945 83.9881L172.423 82.0119L155.535 52.294L152.058 54.2703ZM170.684 81H143.927V85H170.684V81ZM129.233 40.9167H138.883V36.9167H129.233V40.9167ZM138.883 40.9167C141.47 40.9167 143.784 40.3565 145.464 38.8866L142.83 35.8763C142.17 36.4533 140.975 36.9167 138.883 36.9167V40.9167ZM145.514 38.8405C147.231 37.2313 147.901 34.9227 147.901 32.3371H143.901C143.901 34.2841 143.402 35.3384 142.779 35.9224L145.514 38.8405ZM147.901 32.3371C147.901 29.8575 147.131 27.6777 145.408 26.0556L142.666 28.9684C143.428 29.6858 143.901 30.7227 143.901 32.3371H147.901ZM145.451 26.0978C143.785 24.4316 141.479 23.7575 138.883 23.7575V27.7575C140.82 27.7575 141.949 28.2531 142.623 28.9262L145.451 26.0978ZM138.883 23.7575H129.233V27.7575H138.883V23.7575ZM127.233 25.7575V38.9167H131.233V25.7575H127.233ZM215.198 78.6136L214.212 80.354L214.221 80.359L215.198 78.6136ZM200.723 64.3578L199 65.3746L199 65.3746L200.723 64.3578ZM200.723 23.345L202.445 24.3617L200.723 23.345ZM215.198 9.19881L216.167 10.9481L216.174 10.9442L215.198 9.19881ZM255.443 9.19881L254.457 10.9392L254.465 10.9437L254.473 10.9481L255.443 9.19881ZM269.808 23.345L268.077 24.3462L268.082 24.354L268.086 24.3617L269.808 23.345ZM269.808 64.3578L268.086 63.341L268.082 63.3488L268.077 63.3565L269.808 64.3578ZM255.333 78.6136L254.357 76.8682L254.348 76.8733L255.333 78.6136ZM246.56 56.4623L248.079 57.7639L248.086 57.755L248.094 57.7462L246.56 56.4623ZM246.56 31.2405L245.027 32.5243L245.034 32.5332L245.042 32.5421L246.56 31.2405ZM224.08 31.2405L225.599 32.5421L225.606 32.5332L225.614 32.5243L224.08 31.2405ZM224.08 56.4623L222.547 57.7462L222.554 57.755L222.562 57.7639L224.08 56.4623ZM235.375 81.7676C228.393 81.7676 222.005 80.1307 216.174 76.8682L214.221 80.359C220.672 83.9686 227.736 85.7676 235.375 85.7676V81.7676ZM216.183 76.8733C210.423 73.6117 205.851 69.1107 202.445 63.341L199 65.3746C202.759 71.7406 207.836 76.7435 214.212 80.3539L216.183 76.8733ZM202.445 63.341C199.059 57.6054 197.349 51.1261 197.349 43.8514H193.349C193.349 51.7829 195.222 58.9745 199 65.3746L202.445 63.341ZM197.349 43.8514C197.349 36.5767 199.059 30.0973 202.445 24.3617L199 22.3282C195.222 28.7283 193.349 35.9199 193.349 43.8514H197.349ZM202.445 24.3617C205.849 18.5957 210.416 14.1354 216.167 10.9481L214.228 7.44951C207.843 10.988 202.761 15.9585 199 22.3282L202.445 24.3617ZM216.174 10.9442C222.005 7.68176 228.393 6.04479 235.375 6.04479V2.04479C227.736 2.04479 220.672 3.84384 214.221 7.45345L216.174 10.9442ZM235.375 6.04479C242.358 6.04479 248.705 7.6817 254.457 10.9392L256.428 7.45847C250.045 3.8439 243.014 2.04479 235.375 2.04479V6.04479ZM254.473 10.9481C260.221 14.1334 264.747 18.5887 268.077 24.3462L271.54 22.3437C267.851 15.9655 262.801 10.99 256.412 7.44951L254.473 10.9481ZM268.086 24.3617C271.472 30.0973 273.182 36.5767 273.182 43.8514H277.182C277.182 35.9199 275.309 28.7283 271.531 22.3282L268.086 24.3617ZM273.182 43.8514C273.182 51.1261 271.472 57.6054 268.086 63.341L271.531 65.3746C275.309 58.9745 277.182 51.7829 277.182 43.8514H273.182ZM268.077 63.3565C264.749 69.1117 260.185 73.6071 254.357 76.8682L256.31 80.359C262.763 76.748 267.85 71.7396 271.54 65.359L268.077 63.3565ZM254.348 76.8733C248.592 80.1325 242.281 81.7676 235.375 81.7676V85.7676C242.944 85.7676 249.939 83.9668 256.319 80.3539L254.348 76.8733ZM235.375 63.068C240.66 63.068 244.993 61.3638 248.079 57.7639L245.042 55.1607C242.864 57.7017 239.74 59.068 235.375 59.068V63.068ZM248.094 57.7462C251.104 54.1506 252.508 49.4485 252.508 43.8514H248.508C248.508 48.7816 247.28 52.4868 245.027 55.1784L248.094 57.7462ZM252.508 43.8514C252.508 38.1919 251.109 33.4742 248.079 29.9389L245.042 32.5421C247.275 35.1477 248.508 38.8373 248.508 43.8514H252.508ZM248.094 29.9566C245.013 26.277 240.676 24.5251 235.375 24.5251V28.5251C239.724 28.5251 242.844 29.9167 245.027 32.5243L248.094 29.9566ZM235.375 24.5251C230.012 24.5251 225.633 26.2698 222.547 29.9566L225.614 32.5243C227.791 29.9239 230.942 28.5251 235.375 28.5251V24.5251ZM222.562 29.9389C219.531 33.4742 218.132 38.1919 218.132 43.8514H222.132C222.132 38.8373 223.365 35.1477 225.599 32.5421L222.562 29.9389ZM218.132 43.8514C218.132 49.4485 219.536 54.1506 222.547 57.7462L225.614 55.1784C223.36 52.4868 222.132 48.7816 222.132 43.8514H218.132ZM222.562 57.7639C225.653 61.3708 230.028 63.068 235.375 63.068V59.068C230.926 59.068 227.771 57.6947 225.599 55.1607L222.562 57.7639ZM305.567 23.5643L303.796 22.6355L303.791 22.644L303.787 22.6525L305.567 23.5643ZM318.945 9.63745L319.935 11.3753L319.944 11.3706L319.952 11.3658L318.945 9.63745ZM357.326 8.4312L356.452 10.2299L356.467 10.2372L356.482 10.2442L357.326 8.4312ZM370.266 19.0682L368.639 20.2307L368.645 20.2392L368.651 20.2476L370.266 19.0682ZM376.956 35.1882V37.1882H379.344L378.924 34.8367L376.956 35.1882ZM351.295 35.1882L349.476 36.0198L350.01 37.1882H351.295V35.1882ZM346.251 29.2666L345.115 30.913L345.148 30.9353L345.181 30.9562L346.251 29.2666ZM329.144 31.6791L327.571 30.4435L327.562 30.4552L327.553 30.467L329.144 31.6791ZM329.144 56.4623L327.553 57.6744L327.562 57.6862L327.571 57.6979L329.144 56.4623ZM346.251 58.9845L347.347 60.6574L347.354 60.653L347.36 60.6486L346.251 58.9845ZM351.295 52.9532V50.9532H350.01L349.476 52.1216L351.295 52.9532ZM376.956 52.9532L378.924 53.3047L379.344 50.9532H376.956V52.9532ZM370.266 69.0732L368.651 67.8938L368.645 67.9022L368.639 67.9107L370.266 69.0732ZM357.326 79.8199L358.18 81.6284L358.191 81.6233L357.326 79.8199ZM318.945 78.6136L317.939 80.342L317.947 80.3467L317.956 80.3514L318.945 78.6136ZM305.567 64.5771L303.787 65.4889L303.791 65.4974L303.796 65.5059L305.567 64.5771ZM302.961 44.0707C302.961 36.6669 304.44 30.1514 307.347 24.476L303.787 22.6525C300.553 28.9666 298.961 36.122 298.961 44.0707H302.961ZM307.338 24.4931C310.308 18.8306 314.499 14.4721 319.935 11.3753L317.956 7.89962C311.841 11.3825 307.113 16.3085 303.796 22.6355L307.338 24.4931ZM319.952 11.3658C325.373 8.20912 331.813 6.59309 339.342 6.59309V2.59309C331.227 2.59309 324.069 4.33998 317.939 7.9091L319.952 11.3658ZM339.342 6.59309C345.81 6.59309 351.499 7.82209 356.452 10.2299L358.201 6.63246C352.627 3.92283 346.326 2.59309 339.342 2.59309V6.59309ZM356.482 10.2442C361.519 12.5902 365.558 15.9172 368.639 20.2307L371.894 17.9057C368.395 13.0078 363.807 9.2434 358.171 6.6182L356.482 10.2442ZM368.651 20.2476C371.818 24.5855 373.938 29.6696 374.987 35.5398L378.924 34.8367C377.779 28.425 375.44 22.7624 371.882 17.8888L368.651 20.2476ZM376.956 33.1882H351.295V37.1882H376.956V33.1882ZM353.114 34.3567C351.797 31.4762 349.869 29.1908 347.321 27.577L345.181 30.9562C347.019 32.1204 348.454 33.7828 349.476 36.0198L353.114 34.3567ZM347.386 27.6202C344.906 25.9094 342.054 25.0734 338.904 25.0734V29.0734C341.31 29.0734 343.356 29.6995 345.115 30.913L347.386 27.6202ZM338.904 25.0734C334.23 25.0734 330.384 26.8639 327.571 30.4435L330.716 32.9148C332.729 30.3533 335.389 29.0734 338.904 29.0734V25.0734ZM327.553 30.467C324.87 33.9886 323.635 38.5919 323.635 44.0707H327.635C327.635 39.1683 328.739 35.5105 330.735 32.8912L327.553 30.467ZM323.635 44.0707C323.635 49.5495 324.87 54.1527 327.553 57.6744L330.735 55.2502C328.739 52.6308 327.635 48.9731 327.635 44.0707H323.635ZM327.571 57.6979C330.384 61.2775 334.23 63.068 338.904 63.068V59.068C335.389 59.068 332.729 57.7881 330.716 55.2266L327.571 57.6979ZM338.904 63.068C342.032 63.068 344.87 62.2802 347.347 60.6574L345.155 57.3115C343.391 58.4668 341.331 59.068 338.904 59.068V63.068ZM347.36 60.6486C349.884 58.9662 351.801 56.6578 353.114 53.7847L349.476 52.1216C348.45 54.366 347.004 56.0784 345.141 57.3204L347.36 60.6486ZM351.295 54.9532H376.956V50.9532H351.295V54.9532ZM374.987 52.6016C373.938 58.4718 371.818 63.5559 368.651 67.8938L371.882 70.2526C375.44 65.379 377.779 59.7164 378.924 53.3047L374.987 52.6016ZM368.639 67.9107C365.554 72.2291 361.509 75.5967 356.462 78.0164L358.191 81.6233C363.818 78.9256 368.399 75.1287 371.894 70.2357L368.639 67.9107ZM356.472 78.0114C351.514 80.3527 345.818 81.5483 339.342 81.5483V85.5483C346.318 85.5483 352.611 84.2583 358.18 81.6284L356.472 78.0114ZM339.342 81.5483C331.805 81.5483 325.36 79.9656 319.935 76.8758L317.956 80.3514C324.082 83.8412 331.234 85.5483 339.342 85.5483V81.5483ZM319.952 76.8852C314.506 73.7142 310.309 69.3144 307.338 63.6483L303.796 65.5059C307.112 71.8293 311.834 76.7872 317.939 80.342L319.952 76.8852ZM307.347 63.6654C304.44 57.99 302.961 51.4744 302.961 44.0707H298.961C298.961 52.0194 300.553 59.1747 303.787 65.4889L307.347 63.6654ZM429.256 24.7705V22.7705H427.256V24.7705H429.256ZM429.256 34.311H427.256V36.311H429.256V34.311ZM453.381 34.311H455.381V32.311H453.381V34.311ZM453.381 52.6242V54.6242H455.381V52.6242H453.381ZM429.256 52.6242V50.6242H427.256V52.6242H429.256ZM429.256 63.5902H427.256V65.5902H429.256V63.5902ZM456.671 63.5902H458.671V61.5902H456.671V63.5902ZM456.671 83V85H458.671V83H456.671ZM404.911 83H402.911V85H404.911V83ZM404.911 5.36072V3.36072H402.911V5.36072H404.911ZM456.671 5.36072H458.671V3.36072H456.671V5.36072ZM456.671 24.7705V26.7705H458.671V24.7705H456.671ZM427.256 24.7705V34.311H431.256V24.7705H427.256ZM429.256 36.311H453.381V32.311H429.256V36.311ZM451.381 34.311V52.6242H455.381V34.311H451.381ZM453.381 50.6242H429.256V54.6242H453.381V50.6242ZM427.256 52.6242V63.5902H431.256V52.6242H427.256ZM429.256 65.5902H456.671V61.5902H429.256V65.5902ZM454.671 63.5902V83H458.671V63.5902H454.671ZM456.671 81H404.911V85H456.671V81ZM406.911 83V5.36072H402.911V83H406.911ZM404.911 7.36072H456.671V3.36072H404.911V7.36072ZM454.671 5.36072V24.7705H458.671V5.36072H454.671ZM456.671 22.7705H429.256V26.7705H456.671V22.7705ZM492.383 77.2977L491.202 78.9117L491.213 78.9198L491.224 78.9278L492.383 77.2977ZM482.623 58.1072V56.1072H480.498L480.627 58.2287L482.623 58.1072ZM508.503 58.1072L510.496 57.9438L510.346 56.1072H508.503V58.1072ZM517.714 63.9192L518.824 65.5833L518.838 65.5735L518.853 65.5635L517.714 63.9192ZM516.179 56.5719L515.16 58.2925L515.184 58.3067L515.208 58.3203L516.179 56.5719ZM506.968 52.6242L506.302 54.5102L506.306 54.5114L506.968 52.6242ZM494.576 47.4702L493.65 49.2426L493.658 49.2469L493.666 49.251L494.576 47.4702ZM486.242 40.1229L487.86 38.9466L487.86 38.9466L486.242 40.1229ZM482.843 27.7314L484.842 27.7603L484.843 27.7458V27.7314H482.843ZM486.681 14.9011L485.069 13.717L485.065 13.7228L486.681 14.9011ZM497.318 6.78629L496.57 4.93138L496.559 4.93568L497.318 6.78629ZM535.15 10.6244L533.911 12.1942L533.921 12.202L535.15 10.6244ZM544.033 29.1569V31.1569H546.108L546.032 29.0836L544.033 29.1569ZM517.824 29.1569L515.825 29.2236L515.89 31.1569H517.824V29.1569ZM509.929 24.1126L511.343 25.5268L511.38 25.4896L511.415 25.4505L509.929 24.1126ZM511.793 31.3501L510.745 33.0535L510.783 33.0768L510.822 33.0985L511.793 31.3501ZM521.114 35.4076L520.405 37.2776L520.415 37.2814L521.114 35.4076ZM533.177 40.6712L532.233 42.4348L532.242 42.4393L532.25 42.4437L533.177 40.6712ZM541.511 47.6895L539.934 48.92L539.934 48.92L541.511 47.6895ZM541.511 71.8147L543.205 72.8777L543.209 72.8703L543.214 72.8629L541.511 71.8147ZM531.312 80.5875L530.454 78.7812L531.312 80.5875ZM515.412 81.7676C506.439 81.7676 499.195 79.6865 493.542 75.6676L491.224 78.9278C497.706 83.5355 505.815 85.7676 515.412 85.7676V81.7676ZM493.564 75.6836C488.117 71.6983 485.101 65.8883 484.62 57.9857L480.627 58.2287C481.169 67.1406 484.659 74.1243 491.202 78.9117L493.564 75.6836ZM482.623 60.1072H508.503V56.1072H482.623V60.1072ZM506.51 58.2706C506.711 60.7255 507.375 62.8849 508.76 64.4498C510.203 66.0801 512.188 66.7964 514.425 66.7964V62.7964C513.079 62.7964 512.286 62.3979 511.755 61.7984C511.167 61.1336 510.661 59.9483 510.496 57.9438L506.51 58.2706ZM514.425 66.7964C516.037 66.7964 517.545 66.4359 518.824 65.5833L516.605 62.2551C516.129 62.5721 515.444 62.7964 514.425 62.7964V66.7964ZM518.853 65.5635C520.424 64.4758 521.14 62.8252 521.14 60.9583H517.14C517.14 61.7233 516.906 62.0466 516.576 62.2748L518.853 65.5635ZM521.14 60.9583C521.14 58.223 519.583 56.1751 517.151 54.8236L515.208 58.3203C516.723 59.162 517.14 60.0383 517.14 60.9583H521.14ZM517.199 54.8514C515.051 53.5785 511.83 52.2106 507.63 50.737L506.306 54.5114C510.44 55.9621 513.36 57.226 515.16 58.2925L517.199 54.8514ZM507.633 50.7382C502.714 49.0018 498.672 47.3173 495.486 45.6893L493.666 49.251C497.06 50.9859 501.279 52.7374 506.302 54.5102L507.633 50.7382ZM495.503 45.6977C492.585 44.1723 490.035 41.9383 487.86 38.9466L484.625 41.2993C487.128 44.741 490.134 47.4051 493.65 49.2426L495.503 45.6977ZM487.86 38.9466C485.836 36.164 484.774 32.4894 484.842 27.7603L480.843 27.7024C480.765 33.062 481.969 37.6485 484.625 41.2993L487.86 38.9466ZM484.843 27.7314C484.843 23.0397 486.026 19.1933 488.297 16.0795L485.065 13.7228C482.218 17.6272 480.843 22.3343 480.843 27.7314H484.843ZM488.292 16.0853C490.688 12.8243 493.927 10.3373 498.076 8.6369L496.559 4.93568C491.789 6.89064 487.937 9.81352 485.069 13.717L488.292 16.0853ZM498.066 8.64117C502.327 6.92278 507.149 6.04479 512.56 6.04479V2.04479C506.713 2.04479 501.373 2.99448 496.57 4.93141L498.066 8.64117ZM512.56 6.04479C521.768 6.04479 528.812 8.16863 533.911 12.1942L536.39 9.05463C530.377 4.30736 522.36 2.04479 512.56 2.04479V6.04479ZM533.921 12.202C539.026 16.1798 541.761 21.7741 542.034 29.2303L546.032 29.0836C545.72 20.6025 542.533 13.8418 536.38 9.04679L533.921 12.202ZM544.033 27.1569H517.824V31.1569H544.033V27.1569ZM519.823 29.0903C519.742 26.6598 519.128 24.45 517.54 22.976L514.818 25.9071C515.278 26.3339 515.76 27.2677 515.825 29.2236L519.823 29.0903ZM517.54 22.976C516.128 21.6648 514.392 21.016 512.451 21.016V25.016C513.434 25.016 514.183 25.3176 514.818 25.9071L517.54 22.976ZM512.451 21.016C510.886 21.016 509.496 21.6031 508.442 22.7747L511.415 25.4505C511.677 25.1599 511.968 25.016 512.451 25.016V21.016ZM508.514 22.6984C507.369 23.844 506.942 25.3743 506.942 26.9637H510.942C510.942 26.0675 511.173 25.6971 511.343 25.5268L508.514 22.6984ZM506.942 26.9637C506.942 29.6045 508.436 31.633 510.745 33.0535L512.841 29.6468C511.348 28.7278 510.942 27.832 510.942 26.9637H506.942ZM510.822 33.0985C512.927 34.2681 516.145 35.6619 520.405 37.2776L521.823 33.5376C517.602 31.9365 514.607 30.6254 512.764 29.6018L510.822 33.0985ZM520.415 37.2814C525.264 39.0908 529.196 40.81 532.233 42.4348L534.12 38.9077C530.87 37.1696 526.76 35.3797 521.813 33.5338L520.415 37.2814ZM532.25 42.4437C535.202 43.9867 537.762 46.1367 539.934 48.92L543.087 46.4589C540.581 43.2476 537.585 40.7187 534.103 38.8988L532.25 42.4437ZM539.934 48.92C541.949 51.5018 543.02 54.809 543.02 58.9845H547.02C547.02 54.0946 545.751 49.8719 543.087 46.4589L539.934 48.92ZM543.02 58.9845C543.02 63.3912 541.94 67.3007 539.807 70.7665L543.214 72.8629C545.76 68.7255 547.02 64.0816 547.02 58.9845H543.02ZM539.817 70.7517C537.703 74.1198 534.613 76.8039 530.454 78.7812L532.171 82.3937C536.931 80.1309 540.639 76.9664 543.205 72.8777L539.817 70.7517ZM530.454 78.7812C526.32 80.7466 521.326 81.7676 515.412 81.7676V85.7676C521.779 85.7676 527.386 84.6686 532.171 82.3937L530.454 78.7812ZM580.111 77.2977L578.93 78.9117L578.941 78.9198L578.952 78.9278L580.111 77.2977ZM570.351 58.1072V56.1072H568.226L568.355 58.2287L570.351 58.1072ZM596.231 58.1072L598.224 57.9438L598.074 56.1072H596.231V58.1072ZM605.443 63.9192L606.552 65.5833L606.567 65.5735L606.581 65.5635L605.443 63.9192ZM603.907 56.5719L602.888 58.2925L602.912 58.3067L602.936 58.3203L603.907 56.5719ZM594.696 52.6242L594.03 54.5102L594.034 54.5114L594.696 52.6242ZM582.304 47.4702L581.378 49.2426L581.386 49.2469L581.394 49.251L582.304 47.4702ZM573.97 40.1229L575.588 38.9466L575.588 38.9466L573.97 40.1229ZM570.571 27.7314L572.57 27.7603L572.571 27.7458V27.7314H570.571ZM574.409 14.9011L572.797 13.717L572.793 13.7228L574.409 14.9011ZM585.046 6.78629L584.298 4.93138L584.287 4.93568L585.046 6.78629ZM622.878 10.6244L621.639 12.1942L621.649 12.202L622.878 10.6244ZM631.761 29.1569V31.1569H633.836L633.76 29.0836L631.761 29.1569ZM605.552 29.1569L603.553 29.2236L603.618 31.1569H605.552V29.1569ZM597.657 24.1126L599.071 25.5268L599.108 25.4896L599.143 25.4505L597.657 24.1126ZM599.521 31.3501L598.473 33.0535L598.511 33.0768L598.55 33.0985L599.521 31.3501ZM608.842 35.4076L608.133 37.2776L608.143 37.2814L608.842 35.4076ZM620.905 40.6712L619.961 42.4348L619.97 42.4393L619.978 42.4437L620.905 40.6712ZM629.239 47.6895L627.662 48.92L627.662 48.92L629.239 47.6895ZM629.239 71.8147L630.933 72.8777L630.937 72.8703L630.942 72.8629L629.239 71.8147ZM619.04 80.5875L618.182 78.7812L619.04 80.5875ZM603.14 81.7676C594.167 81.7676 586.924 79.6865 581.27 75.6676L578.952 78.9278C585.434 83.5355 593.543 85.7676 603.14 85.7676V81.7676ZM581.292 75.6836C575.845 71.6983 572.829 65.8883 572.348 57.9857L568.355 58.2287C568.897 67.1406 572.387 74.1243 578.93 78.9117L581.292 75.6836ZM570.351 60.1072H596.231V56.1072H570.351V60.1072ZM594.238 58.2706C594.439 60.7255 595.103 62.8849 596.488 64.4498C597.931 66.0801 599.916 66.7964 602.153 66.7964V62.7964C600.808 62.7964 600.014 62.3979 599.483 61.7984C598.895 61.1336 598.389 59.9483 598.224 57.9438L594.238 58.2706ZM602.153 66.7964C603.765 66.7964 605.273 66.4359 606.552 65.5833L604.333 62.2551C603.858 62.5721 603.172 62.7964 602.153 62.7964V66.7964ZM606.581 65.5635C608.152 64.4758 608.868 62.8252 608.868 60.9583H604.868C604.868 61.7233 604.634 62.0466 604.304 62.2748L606.581 65.5635ZM608.868 60.9583C608.868 58.223 607.311 56.1751 604.879 54.8236L602.936 58.3203C604.451 59.162 604.868 60.0383 604.868 60.9583H608.868ZM604.927 54.8514C602.779 53.5785 599.558 52.2106 595.358 50.737L594.034 54.5114C598.168 55.9621 601.088 57.226 602.888 58.2925L604.927 54.8514ZM595.361 50.7382C590.442 49.0018 586.4 47.3173 583.214 45.6893L581.394 49.251C584.788 50.9859 589.007 52.7374 594.03 54.5102L595.361 50.7382ZM583.231 45.6977C580.313 44.1723 577.763 41.9383 575.588 38.9466L572.353 41.2993C574.856 44.741 577.862 47.4051 581.378 49.2426L583.231 45.6977ZM575.588 38.9466C573.564 36.164 572.502 32.4894 572.57 27.7603L568.571 27.7024C568.493 33.062 569.697 37.6485 572.353 41.2993L575.588 38.9466ZM572.571 27.7314C572.571 23.0397 573.754 19.1933 576.025 16.0795L572.793 13.7228C569.946 17.6272 568.571 22.3343 568.571 27.7314H572.571ZM576.02 16.0853C578.416 12.8243 581.655 10.3373 585.804 8.6369L584.287 4.93568C579.517 6.89064 575.665 9.81352 572.797 13.717L576.02 16.0853ZM585.794 8.64117C590.055 6.92278 594.877 6.04479 600.288 6.04479V2.04479C594.441 2.04479 589.101 2.99448 584.298 4.93141L585.794 8.64117ZM600.288 6.04479C609.496 6.04479 616.54 8.16863 621.639 12.1942L624.118 9.05463C618.105 4.30736 610.088 2.04479 600.288 2.04479V6.04479ZM621.649 12.202C626.754 16.1798 629.489 21.7741 629.762 29.2303L633.76 29.0836C633.448 20.6025 630.261 13.8418 624.108 9.04679L621.649 12.202ZM631.761 27.1569H605.552V31.1569H631.761V27.1569ZM607.551 29.0903C607.47 26.6598 606.856 24.45 605.268 22.976L602.546 25.9071C603.006 26.3339 603.488 27.2677 603.553 29.2236L607.551 29.0903ZM605.268 22.976C603.856 21.6648 602.12 21.016 600.179 21.016V25.016C601.162 25.016 601.911 25.3176 602.546 25.9071L605.268 22.976ZM600.179 21.016C598.614 21.016 597.224 21.6031 596.17 22.7747L599.143 25.4505C599.405 25.1599 599.696 25.016 600.179 25.016V21.016ZM596.242 22.6984C595.097 23.844 594.67 25.3743 594.67 26.9637H598.67C598.67 26.0675 598.901 25.6971 599.071 25.5268L596.242 22.6984ZM594.67 26.9637C594.67 29.6045 596.164 31.633 598.473 33.0535L600.569 29.6468C599.076 28.7278 598.67 27.832 598.67 26.9637H594.67ZM598.55 33.0985C600.655 34.2681 603.873 35.6619 608.133 37.2776L609.551 33.5376C605.33 31.9365 602.335 30.6254 600.492 29.6018L598.55 33.0985ZM608.143 37.2814C612.992 39.0908 616.924 40.81 619.961 42.4348L621.848 38.9077C618.598 37.1696 614.488 35.3797 609.541 33.5338L608.143 37.2814ZM619.978 42.4437C622.93 43.9867 625.49 46.1367 627.662 48.92L630.815 46.4589C628.309 43.2476 625.313 40.7187 621.831 38.8988L619.978 42.4437ZM627.662 48.92C629.677 51.5018 630.748 54.809 630.748 58.9845H634.748C634.748 54.0946 633.479 49.8719 630.815 46.4589L627.662 48.92ZM630.748 58.9845C630.748 63.3912 629.668 67.3007 627.535 70.7665L630.942 72.8629C633.488 68.7255 634.748 64.0816 634.748 58.9845H630.748ZM627.545 70.7517C625.431 74.1198 622.341 76.8039 618.182 78.7812L619.899 82.3937C624.659 80.1309 628.367 76.9664 630.933 72.8777L627.545 70.7517ZM618.182 78.7812C614.048 80.7466 609.054 81.7676 603.14 81.7676V85.7676C609.507 85.7676 615.114 84.6686 619.899 82.3937L618.182 78.7812Z" fill="#6947EF"/>
</svg>
