<svg width="663" height="80" viewBox="0 0 663 80" fill="none" xmlns="http://www.w3.org/2000/svg">
<path d="M10.1885 73.2977L9.00745 74.9117L9.01852 74.9198L9.02971 74.9278L10.1885 73.2977ZM0.428726 54.1072V52.1072H-1.69671L-1.56758 54.2287L0.428726 54.1072ZM26.3085 54.1072L28.3018 53.9438L28.1513 52.1072H26.3085V54.1072ZM35.5199 59.9192L36.6293 61.5833L36.6439 61.5735L36.6583 61.5635L35.5199 59.9192ZM33.9847 52.5719L32.9651 54.2925L32.9891 54.3067L33.0134 54.3203L33.9847 52.5719ZM24.7732 48.6242L24.1076 50.5102L24.1111 50.5114L24.7732 48.6242ZM12.3817 43.4702L11.4552 45.2426L11.4633 45.2469L11.4714 45.251L12.3817 43.4702ZM4.04751 36.1229L5.66498 34.9466L4.04751 36.1229ZM0.648046 23.7314L2.64784 23.7603L2.64805 23.7458V23.7314H0.648046ZM4.48615 10.9011L2.87437 9.71697L2.87013 9.72279L4.48615 10.9011ZM15.1232 2.78629L14.3752 0.931379L14.3647 0.935682L15.1232 2.78629ZM52.9559 6.62439L51.7166 8.19419L51.7266 8.202L52.9559 6.62439ZM61.8383 25.1569V27.1569H63.9131L63.837 25.0836L61.8383 25.1569ZM35.6296 25.1569L33.6307 25.2236L33.6951 27.1569H35.6296V25.1569ZM27.7341 20.1126L29.1483 21.5268L29.1855 21.4896L29.2207 21.4505L27.7341 20.1126ZM29.5983 27.3501L28.5501 29.0535L28.588 29.0768L28.627 29.0985L29.5983 27.3501ZM38.9194 31.4076L38.2101 33.2776L38.2202 33.2814L38.9194 31.4076ZM50.982 36.6712L50.0387 38.4348L50.0471 38.4393L50.0555 38.4437L50.982 36.6712ZM59.3161 43.6895L57.7395 44.92L59.3161 43.6895ZM59.3161 67.8147L61.0103 68.8777L61.0149 68.8703L61.0195 68.8629L59.3161 67.8147ZM49.1178 76.5875L48.2591 74.7812L49.1178 76.5875ZM33.2171 77.7676C24.2442 77.7676 17.0009 75.6865 11.3472 71.6676L9.02971 74.9278C15.5117 79.5355 23.6208 81.7676 33.2171 81.7676V77.7676ZM11.3695 71.6836C5.92289 67.6983 2.90606 61.8883 2.42503 53.9857L-1.56758 54.2287C-1.02511 63.1406 2.46455 70.1243 9.00745 74.9117L11.3695 71.6836ZM0.428726 56.1072H26.3085V52.1072H0.428726V56.1072ZM24.3152 54.2706C24.5164 56.7255 25.1802 58.8849 26.5655 60.4498C28.0087 62.0801 29.9931 62.7964 32.2301 62.7964V58.7964C30.8849 58.7964 30.0913 58.3979 29.5606 57.7984C28.972 57.1336 28.4661 55.9483 28.3018 53.9438L24.3152 54.2706ZM32.2301 62.7964C33.8427 62.7964 35.3504 62.4359 36.6293 61.5833L34.4105 58.2551C33.9349 58.5721 33.2494 58.7964 32.2301 58.7964V62.7964ZM36.6583 61.5635C38.2295 60.4758 38.9455 58.8252 38.9455 56.9583H34.9455C34.9455 57.7233 34.7111 58.0466 34.3815 58.2748L36.6583 61.5635ZM38.9455 56.9583C38.9455 54.223 37.3887 52.1751 34.956 50.8236L33.0134 54.3203C34.5285 55.162 34.9455 56.0383 34.9455 56.9583H38.9455ZM35.0043 50.8514C32.8563 49.5785 29.6352 48.2106 25.4354 46.737L24.1111 50.5114C28.2455 51.9621 31.1653 53.226 32.9651 54.2925L35.0043 50.8514ZM25.4389 46.7382C20.5192 45.0019 16.4771 43.3173 13.2919 41.6893L11.4714 45.251C14.8658 46.9859 19.0847 48.7374 24.1076 50.5102L25.4389 46.7382ZM13.3082 41.6977C10.3901 40.1723 7.84074 37.9383 5.66498 34.9466L2.43003 37.2993C4.9331 40.741 7.93988 43.4051 11.4552 45.2426L13.3082 41.6977ZM5.66498 34.9466C3.64128 32.164 2.5793 28.4894 2.64784 23.7603L-1.35174 23.7024C-1.42942 29.062 -0.225094 33.6485 2.43003 37.2993L5.66498 34.9466ZM2.64805 23.7314C2.64805 19.0397 3.83168 15.1933 6.10216 12.0795L2.87013 9.72279C0.023144 13.6272 -1.35195 18.3343 -1.35195 23.7314H2.64805ZM6.09791 12.0853C8.49374 8.8243 11.7327 6.33728 15.8816 4.6369L14.3647 0.935682C9.59462 2.89064 5.74223 5.81352 2.87438 9.71698L6.09791 12.0853ZM15.8711 4.64118C20.1327 2.92278 24.9545 2.04479 30.3659 2.04479V-1.95521C24.5189 -1.95521 19.1788 -1.00552 14.3752 0.931408L15.8711 4.64118ZM30.3659 2.04479C39.5736 2.04479 46.6176 4.16863 51.7166 8.19416L54.1952 5.05463C48.1819 0.30736 40.1659 -1.95521 30.3659 -1.95521V2.04479ZM51.7266 8.202C56.8315 12.1798 59.5661 17.7741 59.8397 25.2303L63.837 25.0836C63.5258 16.6025 60.3387 9.84176 54.1852 5.04679L51.7266 8.202ZM61.8383 23.1569H35.6296V27.1569H61.8383V23.1569ZM37.6285 25.0903C37.5475 22.6598 36.933 20.45 35.3456 18.976L32.6238 21.9071C33.0834 22.3339 33.5655 23.2677 33.6307 25.2236L37.6285 25.0903ZM35.3456 18.976C33.9335 17.6648 32.1972 17.016 30.2562 17.016V21.016C31.2396 21.016 31.9889 21.3176 32.6238 21.9071L35.3456 18.976ZM30.2562 17.016C28.6919 17.016 27.3019 17.6031 26.2475 18.7747L29.2207 21.4505C29.4822 21.1599 29.7736 21.016 30.2562 21.016V17.016ZM26.3199 18.6984C25.1743 19.844 24.7471 21.3743 24.7471 22.9637H28.7471C28.7471 22.0675 28.978 21.6971 29.1483 21.5268L26.3199 18.6984ZM24.7471 22.9637C24.7471 25.6045 26.2419 27.633 28.5501 29.0535L30.6465 25.6468C29.1531 24.7278 28.7471 23.832 28.7471 22.9637H24.7471ZM28.627 29.0985C30.7324 30.2681 33.9506 31.6619 38.2101 33.2775L39.6287 29.5376C35.4078 27.9365 32.412 26.6254 30.5696 25.6018L28.627 29.0985ZM38.2202 33.2814C43.0694 35.0908 47.001 36.81 50.0387 38.4348L51.9253 34.9077C48.6758 33.1696 44.5657 31.3797 39.6186 29.5338L38.2202 33.2814ZM50.0555 38.4437C53.0073 39.9867 55.5671 42.1367 57.7395 44.92L60.8928 42.4589C58.3863 39.2476 55.3901 36.7187 51.9085 34.8988L50.0555 38.4437ZM57.7395 44.92C59.7546 47.5018 60.8253 50.809 60.8253 54.9845H64.8253C64.8253 50.0946 63.5565 45.8719 60.8928 42.4589L57.7395 44.92ZM60.8253 54.9845C60.8253 59.3912 59.7456 63.3007 57.6128 66.7665L61.0195 68.8629C63.5655 64.7255 64.8253 60.0816 64.8253 54.9845H60.8253ZM57.622 66.7517C55.5087 70.1198 52.4182 72.8039 48.2591 74.7812L49.9765 78.3937C54.7363 76.1309 58.4448 72.9664 61.0103 68.8777L57.622 66.7517ZM48.2591 74.7812C44.125 76.7466 39.1315 77.7676 33.2171 77.7676V81.7676C39.5845 81.7676 45.1915 80.6686 49.9765 78.3937L48.2591 74.7812ZM114.914 20.7705V18.7705H112.914V20.7705H114.914ZM114.914 30.311H112.914V32.311H114.914V30.311ZM139.039 30.311H141.039V28.311H139.039V30.311ZM139.039 48.6242V50.6242H141.039V48.6242H139.039ZM114.914 48.6242V46.6242H112.914V48.6242H114.914ZM114.914 59.5902H112.914V61.5902H114.914V59.5902ZM142.329 59.5902H144.329V57.5902H142.329V59.5902ZM142.329 79V81H144.329V79H142.329ZM90.5693 79H88.5693V81H90.5693V79ZM90.5693 1.36072V-0.639283H88.5693V1.36072H90.5693ZM142.329 1.36072H144.329V-0.639283H142.329V1.36072ZM142.329 20.7705V22.7705H144.329V20.7705H142.329ZM112.914 20.7705V30.311H116.914V20.7705H112.914ZM114.914 32.311H139.039V28.311H114.914V32.311ZM137.039 30.311V48.6242H141.039V30.311H137.039ZM139.039 46.6242H114.914V50.6242H139.039V46.6242ZM112.914 48.6242V59.5902H116.914V48.6242H112.914ZM114.914 61.5902H142.329V57.5902H114.914V61.5902ZM140.329 59.5902V79H144.329V59.5902H140.329ZM142.329 77H90.5693V81H142.329V77ZM92.5693 79V1.36072H88.5693V79H92.5693ZM90.5693 3.36072H142.329V-0.639283H90.5693V3.36072ZM140.329 1.36072V20.7705H144.329V1.36072H140.329ZM142.329 18.7705H114.914V22.7705H142.329V18.7705ZM209.733 79L207.961 79.9277L208.522 81H209.733V79ZM195.148 51.1464L196.92 50.2186L196.358 49.1464H195.148V51.1464ZM195.038 51.1464V49.1464H193.038V51.1464H195.038ZM195.038 79V81H197.038V79H195.038ZM170.694 79H168.694V81H170.694V79ZM170.694 1.36072V-0.639283H168.694V1.36072H170.694ZM223.002 4.76017L222.096 6.54314L222.107 6.54908L222.119 6.55487L223.002 4.76017ZM232.981 13.862L231.24 14.8472L231.251 14.8667L231.263 14.8861L232.981 13.862ZM231.994 40.619L230.376 39.4427L230.369 39.4524L230.362 39.4621L231.994 40.619ZM219.602 49.2821L218.985 47.3797L216.651 48.1367L217.863 50.2703L219.602 49.2821ZM236.49 79V81H239.927L238.229 78.0119L236.49 79ZM195.038 34.9167H193.038V36.9167H195.038V34.9167ZM209.952 33.3814L211.269 34.8866L211.295 34.864L211.32 34.8405L209.952 33.3814ZM209.842 23.512L208.428 24.9262L208.45 24.9477L208.472 24.9684L209.842 23.512ZM195.038 21.7575V19.7575H193.038V21.7575H195.038ZM211.505 78.0723L196.92 50.2186L193.376 52.0741L207.961 79.9277L211.505 78.0723ZM195.148 49.1464H195.038V53.1464H195.148V49.1464ZM193.038 51.1464V79H197.038V51.1464H193.038ZM195.038 77H170.694V81H195.038V77ZM172.694 79V1.36072H168.694V79H172.694ZM170.694 3.36072H206.882V-0.639283H170.694V3.36072ZM206.882 3.36072C212.933 3.36072 217.98 4.45143 222.096 6.54314L223.908 2.9772C219.105 0.536304 213.405 -0.639283 206.882 -0.639283V3.36072ZM222.119 6.55487C226.261 8.59205 229.268 11.3625 231.24 14.8472L234.721 12.8768C232.307 8.61215 228.661 5.3147 223.884 2.96547L222.119 6.55487ZM231.263 14.8861C233.328 18.3503 234.38 22.3038 234.38 26.8018H238.38C238.38 21.6498 237.166 16.9767 234.699 12.8378L231.263 14.8861ZM234.38 26.8018C234.38 31.5896 233.041 35.7793 230.376 39.4427L233.611 41.7953C236.796 37.4169 238.38 32.3953 238.38 26.8018H234.38ZM230.362 39.4621C227.797 43.0794 224.051 45.7367 218.985 47.3797L220.219 51.1846C225.973 49.3184 230.488 46.2003 233.625 41.7759L230.362 39.4621ZM217.863 50.2703L234.751 79.9881L238.229 78.0119L221.341 48.294L217.863 50.2703ZM236.49 77H209.733V81H236.49V77ZM195.038 36.9167H204.688V32.9167H195.038V36.9167ZM204.688 36.9167C207.275 36.9167 209.589 36.3565 211.269 34.8866L208.635 31.8763C207.976 32.4533 206.78 32.9167 204.688 32.9167V36.9167ZM211.32 34.8405C213.037 33.2313 213.707 30.9227 213.707 28.3371H209.707C209.707 30.2841 209.207 31.3384 208.584 31.9224L211.32 34.8405ZM213.707 28.3371C213.707 25.8575 212.937 23.6777 211.213 22.0556L208.472 24.9684C209.234 25.6858 209.707 26.7227 209.707 28.3371H213.707ZM211.257 22.0978C209.59 20.4316 207.284 19.7575 204.688 19.7575V23.7575C206.625 23.7575 207.755 24.2531 208.428 24.9262L211.257 22.0978ZM204.688 19.7575H195.038V23.7575H204.688V19.7575ZM193.038 21.7575V34.9167H197.038V21.7575H193.038ZM341.536 1.36072L343.431 1.99799L344.318 -0.639283H341.536V1.36072ZM315.437 79V81H316.874L317.332 79.6373L315.437 79ZM283.964 79L282.068 79.6373L282.526 81H283.964V79ZM257.865 1.36072V-0.639283H255.083L255.969 1.99799L257.865 1.36072ZM283.745 1.36072L285.661 0.786382L285.233 -0.639283H283.745V1.36072ZM299.755 54.7651L297.839 55.3395L299.762 61.7517L301.672 55.3359L299.755 54.7651ZM315.656 1.36072V-0.639283H314.165L313.739 0.789995L315.656 1.36072ZM339.64 0.723444L313.541 78.3627L317.332 79.6373L343.431 1.99799L339.64 0.723444ZM315.437 77H283.964V81H315.437V77ZM285.86 78.3627L259.761 0.723444L255.969 1.99799L282.068 79.6373L285.86 78.3627ZM257.865 3.36072H283.745V-0.639283H257.865V3.36072ZM281.829 1.93505L297.839 55.3395L301.671 54.1908L285.661 0.786382L281.829 1.93505ZM301.672 55.3359L317.573 1.93144L313.739 0.789995L297.838 54.1944L301.672 55.3359ZM315.656 3.36072H341.536V-0.639283H315.656V3.36072ZM390.52 1.36072H392.52V-0.639283H390.52V1.36072ZM390.52 79V81H392.52V79H390.52ZM366.176 79H364.176V81H366.176V79ZM366.176 1.36072V-0.639283H364.176V1.36072H366.176ZM388.52 1.36072V79H392.52V1.36072H388.52ZM390.52 77H366.176V81H390.52V77ZM368.176 79V1.36072H364.176V79H368.176ZM366.176 3.36072H390.52V-0.639283H366.176V3.36072ZM423.118 19.5643L421.347 18.6355L421.343 18.644L421.338 18.6525L423.118 19.5643ZM436.497 5.63745L437.487 7.37529L437.495 7.37059L437.503 7.36581L436.497 5.63745ZM474.878 4.4312L474.004 6.22993L474.018 6.23719L474.033 6.2442L474.878 4.4312ZM487.818 15.0682L486.19 16.2307L486.196 16.2392L486.203 16.2476L487.818 15.0682ZM494.507 31.1882V33.1882H496.896L496.476 30.8367L494.507 31.1882ZM468.847 31.1882L467.028 32.0198L467.562 33.1882H468.847V31.1882ZM463.802 25.2666L462.667 26.913L462.699 26.9353L462.732 26.9562L463.802 25.2666ZM446.695 27.6791L445.123 26.4435L445.113 26.4552L445.104 26.467L446.695 27.6791ZM446.695 52.4623L445.104 53.6744L445.113 53.6862L445.123 53.6979L446.695 52.4623ZM463.802 54.9845L464.898 56.6574L464.905 56.653L464.912 56.6486L463.802 54.9845ZM468.847 48.9532V46.9532H467.562L467.028 48.1216L468.847 48.9532ZM494.507 48.9532L496.476 49.3047L496.896 46.9532H494.507V48.9532ZM487.818 65.0732L486.203 63.8938L486.196 63.9022L486.19 63.9107L487.818 65.0732ZM474.878 75.8199L475.732 77.6284L475.743 77.6233L474.878 75.8199ZM436.497 74.6136L435.491 76.3419L435.499 76.3467L435.507 76.3514L436.497 74.6136ZM423.118 60.5771L421.338 61.4889L421.343 61.4974L421.347 61.5059L423.118 60.5771ZM420.513 40.0707C420.513 32.667 421.992 26.1514 424.898 20.476L421.338 18.6525C418.104 24.9666 416.513 32.122 416.513 40.0707H420.513ZM424.89 20.4931C427.859 14.8306 432.05 10.4721 437.487 7.37529L435.507 3.89962C429.393 7.38246 424.665 12.3085 421.347 18.6355L424.89 20.4931ZM437.503 7.36581C442.925 4.20912 449.364 2.59309 456.894 2.59309V-1.40691C448.779 -1.40691 441.62 0.339979 435.491 3.9091L437.503 7.36581ZM456.894 2.59309C463.362 2.59309 469.05 3.82209 474.004 6.22993L475.752 2.63246C470.178 -0.0771686 463.877 -1.40691 456.894 -1.40691V2.59309ZM474.033 6.2442C479.071 8.59024 483.109 11.9172 486.19 16.2307L489.445 13.9057C485.947 9.00776 481.359 5.2434 475.722 2.6182L474.033 6.2442ZM486.203 16.2476C489.37 20.5855 491.49 25.6696 492.538 31.5398L496.476 30.8367C495.331 24.425 492.991 18.7624 489.433 13.8888L486.203 16.2476ZM494.507 29.1882H468.847V33.1882H494.507V29.1882ZM470.666 30.3567C469.349 27.4762 467.421 25.1908 464.872 23.577L462.732 26.9562C464.57 28.1204 466.005 29.7828 467.028 32.0198L470.666 30.3567ZM464.938 23.6202C462.457 21.9094 459.605 21.0734 456.455 21.0734V25.0734C458.861 25.0734 460.907 25.6995 462.667 26.913L464.938 23.6202ZM456.455 21.0734C451.782 21.0734 447.935 22.8639 445.123 26.4435L448.268 28.9148C450.28 26.3533 452.94 25.0734 456.455 25.0734V21.0734ZM445.104 26.467C442.421 29.9886 441.186 34.5919 441.186 40.0707H445.186C445.186 35.1683 446.29 31.5105 448.286 28.8912L445.104 26.467ZM441.186 40.0707C441.186 45.5495 442.421 50.1527 445.104 53.6744L448.286 51.2502C446.29 48.6308 445.186 44.9731 445.186 40.0707H441.186ZM445.123 53.6979C447.935 57.2775 451.782 59.068 456.455 59.068V55.068C452.94 55.068 450.28 53.7881 448.268 51.2266L445.123 53.6979ZM456.455 59.068C459.584 59.068 462.421 58.2802 464.898 56.6574L462.706 53.3115C460.943 54.4668 458.883 55.068 456.455 55.068V59.068ZM464.912 56.6486C467.435 54.9662 469.352 52.6577 470.666 49.7847L467.028 48.1216C466.002 50.366 464.556 52.0784 462.693 53.3204L464.912 56.6486ZM468.847 50.9532H494.507V46.9532H468.847V50.9532ZM492.538 48.6016C491.49 54.4718 489.37 59.5559 486.203 63.8938L489.433 66.2526C492.991 61.379 495.331 55.7164 496.476 49.3047L492.538 48.6016ZM486.19 63.9107C483.106 68.2291 479.06 71.5967 474.013 74.0164L475.743 77.6233C481.369 74.9256 485.95 71.1287 489.445 66.2357L486.19 63.9107ZM474.024 74.0114C469.066 76.3527 463.37 77.5483 456.894 77.5483V81.5483C463.869 81.5483 470.163 80.2583 475.732 77.6284L474.024 74.0114ZM456.894 77.5483C449.357 77.5483 442.911 75.9656 437.487 72.8758L435.507 76.3514C441.634 79.8412 448.786 81.5483 456.894 81.5483V77.5483ZM437.503 72.8852C432.057 69.7142 427.861 65.3144 424.89 59.6483L421.347 61.5059C424.663 67.8293 429.386 72.7872 435.491 76.3419L437.503 72.8852ZM424.898 59.6654C421.992 53.99 420.513 47.4744 420.513 40.0707H416.513C416.513 48.0194 418.104 55.1747 421.338 61.4889L424.898 59.6654ZM546.807 20.7705V18.7705H544.807V20.7705H546.807ZM546.807 30.311H544.807V32.311H546.807V30.311ZM570.932 30.311H572.932V28.311H570.932V30.311ZM570.932 48.6242V50.6242H572.932V48.6242H570.932ZM546.807 48.6242V46.6242H544.807V48.6242H546.807ZM546.807 59.5902H544.807V61.5902H546.807V59.5902ZM574.222 59.5902H576.222V57.5902H574.222V59.5902ZM574.222 79V81H576.222V79H574.222ZM522.463 79H520.463V81H522.463V79ZM522.463 1.36072V-0.639283H520.463V1.36072H522.463ZM574.222 1.36072H576.222V-0.639283H574.222V1.36072ZM574.222 20.7705V22.7705H576.222V20.7705H574.222ZM544.807 20.7705V30.311H548.807V20.7705H544.807ZM546.807 32.311H570.932V28.311H546.807V32.311ZM568.932 30.311V48.6242H572.932V30.311H568.932ZM570.932 46.6242H546.807V50.6242H570.932V46.6242ZM544.807 48.6242V59.5902H548.807V48.6242H544.807ZM546.807 61.5902H574.222V57.5902H546.807V61.5902ZM572.222 59.5902V79H576.222V59.5902H572.222ZM574.222 77H522.463V81H574.222V77ZM524.463 79V1.36072H520.463V79H524.463ZM522.463 3.36072H574.222V-0.639283H522.463V3.36072ZM572.222 1.36072V20.7705H576.222V1.36072H572.222ZM574.222 18.7705H546.807V22.7705H574.222V18.7705ZM609.934 73.2977L608.753 74.9117L608.765 74.9198L608.776 74.9278L609.934 73.2977ZM600.175 54.1072V52.1072H598.049L598.178 54.2287L600.175 54.1072ZM626.055 54.1072L628.048 53.9438L627.897 52.1072H626.055V54.1072ZM635.266 59.9192L636.375 61.5833L636.39 61.5735L636.404 61.5635L635.266 59.9192ZM633.731 52.5719L632.711 54.2925L632.735 54.3067L632.759 54.3203L633.731 52.5719ZM624.519 48.6242L623.854 50.5102L623.857 50.5114L624.519 48.6242ZM612.128 43.4702L611.201 45.2426L611.209 45.2469L611.217 45.251L612.128 43.4702ZM603.794 36.1229L605.411 34.9466L603.794 36.1229ZM600.394 23.7314L602.394 23.7603L602.394 23.7458V23.7314H600.394ZM604.232 10.9011L602.62 9.71697L602.616 9.72279L604.232 10.9011ZM614.869 2.78629L614.121 0.931379L614.111 0.935682L614.869 2.78629ZM652.702 6.62439L651.463 8.19419L651.473 8.202L652.702 6.62439ZM661.584 25.1569V27.1569H663.659L663.583 25.0836L661.584 25.1569ZM635.376 25.1569L633.377 25.2236L633.441 27.1569H635.376V25.1569ZM627.48 20.1126L628.894 21.5268L628.931 21.4896L628.967 21.4505L627.48 20.1126ZM629.344 27.3501L628.296 29.0535L628.334 29.0768L628.373 29.0985L629.344 27.3501ZM638.665 31.4076L637.956 33.2776L637.966 33.2814L638.665 31.4076ZM650.728 36.6712L649.785 38.4348L649.793 38.4393L649.802 38.4437L650.728 36.6712ZM659.062 43.6895L657.486 44.92L659.062 43.6895ZM659.062 67.8147L660.756 68.8777L660.761 68.8703L660.765 68.8629L659.062 67.8147ZM648.864 76.5875L648.005 74.7812L648.864 76.5875ZM632.963 77.7676C623.99 77.7676 616.747 75.6865 611.093 71.6676L608.776 74.9278C615.258 79.5355 623.367 81.7676 632.963 81.7676V77.7676ZM611.115 71.6836C605.669 67.6983 602.652 61.8883 602.171 53.9857L598.178 54.2287C598.721 63.1406 602.211 70.1243 608.753 74.9117L611.115 71.6836ZM600.175 56.1072H626.055V52.1072H600.175V56.1072ZM624.061 54.2706C624.262 56.7255 624.926 58.8849 626.312 60.4498C627.755 62.0801 629.739 62.7964 631.976 62.7964V58.7964C630.631 58.7964 629.837 58.3979 629.307 57.7984C628.718 57.1336 628.212 55.9483 628.048 53.9438L624.061 54.2706ZM631.976 62.7964C633.589 62.7964 635.096 62.4359 636.375 61.5833L634.157 58.2551C633.681 58.5721 632.995 58.7964 631.976 58.7964V62.7964ZM636.404 61.5635C637.976 60.4758 638.692 58.8252 638.692 56.9583H634.692C634.692 57.7233 634.457 58.0466 634.128 58.2748L636.404 61.5635ZM638.692 56.9583C638.692 54.223 637.135 52.1751 634.702 50.8236L632.759 54.3203C634.274 55.162 634.692 56.0383 634.692 56.9583H638.692ZM634.75 50.8514C632.602 49.5785 629.381 48.2106 625.181 46.737L623.857 50.5114C627.992 51.9621 630.911 53.226 632.711 54.2925L634.75 50.8514ZM625.185 46.7382C620.265 45.0019 616.223 43.3173 613.038 41.6893L611.217 45.251C614.612 46.9859 618.831 48.7374 623.854 50.5102L625.185 46.7382ZM613.054 41.6977C610.136 40.1723 607.587 37.9383 605.411 34.9466L602.176 37.2993C604.679 40.741 607.686 43.4051 611.201 45.2426L613.054 41.6977ZM605.411 34.9466C603.387 32.164 602.325 28.4894 602.394 23.7603L598.394 23.7024C598.317 29.062 599.521 33.6485 602.176 37.2993L605.411 34.9466ZM602.394 23.7314C602.394 19.0397 603.578 15.1933 605.848 12.0795L602.616 9.72279C599.769 13.6272 598.394 18.3343 598.394 23.7314H602.394ZM605.844 12.0853C608.24 8.8243 611.479 6.33728 615.628 4.6369L614.111 0.935682C609.341 2.89064 605.488 5.81352 602.62 9.71698L605.844 12.0853ZM615.617 4.64118C619.879 2.92278 624.701 2.04479 630.112 2.04479V-1.95521C624.265 -1.95521 618.925 -1.00552 614.121 0.931408L615.617 4.64118ZM630.112 2.04479C639.32 2.04479 646.364 4.16863 651.463 8.19416L653.941 5.05463C647.928 0.30736 639.912 -1.95521 630.112 -1.95521V2.04479ZM651.473 8.202C656.577 12.1798 659.312 17.7741 659.586 25.2303L663.583 25.0836C663.272 16.6025 660.085 9.84176 653.931 5.04679L651.473 8.202ZM661.584 23.1569H635.376V27.1569H661.584V23.1569ZM637.374 25.0903C637.293 22.6598 636.679 20.45 635.092 18.976L632.37 21.9071C632.829 22.3339 633.312 23.2677 633.377 25.2236L637.374 25.0903ZM635.092 18.976C633.68 17.6648 631.943 17.016 630.002 17.016V21.016C630.986 21.016 631.735 21.3176 632.37 21.9071L635.092 18.976ZM630.002 17.016C628.438 17.016 627.048 17.6031 625.993 18.7747L628.967 21.4505C629.228 21.1599 629.52 21.016 630.002 21.016V17.016ZM626.066 18.6984C624.92 19.844 624.493 21.3743 624.493 22.9637H628.493C628.493 22.0675 628.724 21.6971 628.894 21.5268L626.066 18.6984ZM624.493 22.9637C624.493 25.6045 625.988 27.633 628.296 29.0535L630.392 25.6468C628.899 24.7278 628.493 23.832 628.493 22.9637H624.493ZM628.373 29.0985C630.478 30.2681 633.697 31.6619 637.956 33.2775L639.375 29.5376C635.154 27.9365 632.158 26.6254 630.316 25.6018L628.373 29.0985ZM637.966 33.2814C642.815 35.0908 646.747 36.81 649.785 38.4348L651.671 34.9077C648.422 33.1696 644.312 31.3797 639.365 29.5338L637.966 33.2814ZM649.802 38.4437C652.753 39.9867 655.313 42.1367 657.486 44.92L660.639 42.4589C658.132 39.2476 655.136 36.7187 651.654 34.8988L649.802 38.4437ZM657.486 44.92C659.501 47.5018 660.571 50.809 660.571 54.9845H664.571C664.571 50.0946 663.303 45.8719 660.639 42.4589L657.486 44.92ZM660.571 54.9845C660.571 59.3912 659.492 63.3007 657.359 66.7665L660.765 68.8629C663.312 64.7255 664.571 60.0816 664.571 54.9845H660.571ZM657.368 66.7517C655.255 70.1198 652.164 72.8039 648.005 74.7812L649.722 78.3937C654.482 76.1309 658.191 72.9664 660.756 68.8777L657.368 66.7517ZM648.005 74.7812C643.871 76.7466 638.878 77.7676 632.963 77.7676V81.7676C639.331 81.7676 644.938 80.6686 649.722 78.3937L648.005 74.7812Z" fill="#6947EF"/>
</svg>
