<svg width="689" height="90" viewBox="0 0 689 90" fill="none" xmlns="http://www.w3.org/2000/svg">
<rect width="689" height="90" fill="black"/>
<path d="M23.1885 78.2977L22.0074 79.9117L22.0185 79.9198L22.0297 79.9278L23.1885 78.2977ZM13.4287 59.1072V57.1072H11.3033L11.4324 59.2287L13.4287 59.1072ZM39.3085 59.1072L41.3018 58.9438L41.1513 57.1072H39.3085V59.1072ZM48.5199 64.9192L49.6293 66.5833L49.6439 66.5735L49.6583 66.5635L48.5199 64.9192ZM46.9847 57.5719L45.9651 59.2925L45.9891 59.3067L46.0134 59.3203L46.9847 57.5719ZM37.7732 53.6242L37.1076 55.5102L37.1111 55.5114L37.7732 53.6242ZM25.3817 48.4702L24.4552 50.2426L24.4633 50.2469L24.4714 50.251L25.3817 48.4702ZM17.0475 41.1229L18.665 39.9466L18.665 39.9466L17.0475 41.1229ZM13.648 28.7314L15.6478 28.7603L15.648 28.7458V28.7314H13.648ZM17.4861 15.9011L15.8744 14.717L15.8701 14.7228L17.4861 15.9011ZM28.1232 7.78629L27.3752 5.93138L27.3647 5.93568L28.1232 7.78629ZM65.9559 11.6244L64.7166 13.1942L64.7266 13.202L65.9559 11.6244ZM74.8383 30.1569V32.1569H76.9131L76.837 30.0836L74.8383 30.1569ZM48.6296 30.1569L46.6307 30.2236L46.6951 32.1569H48.6296V30.1569ZM40.7341 25.1126L42.1483 26.5268L42.1855 26.4896L42.2207 26.4505L40.7341 25.1126ZM42.5983 32.3501L41.5501 34.0535L41.588 34.0768L41.627 34.0985L42.5983 32.3501ZM51.9194 36.4076L51.2101 38.2776L51.2202 38.2814L51.9194 36.4076ZM63.982 41.6712L63.0387 43.4348L63.0471 43.4393L63.0555 43.4437L63.982 41.6712ZM72.3161 48.6895L70.7395 49.92L70.7395 49.92L72.3161 48.6895ZM72.3161 72.8147L74.0103 73.8777L74.0149 73.8703L74.0195 73.8629L72.3161 72.8147ZM62.1178 81.5875L61.2591 79.7812L62.1178 81.5875ZM46.2171 82.7676C37.2442 82.7676 30.0009 80.6865 24.3472 76.6676L22.0297 79.9278C28.5117 84.5355 36.6208 86.7676 46.2171 86.7676V82.7676ZM24.3695 76.6836C18.9229 72.6983 15.9061 66.8883 15.425 58.9857L11.4324 59.2287C11.9749 68.1406 15.4645 75.1243 22.0074 79.9117L24.3695 76.6836ZM13.4287 61.1072H39.3085V57.1072H13.4287V61.1072ZM37.3152 59.2706C37.5164 61.7255 38.1802 63.8849 39.5655 65.4498C41.0087 67.0801 42.9931 67.7964 45.2301 67.7964V63.7964C43.8849 63.7964 43.0913 63.3979 42.5606 62.7984C41.972 62.1336 41.4661 60.9483 41.3018 58.9438L37.3152 59.2706ZM45.2301 67.7964C46.8427 67.7964 48.3504 67.4359 49.6293 66.5833L47.4105 63.2551C46.9349 63.5721 46.2494 63.7964 45.2301 63.7964V67.7964ZM49.6583 66.5635C51.2295 65.4758 51.9455 63.8252 51.9455 61.9583H47.9455C47.9455 62.7233 47.7111 63.0466 47.3815 63.2748L49.6583 66.5635ZM51.9455 61.9583C51.9455 59.223 50.3887 57.1751 47.956 55.8236L46.0134 59.3203C47.5285 60.162 47.9455 61.0383 47.9455 61.9583H51.9455ZM48.0043 55.8514C45.8563 54.5785 42.6352 53.2106 38.4354 51.737L37.1111 55.5114C41.2455 56.9621 44.1653 58.226 45.9651 59.2925L48.0043 55.8514ZM38.4389 51.7382C33.5192 50.0018 29.4771 48.3173 26.2919 46.6893L24.4714 50.251C27.8658 51.9859 32.0847 53.7374 37.1076 55.5102L38.4389 51.7382ZM26.3082 46.6977C23.3901 45.1723 20.8407 42.9383 18.665 39.9466L15.43 42.2993C17.9331 45.741 20.9399 48.4051 24.4552 50.2426L26.3082 46.6977ZM18.665 39.9466C16.6413 37.164 15.5793 33.4894 15.6478 28.7603L11.6483 28.7024C11.5706 34.062 12.7749 38.6485 15.43 42.2993L18.665 39.9466ZM15.648 28.7314C15.648 24.0397 16.8317 20.1933 19.1022 17.0795L15.8701 14.7228C13.0231 18.6272 11.648 23.3343 11.648 28.7314H15.648ZM19.0979 17.0853C21.4937 13.8243 24.7327 11.3373 28.8816 9.6369L27.3647 5.93568C22.5946 7.89064 18.7422 10.8135 15.8744 14.717L19.0979 17.0853ZM28.8711 9.64117C33.1327 7.92278 37.9545 7.04479 43.3659 7.04479V3.04479C37.5189 3.04479 32.1788 3.99448 27.3752 5.93141L28.8711 9.64117ZM43.3659 7.04479C52.5736 7.04479 59.6176 9.16863 64.7166 13.1942L67.1952 10.0546C61.182 5.30736 53.1659 3.04479 43.3659 3.04479V7.04479ZM64.7266 13.202C69.8315 17.1798 72.5661 22.7741 72.8397 30.2303L76.837 30.0836C76.5258 21.6025 73.3387 14.8418 67.1852 10.0468L64.7266 13.202ZM74.8383 28.1569H48.6296V32.1569H74.8383V28.1569ZM50.6285 30.0903C50.5475 27.6598 49.933 25.45 48.3456 23.976L45.6238 26.9071C46.0834 27.3339 46.5655 28.2677 46.6307 30.2236L50.6285 30.0903ZM48.3456 23.976C46.9335 22.6648 45.1972 22.016 43.2562 22.016V26.016C44.2396 26.016 44.9889 26.3176 45.6238 26.9071L48.3456 23.976ZM43.2562 22.016C41.6919 22.016 40.3019 22.6031 39.2475 23.7747L42.2207 26.4505C42.4822 26.1599 42.7736 26.016 43.2562 26.016V22.016ZM39.3199 23.6984C38.1743 24.844 37.7471 26.3743 37.7471 27.9637H41.7471C41.7471 27.0675 41.978 26.6971 42.1483 26.5268L39.3199 23.6984ZM37.7471 27.9637C37.7471 30.6045 39.2419 32.633 41.5501 34.0535L43.6465 30.6468C42.1531 29.7278 41.7471 28.832 41.7471 27.9637H37.7471ZM41.627 34.0985C43.7324 35.2681 46.9506 36.6619 51.2101 38.2776L52.6287 34.5376C48.4078 32.9365 45.412 31.6254 43.5696 30.6018L41.627 34.0985ZM51.2202 38.2814C56.0694 40.0908 60.001 41.81 63.0387 43.4348L64.9253 39.9077C61.6758 38.1696 57.5657 36.3797 52.6186 34.5338L51.2202 38.2814ZM63.0555 43.4437C66.0073 44.9867 68.5671 47.1367 70.7395 49.92L73.8928 47.4589C71.3863 44.2476 68.3901 41.7187 64.9085 39.8988L63.0555 43.4437ZM70.7395 49.92C72.7546 52.5018 73.8253 55.809 73.8253 59.9845H77.8253C77.8253 55.0946 76.5565 50.8719 73.8928 47.4589L70.7395 49.92ZM73.8253 59.9845C73.8253 64.3912 72.7456 68.3007 70.6128 71.7665L74.0195 73.8629C76.5655 69.7255 77.8253 65.0816 77.8253 59.9845H73.8253ZM70.622 71.7517C68.5087 75.1198 65.4182 77.8039 61.2591 79.7812L62.9765 83.3937C67.7363 81.1309 71.4448 77.9664 74.0103 73.8777L70.622 71.7517ZM61.2591 79.7812C57.125 81.7466 52.1315 82.7676 46.2171 82.7676V86.7676C52.5845 86.7676 58.1915 85.6686 62.9765 83.3937L61.2591 79.7812ZM127.914 25.7705V23.7705H125.914V25.7705H127.914ZM127.914 35.311H125.914V37.311H127.914V35.311ZM152.039 35.311H154.039V33.311H152.039V35.311ZM152.039 53.6242V55.6242H154.039V53.6242H152.039ZM127.914 53.6242V51.6242H125.914V53.6242H127.914ZM127.914 64.5902H125.914V66.5902H127.914V64.5902ZM155.329 64.5902H157.329V62.5902H155.329V64.5902ZM155.329 84V86H157.329V84H155.329ZM103.569 84H101.569V86H103.569V84ZM103.569 6.36072V4.36072H101.569V6.36072H103.569ZM155.329 6.36072H157.329V4.36072H155.329V6.36072ZM155.329 25.7705V27.7705H157.329V25.7705H155.329ZM125.914 25.7705V35.311H129.914V25.7705H125.914ZM127.914 37.311H152.039V33.311H127.914V37.311ZM150.039 35.311V53.6242H154.039V35.311H150.039ZM152.039 51.6242H127.914V55.6242H152.039V51.6242ZM125.914 53.6242V64.5902H129.914V53.6242H125.914ZM127.914 66.5902H155.329V62.5902H127.914V66.5902ZM153.329 64.5902V84H157.329V64.5902H153.329ZM155.329 82H103.569V86H155.329V82ZM105.569 84V6.36072H101.569V84H105.569ZM103.569 8.36072H155.329V4.36072H103.569V8.36072ZM153.329 6.36072V25.7705H157.329V6.36072H153.329ZM155.329 23.7705H127.914V27.7705H155.329V23.7705ZM222.733 84L220.961 84.9278L221.522 86H222.733V84ZM208.148 56.1464L209.92 55.2186L209.358 54.1464H208.148V56.1464ZM208.038 56.1464V54.1464H206.038V56.1464H208.038ZM208.038 84V86H210.038V84H208.038ZM183.694 84H181.694V86H183.694V84ZM183.694 6.36072V4.36072H181.694V6.36072H183.694ZM236.002 9.76017L235.096 11.5431L235.107 11.5491L235.119 11.5549L236.002 9.76017ZM245.981 18.862L244.24 19.8472L244.251 19.8667L244.263 19.8861L245.981 18.862ZM244.994 45.619L243.376 44.4427L243.369 44.4524L243.362 44.4621L244.994 45.619ZM232.602 54.2821L231.985 52.3797L229.651 53.1367L230.863 55.2703L232.602 54.2821ZM249.49 84V86H252.927L251.229 83.0119L249.49 84ZM208.038 39.9167H206.038V41.9167H208.038V39.9167ZM222.952 38.3814L224.269 39.8866L224.295 39.864L224.32 39.8405L222.952 38.3814ZM222.842 28.512L221.428 29.9262L221.45 29.9477L221.472 29.9684L222.842 28.512ZM208.038 26.7575V24.7575H206.038V26.7575H208.038ZM224.505 83.0722L209.92 55.2186L206.376 57.0741L220.961 84.9278L224.505 83.0722ZM208.148 54.1464H208.038V58.1464H208.148V54.1464ZM206.038 56.1464V84H210.038V56.1464H206.038ZM208.038 82H183.694V86H208.038V82ZM185.694 84V6.36072H181.694V84H185.694ZM183.694 8.36072H219.882V4.36072H183.694V8.36072ZM219.882 8.36072C225.933 8.36072 230.98 9.45143 235.096 11.5431L236.908 7.9772C232.105 5.5363 226.405 4.36072 219.882 4.36072V8.36072ZM235.119 11.5549C239.261 13.5921 242.268 16.3625 244.24 19.8472L247.721 17.8768C245.307 13.6121 241.661 10.3147 236.884 7.96547L235.119 11.5549ZM244.263 19.8861C246.328 23.3503 247.38 27.3038 247.38 31.8018H251.38C251.38 26.6498 250.166 21.9767 247.699 17.8378L244.263 19.8861ZM247.38 31.8018C247.38 36.5896 246.041 40.7793 243.376 44.4427L246.611 46.7953C249.796 42.4169 251.38 37.3953 251.38 31.8018H247.38ZM243.362 44.4621C240.797 48.0794 237.051 50.7367 231.985 52.3797L233.219 56.1846C238.973 54.3184 243.488 51.2003 246.625 46.7759L243.362 44.4621ZM230.863 55.2703L247.751 84.9881L251.229 83.0119L234.341 53.294L230.863 55.2703ZM249.49 82H222.733V86H249.49V82ZM208.038 41.9167H217.688V37.9167H208.038V41.9167ZM217.688 41.9167C220.275 41.9167 222.589 41.3565 224.269 39.8866L221.635 36.8763C220.976 37.4533 219.78 37.9167 217.688 37.9167V41.9167ZM224.32 39.8405C226.037 38.2313 226.707 35.9227 226.707 33.3371H222.707C222.707 35.2841 222.207 36.3384 221.584 36.9224L224.32 39.8405ZM226.707 33.3371C226.707 30.8575 225.937 28.6777 224.213 27.0556L221.472 29.9684C222.234 30.6858 222.707 31.7227 222.707 33.3371H226.707ZM224.257 27.0978C222.59 25.4316 220.284 24.7575 217.688 24.7575V28.7575C219.625 28.7575 220.755 29.2531 221.428 29.9262L224.257 27.0978ZM217.688 24.7575H208.038V28.7575H217.688V24.7575ZM206.038 26.7575V39.9167H210.038V26.7575H206.038ZM354.536 6.36072L356.431 6.99799L357.318 4.36072H354.536V6.36072ZM328.437 84V86H329.874L330.332 84.6373L328.437 84ZM296.964 84L295.068 84.6373L295.526 86H296.964V84ZM270.865 6.36072V4.36072H268.083L268.969 6.99799L270.865 6.36072ZM296.745 6.36072L298.661 5.78638L298.233 4.36072H296.745V6.36072ZM312.755 59.7651L310.839 60.3395L312.762 66.7517L314.672 60.3359L312.755 59.7651ZM328.656 6.36072V4.36072H327.165L326.739 5.78999L328.656 6.36072ZM352.64 5.72344L326.541 83.3627L330.332 84.6373L356.431 6.99799L352.64 5.72344ZM328.437 82H296.964V86H328.437V82ZM298.86 83.3627L272.761 5.72344L268.969 6.99799L295.068 84.6373L298.86 83.3627ZM270.865 8.36072H296.745V4.36072H270.865V8.36072ZM294.829 6.93505L310.839 60.3395L314.671 59.1908L298.661 5.78638L294.829 6.93505ZM314.672 60.3359L330.573 6.93144L326.739 5.78999L310.838 59.1944L314.672 60.3359ZM328.656 8.36072H354.536V4.36072H328.656V8.36072ZM403.52 6.36072H405.52V4.36072H403.52V6.36072ZM403.52 84V86H405.52V84H403.52ZM379.176 84H377.176V86H379.176V84ZM379.176 6.36072V4.36072H377.176V6.36072H379.176ZM401.52 6.36072V84H405.52V6.36072H401.52ZM403.52 82H379.176V86H403.52V82ZM381.176 84V6.36072H377.176V84H381.176ZM379.176 8.36072H403.52V4.36072H379.176V8.36072ZM436.118 24.5643L434.347 23.6355L434.343 23.644L434.338 23.6525L436.118 24.5643ZM449.497 10.6375L450.487 12.3753L450.495 12.3706L450.503 12.3658L449.497 10.6375ZM487.878 9.4312L487.003 11.2299L487.018 11.2372L487.033 11.2442L487.878 9.4312ZM500.818 20.0682L499.19 21.2307L499.196 21.2392L499.203 21.2476L500.818 20.0682ZM507.507 36.1882V38.1882H509.896L509.476 35.8367L507.507 36.1882ZM481.847 36.1882L480.028 37.0198L480.562 38.1882H481.847V36.1882ZM476.802 30.2666L475.667 31.913L475.699 31.9353L475.732 31.9562L476.802 30.2666ZM459.695 32.6791L458.123 31.4435L458.113 31.4552L458.104 31.467L459.695 32.6791ZM459.695 57.4623L458.104 58.6744L458.113 58.6862L458.123 58.6979L459.695 57.4623ZM476.802 59.9845L477.898 61.6574L477.905 61.653L477.912 61.6486L476.802 59.9845ZM481.847 53.9532V51.9532H480.562L480.028 53.1216L481.847 53.9532ZM507.507 53.9532L509.476 54.3047L509.896 51.9532H507.507V53.9532ZM500.818 70.0732L499.203 68.8938L499.196 68.9022L499.19 68.9107L500.818 70.0732ZM487.878 80.8199L488.732 82.6284L488.743 82.6233L487.878 80.8199ZM449.497 79.6136L448.49 81.342L448.499 81.3467L448.507 81.3514L449.497 79.6136ZM436.118 65.5771L434.338 66.4889L434.343 66.4974L434.347 66.5059L436.118 65.5771ZM433.513 45.0707C433.513 37.6669 434.992 31.1514 437.898 25.476L434.338 23.6525C431.104 29.9666 429.513 37.122 429.513 45.0707H433.513ZM437.89 25.4931C440.859 19.8306 445.05 15.4721 450.487 12.3753L448.507 8.89962C442.393 12.3825 437.665 17.3085 434.347 23.6355L437.89 25.4931ZM450.503 12.3658C455.925 9.20912 462.364 7.59309 469.894 7.59309V3.59309C461.778 3.59309 454.62 5.33998 448.49 8.9091L450.503 12.3658ZM469.894 7.59309C476.362 7.59309 482.05 8.82209 487.003 11.2299L488.752 7.63246C483.178 4.92283 476.877 3.59309 469.894 3.59309V7.59309ZM487.033 11.2442C492.071 13.5902 496.109 16.9172 499.19 21.2307L502.445 18.9057C498.947 14.0078 494.359 10.2434 488.722 7.6182L487.033 11.2442ZM499.203 21.2476C502.37 25.5855 504.49 30.6696 505.538 36.5398L509.476 35.8367C508.331 29.425 505.991 23.7624 502.433 18.8888L499.203 21.2476ZM507.507 34.1882H481.847V38.1882H507.507V34.1882ZM483.666 35.3567C482.349 32.4762 480.421 30.1908 477.872 28.577L475.732 31.9562C477.57 33.1204 479.005 34.7828 480.028 37.0198L483.666 35.3567ZM477.938 28.6202C475.457 26.9094 472.605 26.0734 469.455 26.0734V30.0734C471.861 30.0734 473.907 30.6995 475.667 31.913L477.938 28.6202ZM469.455 26.0734C464.782 26.0734 460.935 27.8639 458.123 31.4435L461.268 33.9148C463.28 31.3533 465.94 30.0734 469.455 30.0734V26.0734ZM458.104 31.467C455.421 34.9886 454.186 39.5919 454.186 45.0707H458.186C458.186 40.1683 459.29 36.5105 461.286 33.8912L458.104 31.467ZM454.186 45.0707C454.186 50.5495 455.421 55.1527 458.104 58.6744L461.286 56.2502C459.29 53.6308 458.186 49.9731 458.186 45.0707H454.186ZM458.123 58.6979C460.935 62.2775 464.782 64.068 469.455 64.068V60.068C465.94 60.068 463.28 58.7881 461.268 56.2266L458.123 58.6979ZM469.455 64.068C472.584 64.068 475.421 63.2802 477.898 61.6574L475.706 58.3115C473.943 59.4668 471.883 60.068 469.455 60.068V64.068ZM477.912 61.6486C480.435 59.9662 482.352 57.6578 483.666 54.7847L480.028 53.1216C479.002 55.366 477.556 57.0784 475.693 58.3204L477.912 61.6486ZM481.847 55.9532H507.507V51.9532H481.847V55.9532ZM505.538 53.6016C504.49 59.4718 502.37 64.5559 499.203 68.8938L502.433 71.2526C505.991 66.379 508.331 60.7164 509.476 54.3047L505.538 53.6016ZM499.19 68.9107C496.106 73.2291 492.06 76.5967 487.013 79.0164L488.743 82.6233C494.369 79.9256 498.95 76.1287 502.445 71.2357L499.19 68.9107ZM487.024 79.0114C482.066 81.3527 476.37 82.5483 469.894 82.5483V86.5483C476.869 86.5483 483.163 85.2583 488.732 82.6284L487.024 79.0114ZM469.894 82.5483C462.357 82.5483 455.911 80.9656 450.487 77.8758L448.507 81.3514C454.634 84.8412 461.786 86.5483 469.894 86.5483V82.5483ZM450.503 77.8852C445.057 74.7142 440.861 70.3144 437.89 64.6483L434.347 66.5059C437.663 72.8293 442.386 77.7872 448.49 81.342L450.503 77.8852ZM437.898 64.6654C434.992 58.99 433.513 52.4744 433.513 45.0707H429.513C429.513 53.0194 431.104 60.1747 434.338 66.4889L437.898 64.6654ZM559.807 25.7705V23.7705H557.807V25.7705H559.807ZM559.807 35.311H557.807V37.311H559.807V35.311ZM583.932 35.311H585.932V33.311H583.932V35.311ZM583.932 53.6242V55.6242H585.932V53.6242H583.932ZM559.807 53.6242V51.6242H557.807V53.6242H559.807ZM559.807 64.5902H557.807V66.5902H559.807V64.5902ZM587.222 64.5902H589.222V62.5902H587.222V64.5902ZM587.222 84V86H589.222V84H587.222ZM535.463 84H533.463V86H535.463V84ZM535.463 6.36072V4.36072H533.463V6.36072H535.463ZM587.222 6.36072H589.222V4.36072H587.222V6.36072ZM587.222 25.7705V27.7705H589.222V25.7705H587.222ZM557.807 25.7705V35.311H561.807V25.7705H557.807ZM559.807 37.311H583.932V33.311H559.807V37.311ZM581.932 35.311V53.6242H585.932V35.311H581.932ZM583.932 51.6242H559.807V55.6242H583.932V51.6242ZM557.807 53.6242V64.5902H561.807V53.6242H557.807ZM559.807 66.5902H587.222V62.5902H559.807V66.5902ZM585.222 64.5902V84H589.222V64.5902H585.222ZM587.222 82H535.463V86H587.222V82ZM537.463 84V6.36072H533.463V84H537.463ZM535.463 8.36072H587.222V4.36072H535.463V8.36072ZM585.222 6.36072V25.7705H589.222V6.36072H585.222ZM587.222 23.7705H559.807V27.7705H587.222V23.7705ZM622.934 78.2977L621.753 79.9117L621.765 79.9198L621.776 79.9278L622.934 78.2977ZM613.175 59.1072V57.1072H611.049L611.178 59.2287L613.175 59.1072ZM639.054 59.1072L641.048 58.9438L640.897 57.1072H639.054V59.1072ZM648.266 64.9192L649.375 66.5833L649.39 66.5735L649.404 66.5635L648.266 64.9192ZM646.731 57.5719L645.711 59.2925L645.735 59.3067L645.759 59.3203L646.731 57.5719ZM637.519 53.6242L636.854 55.5102L636.857 55.5114L637.519 53.6242ZM625.128 48.4702L624.201 50.2426L624.209 50.2469L624.217 50.251L625.128 48.4702ZM616.794 41.1229L618.411 39.9466L618.411 39.9466L616.794 41.1229ZM613.394 28.7314L615.394 28.7603L615.394 28.7458V28.7314H613.394ZM617.232 15.9011L615.62 14.717L615.616 14.7228L617.232 15.9011ZM627.869 7.78629L627.121 5.93138L627.111 5.93568L627.869 7.78629ZM665.702 11.6244L664.463 13.1942L664.473 13.202L665.702 11.6244ZM674.584 30.1569V32.1569H676.659L676.583 30.0836L674.584 30.1569ZM648.376 30.1569L646.377 30.2236L646.441 32.1569H648.376V30.1569ZM640.48 25.1126L641.894 26.5268L641.931 26.4896L641.967 26.4505L640.48 25.1126ZM642.344 32.3501L641.296 34.0535L641.334 34.0768L641.373 34.0985L642.344 32.3501ZM651.665 36.4076L650.956 38.2776L650.966 38.2814L651.665 36.4076ZM663.728 41.6712L662.785 43.4348L662.793 43.4393L662.801 43.4437L663.728 41.6712ZM672.062 48.6895L670.486 49.92L670.486 49.92L672.062 48.6895ZM672.062 72.8147L673.756 73.8777L673.761 73.8703L673.765 73.8629L672.062 72.8147ZM661.864 81.5875L661.005 79.7812L661.864 81.5875ZM645.963 82.7676C636.99 82.7676 629.747 80.6865 624.093 76.6676L621.776 79.9278C628.258 84.5355 636.367 86.7676 645.963 86.7676V82.7676ZM624.115 76.6836C618.669 72.6983 615.652 66.8883 615.171 58.9857L611.178 59.2287C611.721 68.1406 615.211 75.1243 621.753 79.9117L624.115 76.6836ZM613.175 61.1072H639.054V57.1072H613.175V61.1072ZM637.061 59.2706C637.262 61.7255 637.926 63.8849 639.312 65.4498C640.755 67.0801 642.739 67.7964 644.976 67.7964V63.7964C643.631 63.7964 642.837 63.3979 642.307 62.7984C641.718 62.1336 641.212 60.9483 641.048 58.9438L637.061 59.2706ZM644.976 67.7964C646.589 67.7964 648.096 67.4359 649.375 66.5833L647.157 63.2551C646.681 63.5721 645.995 63.7964 644.976 63.7964V67.7964ZM649.404 66.5635C650.976 65.4758 651.692 63.8252 651.692 61.9583H647.692C647.692 62.7233 647.457 63.0466 647.128 63.2748L649.404 66.5635ZM651.692 61.9583C651.692 59.223 650.135 57.1751 647.702 55.8236L645.759 59.3203C647.274 60.162 647.692 61.0383 647.692 61.9583H651.692ZM647.75 55.8514C645.602 54.5785 642.381 53.2106 638.181 51.737L636.857 55.5114C640.991 56.9621 643.911 58.226 645.711 59.2925L647.75 55.8514ZM638.185 51.7382C633.265 50.0018 629.223 48.3173 626.038 46.6893L624.217 50.251C627.612 51.9859 631.831 53.7374 636.854 55.5102L638.185 51.7382ZM626.054 46.6977C623.136 45.1723 620.587 42.9383 618.411 39.9466L615.176 42.2993C617.679 45.741 620.686 48.4051 624.201 50.2426L626.054 46.6977ZM618.411 39.9466C616.387 37.164 615.325 33.4894 615.394 28.7603L611.394 28.7024C611.317 34.062 612.521 38.6485 615.176 42.2993L618.411 39.9466ZM615.394 28.7314C615.394 24.0397 616.578 20.1933 618.848 17.0795L615.616 14.7228C612.769 18.6272 611.394 23.3343 611.394 28.7314H615.394ZM618.844 17.0853C621.24 13.8243 624.479 11.3373 628.628 9.6369L627.111 5.93568C622.341 7.89064 618.488 10.8135 615.62 14.717L618.844 17.0853ZM628.617 9.64117C632.879 7.92278 637.701 7.04479 643.112 7.04479V3.04479C637.265 3.04479 631.925 3.99448 627.121 5.93141L628.617 9.64117ZM643.112 7.04479C652.32 7.04479 659.364 9.16863 664.463 13.1942L666.941 10.0546C660.928 5.30736 652.912 3.04479 643.112 3.04479V7.04479ZM664.473 13.202C669.577 17.1798 672.312 22.7741 672.586 30.2303L676.583 30.0836C676.272 21.6025 673.085 14.8418 666.931 10.0468L664.473 13.202ZM674.584 28.1569H648.376V32.1569H674.584V28.1569ZM650.374 30.0903C650.293 27.6598 649.679 25.45 648.092 23.976L645.37 26.9071C645.829 27.3339 646.312 28.2677 646.377 30.2236L650.374 30.0903ZM648.092 23.976C646.68 22.6648 644.943 22.016 643.002 22.016V26.016C643.986 26.016 644.735 26.3176 645.37 26.9071L648.092 23.976ZM643.002 22.016C641.438 22.016 640.048 22.6031 638.993 23.7747L641.967 26.4505C642.228 26.1599 642.52 26.016 643.002 26.016V22.016ZM639.066 23.6984C637.92 24.844 637.493 26.3743 637.493 27.9637H641.493C641.493 27.0675 641.724 26.6971 641.894 26.5268L639.066 23.6984ZM637.493 27.9637C637.493 30.6045 638.988 32.633 641.296 34.0535L643.392 30.6468C641.899 29.7278 641.493 28.832 641.493 27.9637H637.493ZM641.373 34.0985C643.478 35.2681 646.697 36.6619 650.956 38.2776L652.375 34.5376C648.154 32.9365 645.158 31.6254 643.316 30.6018L641.373 34.0985ZM650.966 38.2814C655.815 40.0908 659.747 41.81 662.785 43.4348L664.671 39.9077C661.422 38.1696 657.312 36.3797 652.365 34.5338L650.966 38.2814ZM662.801 43.4437C665.753 44.9867 668.313 47.1367 670.486 49.92L673.639 47.4589C671.132 44.2476 668.136 41.7187 664.655 39.8988L662.801 43.4437ZM670.486 49.92C672.501 52.5018 673.571 55.809 673.571 59.9845H677.571C677.571 55.0946 676.303 50.8719 673.639 47.4589L670.486 49.92ZM673.571 59.9845C673.571 64.3912 672.492 68.3007 670.359 71.7665L673.765 73.8629C676.312 69.7255 677.571 65.0816 677.571 59.9845H673.571ZM670.368 71.7517C668.255 75.1198 665.164 77.8039 661.005 79.7812L662.722 83.3937C667.482 81.1309 671.191 77.9664 673.756 73.8777L670.368 71.7517ZM661.005 79.7812C656.871 81.7466 651.878 82.7676 645.963 82.7676V86.7676C652.331 86.7676 657.937 85.6686 662.722 83.3937L661.005 79.7812Z" fill="#6947EF"/>
</svg>
