<svg width="362" height="31" viewBox="0 0 362 31" fill="none" xmlns="http://www.w3.org/2000/svg">
<path d="M27.815 0.59322L29.1474 1.28212L30.2791 -0.90678H27.815V0.59322ZM17.6357 20.2815L16.3032 19.5926L16.1357 19.9167V20.2815H17.6357ZM17.6357 30V31.5H19.1357V30H17.6357ZM10.4725 30H8.9725V31.5H10.4725V30ZM10.4725 20.2815H11.9725V19.9167L11.8049 19.5926L10.4725 20.2815ZM0.29323 0.59322V-0.90678H-2.17093L-1.03922 1.28212L0.29323 0.59322ZM8.41989 0.59322L9.78129 -0.0365421L9.37873 -0.90678H8.41989V0.59322ZM14.1169 12.9089L12.7555 13.5386L14.122 16.4925L15.4801 13.5348L14.1169 12.9089ZM19.7721 0.59322V-0.90678H18.8103L18.4089 -0.0327204L19.7721 0.59322ZM26.4825 -0.0956835L16.3032 19.5926L18.9681 20.9704L29.1474 1.28212L26.4825 -0.0956835ZM16.1357 20.2815V30H19.1357V20.2815H16.1357ZM17.6357 28.5H10.4725V31.5H17.6357V28.5ZM11.9725 30V20.2815H8.9725V30H11.9725ZM11.8049 19.5926L1.62568 -0.0956835L-1.03922 1.28212L9.14005 20.9704L11.8049 19.5926ZM0.29323 2.09322H8.41989V-0.90678H0.29323V2.09322ZM7.05849 1.22298L12.7555 13.5386L15.4783 12.2791L9.78129 -0.0365421L7.05849 1.22298ZM15.4801 13.5348L21.1352 1.21916L18.4089 -0.0327204L12.7538 12.2829L15.4801 13.5348ZM19.7721 2.09322H27.815V-0.90678H19.7721V2.09322ZM39.9169 28.3663L39.183 29.6745L39.1898 29.6783L39.9169 28.3663ZM34.4293 23.0044L33.1308 23.7553L33.1362 23.7646L33.1417 23.7738L34.4293 23.0044ZM34.4293 7.46318L33.1417 6.69371L33.1348 6.70541L34.4293 7.46318ZM39.9169 2.10126L39.1898 0.789262L39.183 0.793046L39.9169 2.10126ZM55.123 2.10126L54.3891 3.40949L54.3959 3.41324L55.123 2.10126ZM60.5687 7.46318L59.2672 8.20913L59.2742 8.22095L60.5687 7.46318ZM60.5687 23.0044L61.8632 23.7621L61.8672 23.7553L60.5687 23.0044ZM55.123 28.3663L55.8569 29.6745L55.123 28.3663ZM53.1542 21.4125L52.0451 20.4026L52.0402 20.408L52.0352 20.4135L53.1542 21.4125ZM53.1542 9.01311L52.0352 10.0121L52.0447 10.0227L52.0543 10.033L53.1542 9.01311ZM41.8439 8.97122L40.744 7.95131L40.7389 7.95674L40.7339 7.96221L41.8439 8.97122ZM41.8439 21.4544L40.7249 22.4535L40.7344 22.464L40.744 22.4743L41.8439 21.4544ZM47.5409 28.7932C45.0191 28.7932 42.7297 28.2102 40.644 27.0543L39.1898 29.6783C41.74 31.0916 44.5332 31.7932 47.5409 31.7932V28.7932ZM40.6508 27.0581C38.5931 25.9037 36.9532 24.3038 35.7169 22.2349L33.1417 23.7738C34.6422 26.2849 36.6608 28.2596 39.183 29.6745L40.6508 27.0581ZM35.7278 22.2534C34.5291 20.1807 33.9186 17.8459 33.9186 15.2128H30.9186C30.9186 18.3327 31.6486 21.1922 33.1308 23.7553L35.7278 22.2534ZM33.9186 15.2128C33.9186 12.5796 34.5291 10.2619 35.7238 8.22095L33.1348 6.70541C31.6486 9.24442 30.9186 12.0931 30.9186 15.2128H33.9186ZM35.7169 8.23261C36.9532 6.16372 38.5931 4.56381 40.6508 3.40947L39.183 0.793046C36.6608 2.20797 34.6422 4.18267 33.1417 6.69374L35.7169 8.23261ZM40.644 3.41324C42.7297 2.25736 45.0191 1.67432 47.5409 1.67432V-1.32568C44.5332 -1.32568 41.74 -0.62409 39.1898 0.789279L40.644 3.41324ZM47.5409 1.67432C50.0627 1.67432 52.3353 2.25732 54.3891 3.40947L55.8569 0.793045C53.3307 -0.624056 50.5485 -1.32568 47.5409 -1.32568V1.67432ZM54.3959 3.41324C56.4753 4.5657 58.0915 6.15768 59.2673 8.2091L61.8701 6.71726C60.4208 4.1887 58.4065 2.20608 55.8501 0.789279L54.3959 3.41324ZM59.2742 8.22095C60.4689 10.2619 61.0794 12.5796 61.0794 15.2128H64.0794C64.0794 12.0931 63.3495 9.24442 61.8632 6.70541L59.2742 8.22095ZM61.0794 15.2128C61.0794 17.8459 60.4689 20.1807 59.2702 22.2534L61.8672 23.7553C63.3494 21.1922 64.0794 18.3327 64.0794 15.2128H61.0794ZM59.2742 22.2466C58.0668 24.3091 56.4441 25.9053 54.3891 27.0581L55.8569 29.6745C58.3819 28.258 60.3896 26.2796 61.8632 23.7621L59.2742 22.2466ZM54.3891 27.0581C52.3353 28.2102 50.0627 28.7932 47.5409 28.7932V31.7932C50.5485 31.7932 53.3307 31.0916 55.8569 29.6745L54.3891 27.0581ZM47.5409 25.2584C50.2575 25.2584 52.5565 24.3341 54.2731 22.4116L52.0352 20.4135C50.9591 21.6188 49.516 22.2584 47.5409 22.2584V25.2584ZM54.2632 22.4225C55.9905 20.5259 56.7905 18.0714 56.7905 15.2128H53.7905C53.7905 17.4928 53.1663 19.1715 52.0451 20.4026L54.2632 22.4225ZM56.7905 15.2128C56.7905 12.3324 55.9935 9.86912 54.2541 7.9932L52.0543 10.033C53.1633 11.229 53.7905 12.8989 53.7905 15.2128H56.7905ZM54.2731 8.01408C52.5565 6.09155 50.2575 5.16727 47.5409 5.16727V8.16727C49.516 8.16727 50.9591 8.80688 52.0352 10.0121L54.2731 8.01408ZM47.5409 5.16727C44.811 5.16727 42.4912 6.06698 40.744 7.95131L42.9438 9.99113C44.045 8.80352 45.5233 8.16727 47.5409 8.16727V5.16727ZM40.7339 7.96221C39.0253 9.84171 38.2494 12.317 38.2494 15.2128H41.2494C41.2494 12.8585 41.8697 11.1727 42.9538 9.98023L40.7339 7.96221ZM38.2494 15.2128C38.2494 18.0869 39.0283 20.5532 40.7249 22.4535L42.9628 20.4554C41.8667 19.2279 41.2494 17.5332 41.2494 15.2128H38.2494ZM40.744 22.4743C42.4912 24.3587 44.811 25.2584 47.5409 25.2584V22.2584C45.5233 22.2584 44.045 21.6221 42.9438 20.4345L40.744 22.4743ZM76.5343 0.59322H78.0343V-0.90678H76.5343V0.59322ZM77.8329 22.2504L76.7245 23.261L77.8329 22.2504ZM85.4988 22.2504L86.5911 23.2784L85.4988 22.2504ZM86.8393 0.59322V-0.90678H85.3393V0.59322H86.8393ZM94.0025 0.59322H95.5025V-0.90678H94.0025V0.59322ZM92.3269 24.8056L93.6044 25.5918L92.3269 24.8056ZM87.8027 28.9109L87.1478 27.5614L87.14 27.5652L87.8027 28.9109ZM75.2776 28.9527L74.5986 30.2903L74.6109 30.2965L74.6232 30.3025L75.2776 28.9527ZM70.963 24.8475L69.663 25.596L69.668 25.6046L70.963 24.8475ZM69.3711 0.59322V-0.90678H67.8711V0.59322H69.3711ZM75.0343 0.59322V18.187H78.0343V0.59322H75.0343ZM75.0343 18.187C75.0343 20.181 75.5265 21.9471 76.7245 23.261L78.9414 21.2397C78.4079 20.6546 78.0343 19.7118 78.0343 18.187H75.0343ZM76.7245 23.261C77.9545 24.61 79.683 25.1746 81.6449 25.1746V22.1746C80.2556 22.1746 79.4428 21.7897 78.9414 21.2397L76.7245 23.261ZM81.6449 25.1746C83.6095 25.1746 85.3386 24.6092 86.5911 23.2784L84.4065 21.2223C83.8717 21.7906 83.0315 22.1746 81.6449 22.1746V25.1746ZM86.5911 23.2784C87.827 21.9653 88.3393 20.1924 88.3393 18.187H85.3393C85.3393 19.7004 84.9579 20.6364 84.4065 21.2223L86.5911 23.2784ZM88.3393 18.187V0.59322H85.3393V18.187H88.3393ZM86.8393 2.09322H94.0025V-0.90678H86.8393V2.09322ZM92.5025 0.59322V18.1451H95.5025V0.59322H92.5025ZM92.5025 18.1451C92.5025 20.5569 91.9906 22.49 91.0494 24.0195L93.6044 25.5918C94.8972 23.4909 95.5025 20.9836 95.5025 18.1451H92.5025ZM91.0494 24.0195C90.0804 25.594 88.7873 26.7658 87.1479 27.5614L88.4576 30.2603C90.6162 29.2128 92.3392 27.6477 93.6044 25.5918L91.0494 24.0195ZM87.14 27.5652C85.4971 28.3744 83.6332 28.7932 81.5192 28.7932V31.7932C84.0411 31.7932 86.3662 31.2905 88.4655 30.2565L87.14 27.5652ZM81.5192 28.7932C79.398 28.7932 77.5459 28.3855 75.932 27.603L74.6232 30.3025C76.6957 31.3073 79.0046 31.7932 81.5192 31.7932V28.7932ZM75.9567 27.6152C74.407 26.8285 73.1788 25.6658 72.2579 24.0905L69.668 25.6046C70.8695 27.6598 72.5178 29.2339 74.5986 30.2903L75.9567 27.6152ZM72.2629 24.0991C71.3602 22.5312 70.8711 20.5686 70.8711 18.1451H67.8711C67.8711 20.9719 68.4433 23.4775 69.663 25.596L72.2629 24.0991ZM70.8711 18.1451V0.59322H67.8711V18.1451H70.8711ZM69.3711 2.09322H76.5343V-0.90678H69.3711V2.09322ZM116.961 30L115.648 30.7238L116.075 31.5H116.961V30ZM110.846 18.8991L112.159 18.1753L111.732 17.3991H110.846V18.8991ZM109.128 18.8991V17.3991H107.628V18.8991H109.128ZM109.128 30V31.5H110.628V30H109.128ZM101.965 30H100.465V31.5H101.965V30ZM101.965 0.59322V-0.90678H100.465V0.59322H101.965ZM119.894 1.80803L119.223 3.1497L119.232 3.1542L119.894 1.80803ZM123.58 5.15923L122.276 5.90071L122.283 5.91181L123.58 5.15923ZM123.119 15.0872L121.906 14.2049L121.901 14.2122L121.896 14.2195L123.119 15.0872ZM118.26 18.3546L117.831 16.9173L116.004 17.4629L116.964 19.1098L118.26 18.3546ZM125.046 30V31.5H127.656L126.342 29.2448L125.046 30ZM109.128 13.8305H107.628V15.3305H109.128V13.8305ZM116.501 12.867L115.463 11.784L115.451 11.795L115.44 11.8063L116.501 12.867ZM116.501 7.50507L115.44 8.56573L115.451 8.57701L115.463 8.58805L116.501 7.50507ZM109.128 6.5416V5.0416H107.628V6.5416H109.128ZM118.275 29.2762L112.159 18.1753L109.532 19.623L115.648 30.7238L118.275 29.2762ZM110.846 17.3991H109.128V20.3991H110.846V17.3991ZM107.628 18.8991V30H110.628V18.8991H107.628ZM109.128 28.5H101.965V31.5H109.128V28.5ZM103.465 30V0.59322H100.465V30H103.465ZM101.965 2.09322H113.987V-0.90678H101.965V2.09322ZM113.987 2.09322C116.136 2.09322 117.861 2.46893 119.223 3.14967L120.565 0.466388C118.687 -0.47262 116.475 -0.90678 113.987 -0.90678V2.09322ZM119.232 3.1542C120.644 3.84803 121.632 4.76872 122.276 5.90068L124.884 4.41778C123.908 2.70122 122.439 1.38777 120.555 0.461856L119.232 3.1542ZM122.283 5.91181C122.95 7.0629 123.295 8.3639 123.295 9.85091H126.295C126.295 7.87501 125.83 6.04822 124.878 4.40665L122.283 5.91181ZM123.295 9.85091C123.295 11.4987 122.831 12.9332 121.906 14.2049L124.332 15.9694C125.642 14.1691 126.295 12.1128 126.295 9.85091H123.295ZM121.896 14.2195C121.036 15.4325 119.724 16.3518 117.831 16.9173L118.689 19.7918C121.097 19.0727 123.025 17.8138 124.343 15.9548L121.896 14.2195ZM116.964 19.1098L123.75 30.7552L126.342 29.2448L119.556 17.5994L116.964 19.1098ZM125.046 28.5H116.961V31.5H125.046V28.5ZM109.128 15.3305H113.568V12.3305H109.128V15.3305ZM113.568 15.3305C115.101 15.3305 116.533 14.9559 117.561 13.9277L115.44 11.8063C115.184 12.0627 114.661 12.3305 113.568 12.3305V15.3305ZM117.539 13.95C118.577 12.9544 119.006 11.6118 119.006 10.1441H116.006C116.006 11.0223 115.764 11.4949 115.463 11.784L117.539 13.95ZM119.006 10.1441C119.006 8.70768 118.563 7.40379 117.539 6.42209L115.463 8.58805C115.779 8.89098 116.006 9.34646 116.006 10.1441H119.006ZM117.561 6.44441C116.533 5.41618 115.101 5.0416 113.568 5.0416V8.0416C114.661 8.0416 115.184 8.30933 115.44 8.56573L117.561 6.44441ZM113.568 5.0416H109.128V8.0416H113.568V5.0416ZM107.628 6.5416V13.8305H110.628V6.5416H107.628ZM161.836 14.9196L161.41 13.4814L161.524 16.3867L161.836 14.9196ZM165.942 17.4749L164.754 18.3907L164.758 18.3967L164.763 18.4027L165.942 17.4749ZM164.894 27.8636L165.857 29.0144L165.858 29.0129L164.894 27.8636ZM144.033 30H142.533V31.5H144.033V30ZM144.033 0.59322V-0.90678H142.533V0.59322H144.033ZM164.266 2.64583L163.317 3.80766L163.327 3.81526L164.266 2.64583ZM165.439 12.5319L164.27 11.5914L164.263 11.6001L164.257 11.609L165.439 12.5319ZM151.196 12.49H149.696V13.99H151.196V12.49ZM158.569 11.736L159.519 12.8969L159.524 12.8924L158.569 11.736ZM158.569 7.12806L157.589 8.26329L157.601 8.27404L157.614 8.2845L158.569 7.12806ZM151.196 6.33215V4.83215H149.696V6.33215H151.196ZM159.239 23.4233L160.195 24.5797L160.2 24.5756L159.239 23.4233ZM159.197 18.6059L158.21 19.7348L158.221 19.7447L158.233 19.7545L159.197 18.6059ZM151.196 17.7262V16.2262H149.696V17.7262H151.196ZM151.196 24.2192H149.696V25.7192H151.196V24.2192ZM161.524 16.3867C162.89 16.6779 163.944 17.3408 164.754 18.3907L167.13 16.5591C165.872 14.9281 164.189 13.8874 162.149 13.4525L161.524 16.3867ZM164.763 18.4027C165.584 19.4452 165.992 20.6248 165.992 21.999H168.992C168.992 19.9661 168.366 18.1297 167.12 16.5471L164.763 18.4027ZM165.992 21.999C165.992 24.0571 165.29 25.5743 163.93 26.7143L165.858 29.0129C167.962 27.2486 168.992 24.856 168.992 21.999H165.992ZM163.932 26.7128C162.586 27.8383 160.585 28.5 157.731 28.5V31.5C161.021 31.5 163.796 30.7374 165.857 29.0144L163.932 26.7128ZM157.731 28.5H144.033V31.5H157.731V28.5ZM145.533 30V0.59322H142.533V30H145.533ZM144.033 2.09322H157.27V-0.90678H144.033V2.09322ZM157.27 2.09322C160.043 2.09322 161.996 2.72835 163.317 3.80763L165.215 1.48403C163.185 -0.173505 160.474 -0.90678 157.27 -0.90678V2.09322ZM163.327 3.81526C164.647 4.87575 165.321 6.28759 165.321 8.2172H168.321C168.321 5.45512 167.292 3.15272 165.205 1.4764L163.327 3.81526ZM165.321 8.2172C165.321 9.67008 164.941 10.7585 164.27 11.5914L166.608 13.4724C167.78 12.0152 168.321 10.2272 168.321 8.2172H165.321ZM164.257 11.609C163.571 12.4869 162.645 13.1156 161.41 13.4814L162.263 16.3578C164.044 15.8299 165.519 14.8668 166.621 13.4548L164.257 11.609ZM151.196 13.99H155.888V10.99H151.196V13.99ZM155.888 13.99C157.247 13.99 158.535 13.7023 159.519 12.8969L157.619 10.575C157.375 10.775 156.875 10.99 155.888 10.99V13.99ZM159.524 12.8924C160.583 12.0177 161.033 10.7828 161.033 9.43201H158.033C158.033 10.092 157.839 10.393 157.614 10.5795L159.524 12.8924ZM161.033 9.43201C161.033 8.08124 160.583 6.84634 159.524 5.97162L157.614 8.2845C157.839 8.471 158.033 8.77206 158.033 9.43201H161.033ZM159.549 5.99283C158.563 5.14128 157.264 4.83215 155.888 4.83215V7.83215C156.858 7.83215 157.346 8.05363 157.589 8.26329L159.549 5.99283ZM155.888 4.83215H151.196V7.83215H155.888V4.83215ZM149.696 6.33215V12.49H152.696V6.33215H149.696ZM156.475 25.7192C157.874 25.7192 159.187 25.4123 160.195 24.5797L158.284 22.2668C158.007 22.4955 157.477 22.7192 156.475 22.7192V25.7192ZM160.2 24.5756C161.276 23.6786 161.745 22.4231 161.745 21.0355H158.745C158.745 21.7146 158.543 22.0509 158.279 22.2709L160.2 24.5756ZM161.745 21.0355C161.745 19.6253 161.247 18.3688 160.162 17.4574L158.233 19.7545C158.544 20.0159 158.745 20.3792 158.745 21.0355H161.745ZM160.185 17.4771C159.159 16.5788 157.827 16.2262 156.391 16.2262V19.2262C157.356 19.2262 157.896 19.4601 158.21 19.7348L160.185 17.4771ZM156.391 16.2262H151.196V19.2262H156.391V16.2262ZM149.696 17.7262V24.2192H152.696V17.7262H149.696ZM151.196 25.7192H156.475V22.7192H151.196V25.7192ZM181.616 0.59322H183.116V-0.90678H181.616V0.59322ZM182.915 22.2504L181.806 23.261L182.915 22.2504ZM190.581 22.2504L191.673 23.2784L190.581 22.2504ZM191.921 0.59322V-0.90678H190.421V0.59322H191.921ZM199.084 0.59322H200.584V-0.90678H199.084V0.59322ZM197.409 24.8056L198.686 25.5918H198.686L197.409 24.8056ZM192.884 28.9109L192.23 27.5614L192.222 27.5652L192.884 28.9109ZM180.359 28.9527L179.68 30.2903L179.693 30.2965L179.705 30.3025L180.359 28.9527ZM176.045 24.8475L174.745 25.596L174.75 25.6046L176.045 24.8475ZM174.453 0.59322V-0.90678H172.953V0.59322H174.453ZM180.116 0.59322V18.187H183.116V0.59322H180.116ZM180.116 18.187C180.116 20.181 180.608 21.9471 181.806 23.261L184.023 21.2397C183.49 20.6546 183.116 19.7118 183.116 18.187H180.116ZM181.806 23.261C183.036 24.61 184.765 25.1746 186.727 25.1746V22.1746C185.337 22.1746 184.525 21.7897 184.023 21.2397L181.806 23.261ZM186.727 25.1746C188.691 25.1746 190.42 24.6092 191.673 23.2784L189.488 21.2223C188.953 21.7906 188.113 22.1746 186.727 22.1746V25.1746ZM191.673 23.2784C192.909 21.9653 193.421 20.1924 193.421 18.187H190.421C190.421 19.7004 190.04 20.6364 189.488 21.2223L191.673 23.2784ZM193.421 18.187V0.59322H190.421V18.187H193.421ZM191.921 2.09322H199.084V-0.90678H191.921V2.09322ZM197.584 0.59322V18.1451H200.584V0.59322H197.584ZM197.584 18.1451C197.584 20.5569 197.072 22.49 196.131 24.0195L198.686 25.5918C199.979 23.4909 200.584 20.9836 200.584 18.1451H197.584ZM196.131 24.0195C195.162 25.594 193.869 26.7658 192.23 27.5614L193.539 30.2603C195.698 29.2128 197.421 27.6477 198.686 25.5918L196.131 24.0195ZM192.222 27.5652C190.579 28.3744 188.715 28.7932 186.601 28.7932V31.7932C189.123 31.7932 191.448 31.2905 193.547 30.2565L192.222 27.5652ZM186.601 28.7932C184.48 28.7932 182.628 28.3855 181.014 27.603L179.705 30.3025C181.777 31.3073 184.086 31.7932 186.601 31.7932V28.7932ZM181.038 27.6152C179.489 26.8285 178.261 25.6658 177.34 24.0905L174.75 25.6046C175.951 27.6598 177.6 29.2339 179.68 30.2903L181.038 27.6152ZM177.345 24.0991C176.442 22.5312 175.953 20.5686 175.953 18.1451H172.953C172.953 20.9719 173.525 23.4775 174.745 25.596L177.345 24.0991ZM175.953 18.1451V0.59322H172.953V18.1451H175.953ZM174.453 2.09322H181.616V-0.90678H174.453V2.09322ZM211.906 29.246L211.337 30.6339L211.906 29.246ZM207.801 26.1461L206.592 27.0342L206.598 27.0422L206.604 27.05L207.801 26.1461ZM206.209 21.2031V19.7031H204.665L204.709 21.2466L206.209 21.2031ZM213.833 21.2031L215.325 21.0501L215.187 19.7031H213.833V21.2031ZM214.964 23.7165L213.952 24.8242L213.966 24.8365L213.979 24.8484L214.964 23.7165ZM219.991 23.8422L220.908 25.0291L220.924 25.0163L220.94 25.0031L219.991 23.8422ZM220.158 19.9883L219.097 21.049L219.113 21.0641L219.128 21.0788L220.158 19.9883ZM218.357 18.8154L217.753 20.1883L217.763 20.1927L217.772 20.1968L218.357 18.8154ZM215.341 17.7681L214.898 19.2013L214.905 19.2036L214.913 19.2057L215.341 17.7681ZM207.591 13.4116L208.788 12.5069V12.5069L207.591 13.4116ZM209.267 2.52016L210.185 3.70603L210.196 3.69791L209.267 2.52016ZM224.85 2.52016L223.921 3.69795L223.931 3.70598L224.85 2.52016ZM228.033 8.97122V10.4712H229.611L229.532 8.89556L228.033 8.97122ZM220.284 8.97122L218.786 9.0593L218.869 10.4712H220.284V8.97122ZM219.237 6.75105L218.252 7.88296L218.267 7.89541L218.281 7.90749L219.237 6.75105ZM214.671 6.62538L215.637 7.77275L215.654 7.75825L215.671 7.74324L214.671 6.62538ZM215.215 10.8144L215.981 9.5246L215.215 10.8144ZM219.404 12.5319L219.885 11.1109L219.875 11.1078L219.866 11.1047L219.404 12.5319ZM224.012 14.375L223.341 15.7167L223.354 15.7229L224.012 14.375ZM227.112 16.9303L225.926 17.8492V17.8492L227.112 16.9303ZM227.112 25.811L225.844 25.009L225.838 25.0184L225.833 25.0278L227.112 25.811ZM223.426 29.0784L222.755 27.7368L223.426 29.0784ZM217.687 28.7932C215.699 28.7932 213.97 28.4709 212.475 27.858L211.337 30.6339C213.249 31.4174 215.373 31.7932 217.687 31.7932V28.7932ZM212.475 27.858C211.001 27.2541 209.857 26.38 208.998 25.2422L206.604 27.05C207.811 28.6491 209.403 29.8415 211.337 30.6339L212.475 27.858ZM209.009 25.258C208.208 24.1674 207.756 22.8247 207.708 21.1596L204.709 21.2466C204.773 23.4353 205.382 25.388 206.592 27.0342L209.009 25.258ZM206.209 22.7031H213.833V19.7031H206.209V22.7031ZM212.341 21.3561C212.48 22.7135 212.973 23.93 213.952 24.8242L215.975 22.6088C215.67 22.3301 215.409 21.871 215.325 21.0501L212.341 21.3561ZM213.979 24.8484C214.95 25.6925 216.163 26.0543 217.477 26.0543V23.0543C216.725 23.0543 216.262 22.8576 215.948 22.5846L213.979 24.8484ZM217.477 26.0543C218.75 26.0543 219.949 25.7698 220.908 25.0291L219.073 22.6552C218.803 22.8641 218.327 23.0543 217.477 23.0543V26.0543ZM220.94 25.0031C221.937 24.1874 222.412 23.0588 222.412 21.7896H219.412C219.412 22.2518 219.272 22.4916 219.041 22.6812L220.94 25.0031ZM222.412 21.7896C222.412 20.674 222.007 19.6715 221.188 18.8978L219.128 21.0788C219.314 21.2546 219.412 21.4529 219.412 21.7896H222.412ZM221.219 18.9276C220.586 18.2947 219.815 17.8035 218.941 17.4339L217.772 20.1968C218.351 20.4416 218.781 20.7324 219.097 21.049L221.219 18.9276ZM218.961 17.4424C218.178 17.0977 217.102 16.7277 215.769 16.3305L214.913 19.2057C216.204 19.5905 217.14 19.9187 217.753 20.1883L218.961 17.4424ZM215.783 16.3349C213.926 15.7614 212.456 15.2013 211.349 14.6609L210.033 17.3566C211.328 17.9891 212.957 18.6019 214.898 19.2013L215.783 16.3349ZM211.349 14.6609C210.376 14.1854 209.522 13.4782 208.788 12.5069L206.395 14.3162C207.392 15.6349 208.605 16.6592 210.033 17.3566L211.349 14.6609ZM208.788 12.5069C208.169 11.6882 207.793 10.5393 207.793 8.92933H204.793C204.793 11.0056 205.282 12.845 206.395 14.3162L208.788 12.5069ZM207.793 8.92933C207.793 6.60779 208.606 4.92933 210.185 3.70598L208.348 1.33433C205.962 3.18292 204.793 5.77725 204.793 8.92933H207.793ZM210.196 3.69791C211.851 2.39213 214.08 1.67432 217.016 1.67432V-1.32568C213.585 -1.32568 210.648 -0.479596 208.338 1.34241L210.196 3.69791ZM217.016 1.67432C220.015 1.67432 222.27 2.39555 223.921 3.69791L225.779 1.34241C223.464 -0.483019 220.496 -1.32568 217.016 -1.32568V1.67432ZM223.931 3.70598C225.53 4.94432 226.415 6.66799 226.535 9.04688L229.532 8.89556C229.372 5.74497 228.135 3.16793 225.768 1.33433L223.931 3.70598ZM228.033 7.47122H220.284V10.4712H228.033V7.47122ZM221.781 8.88314C221.705 7.58246 221.202 6.42927 220.192 5.59461L218.281 7.90749C218.555 8.13404 218.751 8.46096 218.786 9.0593L221.781 8.88314ZM220.221 5.61914C219.258 4.78156 218.063 4.41325 216.765 4.41325V7.41325C217.478 7.41325 217.931 7.60348 218.252 7.88296L220.221 5.61914ZM216.765 4.41325C215.614 4.41325 214.532 4.73616 213.67 5.50752L215.671 7.74324C215.87 7.5651 216.185 7.41325 216.765 7.41325V4.41325ZM213.704 5.47801C212.754 6.27866 212.375 7.40532 212.375 8.59421H215.375C215.375 8.05164 215.526 7.86575 215.637 7.77275L213.704 5.47801ZM212.375 8.59421C212.375 10.1309 213.152 11.3342 214.449 12.1042L215.981 9.5246C215.49 9.23338 215.375 8.95656 215.375 8.59421H212.375ZM214.449 12.1042C215.49 12.7222 217.015 13.3356 218.942 13.959L219.866 11.1047C217.995 10.4994 216.727 9.96773 215.981 9.5246L214.449 12.1042ZM218.923 13.9528C220.788 14.5833 222.253 15.1725 223.341 15.7167L224.683 13.0334C223.425 12.4046 221.819 11.7651 219.885 11.1109L218.923 13.9528ZM223.354 15.7229C224.336 16.2028 225.193 16.9029 225.926 17.8492L228.297 16.0115C227.299 14.7236 226.089 13.7202 224.67 13.0272L223.354 15.7229ZM225.926 17.8492C226.543 18.6444 226.91 19.7351 226.91 21.245H229.91C229.91 19.2361 229.413 17.4504 228.297 16.0115L225.926 17.8492ZM226.91 21.245C226.91 22.6471 226.553 23.8892 225.844 25.009L228.379 26.613C229.402 24.996 229.91 23.1941 229.91 21.245H226.91ZM225.833 25.0278C225.16 26.127 224.157 27.0359 222.755 27.7368L224.096 30.4201C225.934 29.5012 227.389 28.2318 228.391 26.5942L225.833 25.0278ZM222.755 27.7368C221.384 28.4222 219.71 28.7932 217.687 28.7932V31.7932C220.076 31.7932 222.228 31.3544 224.096 30.4201L222.755 27.7368ZM242.914 0.59322H244.414V-0.90678H242.914V0.59322ZM242.914 30V31.5H244.414V30H242.914ZM235.751 30H234.251V31.5H235.751V30ZM235.751 0.59322V-0.90678H234.251V0.59322H235.751ZM241.414 0.59322V30H244.414V0.59322H241.414ZM242.914 28.5H235.751V31.5H242.914V28.5ZM237.251 30V0.59322H234.251V30H237.251ZM235.751 2.09322H242.914V-0.90678H235.751V2.09322ZM277.345 30V31.5H278.845V30H277.345ZM270.181 30L268.93 30.8267L269.374 31.5H270.181V30ZM258.201 11.8616L259.452 11.0349L256.701 6.86901V11.8616H258.201ZM258.201 30V31.5H259.701V30H258.201ZM251.038 30H249.538V31.5H251.038V30ZM251.038 0.59322V-0.90678H249.538V0.59322H251.038ZM258.201 0.59322L259.454 -0.230835L259.01 -0.90678H258.201V0.59322ZM270.181 18.8154L268.928 19.6394L271.681 23.8272V18.8154H270.181ZM270.181 0.59322V-0.90678H268.681V0.59322H270.181ZM277.345 0.59322H278.845V-0.90678H277.345V0.59322ZM277.345 28.5H270.181V31.5H277.345V28.5ZM271.433 29.1733L259.452 11.0349L256.949 12.6883L268.93 30.8267L271.433 29.1733ZM256.701 11.8616V30H259.701V11.8616H256.701ZM258.201 28.5H251.038V31.5H258.201V28.5ZM252.538 30V0.59322H249.538V30H252.538ZM251.038 2.09322H258.201V-0.90678H251.038V2.09322ZM256.947 1.41727L268.928 19.6394L271.435 17.9913L259.454 -0.230835L256.947 1.41727ZM271.681 18.8154V0.59322H268.681V18.8154H271.681ZM270.181 2.09322H277.345V-0.90678H270.181V2.09322ZM275.845 0.59322V30H278.845V0.59322H275.845ZM292.632 6.33215V4.83215H291.132V6.33215H292.632ZM292.632 12.2805H291.132V13.7805H292.632V12.2805ZM302.225 12.2805H303.725V10.7805H302.225V12.2805ZM302.225 17.81V19.31H303.725V17.81H302.225ZM292.632 17.81V16.31H291.132V17.81H292.632ZM292.632 24.2611H291.132V25.7611H292.632V24.2611ZM303.482 24.2611H304.982V22.7611H303.482V24.2611ZM303.482 30V31.5H304.982V30H303.482ZM285.469 30H283.969V31.5H285.469V30ZM285.469 0.59322V-0.90678H283.969V0.59322H285.469ZM303.482 0.59322H304.982V-0.90678H303.482V0.59322ZM303.482 6.33215V7.83215H304.982V6.33215H303.482ZM291.132 6.33215V12.2805H294.132V6.33215H291.132ZM292.632 13.7805H302.225V10.7805H292.632V13.7805ZM300.725 12.2805V17.81H303.725V12.2805H300.725ZM302.225 16.31H292.632V19.31H302.225V16.31ZM291.132 17.81V24.2611H294.132V17.81H291.132ZM292.632 25.7611H303.482V22.7611H292.632V25.7611ZM301.982 24.2611V30H304.982V24.2611H301.982ZM303.482 28.5H285.469V31.5H303.482V28.5ZM286.969 30V0.59322H283.969V30H286.969ZM285.469 2.09322H303.482V-0.90678H285.469V2.09322ZM301.982 0.59322V6.33215H304.982V0.59322H301.982ZM303.482 4.83215H292.632V7.83215H303.482V4.83215ZM315.924 29.246L315.355 30.6339L315.924 29.246ZM311.819 26.1461L310.61 27.0342L310.616 27.0422L310.622 27.05L311.819 26.1461ZM310.227 21.2031V19.7031H308.683L308.727 21.2466L310.227 21.2031ZM317.851 21.2031L319.343 21.0501L319.205 19.7031H317.851V21.2031ZM318.982 23.7165L317.97 24.8242L317.984 24.8365L317.998 24.8484L318.982 23.7165ZM324.009 23.8422L324.926 25.0291L324.942 25.0163L324.959 25.0031L324.009 23.8422ZM324.176 19.9883L323.116 21.049L323.131 21.0641L323.146 21.0788L324.176 19.9883ZM322.375 18.8154L321.771 20.1883L321.781 20.1927L321.79 20.1968L322.375 18.8154ZM319.359 17.7681L318.916 19.2013L318.923 19.2036L318.931 19.2057L319.359 17.7681ZM311.609 13.4116L312.806 12.5069V12.5069L311.609 13.4116ZM313.285 2.52016L314.203 3.70603L314.214 3.69791L313.285 2.52016ZM328.868 2.52016L327.939 3.69795L327.949 3.70598L328.868 2.52016ZM332.052 8.97122V10.4712H333.629L333.55 8.89556L332.052 8.97122ZM324.302 8.97122L322.804 9.0593L322.888 10.4712H324.302V8.97122ZM323.255 6.75105L322.27 7.88296L322.285 7.89541L322.299 7.90749L323.255 6.75105ZM318.689 6.62538L319.655 7.77275L319.672 7.75825L319.689 7.74324L318.689 6.62538ZM319.233 10.8144L319.999 9.5246L319.233 10.8144ZM323.422 12.5319L323.903 11.1109L323.893 11.1078L323.884 11.1047L323.422 12.5319ZM328.03 14.375L327.359 15.7167L327.372 15.7229L328.03 14.375ZM331.13 16.9303L329.944 17.8492V17.8492L331.13 16.9303ZM331.13 25.811L329.862 25.009L329.856 25.0184L329.851 25.0278L331.13 25.811ZM327.444 29.0784L326.773 27.7368L327.444 29.0784ZM321.705 28.7932C319.717 28.7932 317.988 28.4709 316.493 27.858L315.355 30.6339C317.267 31.4174 319.392 31.7932 321.705 31.7932V28.7932ZM316.493 27.858C315.019 27.2541 313.875 26.38 313.016 25.2422L310.622 27.05C311.829 28.6491 313.422 29.8415 315.355 30.6339L316.493 27.858ZM313.027 25.258C312.226 24.1674 311.774 22.8247 311.726 21.1596L308.727 21.2466C308.791 23.4353 309.4 25.388 310.61 27.0342L313.027 25.258ZM310.227 22.7031H317.851V19.7031H310.227V22.7031ZM316.359 21.3561C316.498 22.7135 316.991 23.93 317.97 24.8242L319.993 22.6088C319.688 22.3301 319.427 21.871 319.343 21.0501L316.359 21.3561ZM317.998 24.8484C318.968 25.6925 320.181 26.0543 321.495 26.0543V23.0543C320.743 23.0543 320.28 22.8576 319.966 22.5846L317.998 24.8484ZM321.495 26.0543C322.768 26.0543 323.967 25.7698 324.926 25.0291L323.091 22.6552C322.821 22.8641 322.345 23.0543 321.495 23.0543V26.0543ZM324.959 25.0031C325.956 24.1874 326.43 23.0588 326.43 21.7896H323.43C323.43 22.2518 323.291 22.4916 323.059 22.6812L324.959 25.0031ZM326.43 21.7896C326.43 20.674 326.025 19.6715 325.206 18.8978L323.146 21.0788C323.332 21.2546 323.43 21.4529 323.43 21.7896H326.43ZM325.237 18.9276C324.604 18.2947 323.833 17.8035 322.959 17.4339L321.79 20.1968C322.369 20.4416 322.799 20.7324 323.116 21.049L325.237 18.9276ZM322.979 17.4424C322.196 17.0977 321.12 16.7277 319.787 16.3305L318.931 19.2057C320.222 19.5905 321.158 19.9187 321.771 20.1883L322.979 17.4424ZM319.801 16.3349C317.944 15.7614 316.474 15.2013 315.367 14.6609L314.051 17.3566C315.346 17.9891 316.975 18.6019 318.916 19.2013L319.801 16.3349ZM315.367 14.6609C314.394 14.1854 313.54 13.4782 312.806 12.5069L310.413 14.3162C311.41 15.6349 312.623 16.6592 314.051 17.3566L315.367 14.6609ZM312.806 12.5069C312.187 11.6882 311.811 10.5393 311.811 8.92933H308.811C308.811 11.0056 309.3 12.845 310.413 14.3162L312.806 12.5069ZM311.811 8.92933C311.811 6.60779 312.624 4.92933 314.203 3.70598L312.366 1.33433C309.98 3.18292 308.811 5.77725 308.811 8.92933H311.811ZM314.214 3.69791C315.869 2.39213 318.098 1.67432 321.034 1.67432V-1.32568C317.603 -1.32568 314.666 -0.479596 312.356 1.34241L314.214 3.69791ZM321.034 1.67432C324.033 1.67432 326.288 2.39555 327.939 3.69791L329.797 1.34241C327.482 -0.483019 324.514 -1.32568 321.034 -1.32568V1.67432ZM327.949 3.70598C329.548 4.94432 330.433 6.66799 330.553 9.04688L333.55 8.89556C333.391 5.74497 332.154 3.16793 329.786 1.33433L327.949 3.70598ZM332.052 7.47122H324.302V10.4712H332.052V7.47122ZM325.799 8.88314C325.723 7.58246 325.22 6.42927 324.21 5.59461L322.299 7.90749C322.574 8.13404 322.769 8.46096 322.804 9.0593L325.799 8.88314ZM324.239 5.61914C323.276 4.78156 322.081 4.41325 320.783 4.41325V7.41325C321.496 7.41325 321.949 7.60348 322.27 7.88296L324.239 5.61914ZM320.783 4.41325C319.632 4.41325 318.551 4.73616 317.688 5.50752L319.689 7.74324C319.888 7.5651 320.203 7.41325 320.783 7.41325V4.41325ZM317.722 5.47801C316.772 6.27866 316.393 7.40532 316.393 8.59421H319.393C319.393 8.05164 319.544 7.86575 319.655 7.77275L317.722 5.47801ZM316.393 8.59421C316.393 10.1309 317.171 11.3342 318.467 12.1042L319.999 9.5246C319.509 9.23338 319.393 8.95656 319.393 8.59421H316.393ZM318.467 12.1042C319.508 12.7222 321.033 13.3356 322.96 13.959L323.884 11.1047C322.013 10.4994 320.745 9.96773 319.999 9.5246L318.467 12.1042ZM322.942 13.9528C324.806 14.5833 326.271 15.1725 327.359 15.7167L328.701 13.0334C327.443 12.4046 325.837 11.7651 323.903 11.1109L322.942 13.9528ZM327.372 15.7229C328.355 16.2028 329.211 16.9029 329.944 17.8492L332.316 16.0115C331.318 14.7236 330.107 13.7202 328.688 13.0272L327.372 15.7229ZM329.944 17.8492C330.561 18.6444 330.929 19.7351 330.929 21.245H333.929C333.929 19.2361 333.431 17.4504 332.316 16.0115L329.944 17.8492ZM330.929 21.245C330.929 22.6471 330.571 23.8892 329.862 25.009L332.398 26.613C333.421 24.996 333.929 23.1941 333.929 21.245H330.929ZM329.851 25.0278C329.178 26.127 328.175 27.0359 326.773 27.7368L328.114 30.4201C329.952 29.5012 331.407 28.2318 332.409 26.5942L329.851 25.0278ZM326.773 27.7368C325.402 28.4222 323.728 28.7932 321.705 28.7932V31.7932C324.094 31.7932 326.246 31.3544 328.114 30.4201L326.773 27.7368ZM344.628 29.246L344.06 30.6339L344.628 29.246ZM340.523 26.1461L339.314 27.0342L339.32 27.0422L339.326 27.05L340.523 26.1461ZM338.931 21.2031V19.7031H337.387L337.432 21.2466L338.931 21.2031ZM346.555 21.2031L348.047 21.0501L347.909 19.7031H346.555V21.2031ZM347.686 23.7165L346.675 24.8242L346.688 24.8365L346.702 24.8484L347.686 23.7165ZM352.713 23.8422L353.63 25.0291L353.647 25.0163L353.663 25.0031L352.713 23.8422ZM352.881 19.9883L351.82 21.049L351.835 21.0641L351.851 21.0788L352.881 19.9883ZM351.079 18.8154L350.475 20.1883L350.485 20.1927L350.495 20.1968L351.079 18.8154ZM348.063 17.7681L347.621 19.2013L347.628 19.2036L347.635 19.2057L348.063 17.7681ZM340.314 13.4116L341.51 12.5069V12.5069L340.314 13.4116ZM341.989 2.52016L342.908 3.70603L342.918 3.69791L341.989 2.52016ZM357.572 2.52016L356.643 3.69795L356.654 3.70598L357.572 2.52016ZM360.756 8.97122V10.4712H362.334L362.254 8.89556L360.756 8.97122ZM353.006 8.97122L351.509 9.0593L351.592 10.4712H353.006V8.97122ZM351.959 6.75105L350.975 7.88296L350.989 7.89541L351.004 7.90749L351.959 6.75105ZM347.393 6.62538L348.359 7.77275L348.377 7.75825L348.393 7.74324L347.393 6.62538ZM347.938 10.8144L348.703 9.5246L347.938 10.8144ZM352.127 12.5319L352.607 11.1109L352.598 11.1078L352.588 11.1047L352.127 12.5319ZM356.735 14.375L356.064 15.7167L356.076 15.7229L356.735 14.375ZM359.834 16.9303L358.649 17.8492V17.8492L359.834 16.9303ZM359.834 25.811L358.567 25.009L358.561 25.0184L358.555 25.0278L359.834 25.811ZM356.148 29.0784L355.477 27.7368L356.148 29.0784ZM350.409 28.7932C348.422 28.7932 346.693 28.4709 345.197 27.858L344.06 30.6339C345.971 31.4174 348.096 31.7932 350.409 31.7932V28.7932ZM345.197 27.858C343.724 27.2541 342.579 26.38 341.72 25.2422L339.326 27.05C340.534 28.6491 342.126 29.8415 344.06 30.6339L345.197 27.858ZM341.732 25.258C340.931 24.1674 340.479 22.8247 340.431 21.1596L337.432 21.2466C337.495 23.4353 338.105 25.388 339.314 27.0342L341.732 25.258ZM338.931 22.7031H346.555V19.7031H338.931V22.7031ZM345.063 21.3561C345.202 22.7135 345.696 23.93 346.675 24.8242L348.698 22.6088C348.393 22.3301 348.132 21.871 348.047 21.0501L345.063 21.3561ZM346.702 24.8484C347.673 25.6925 348.886 26.0543 350.2 26.0543V23.0543C349.447 23.0543 348.985 22.8576 348.671 22.5846L346.702 24.8484ZM350.2 26.0543C351.473 26.0543 352.672 25.7698 353.63 25.0291L351.796 22.6552C351.526 22.8641 351.049 23.0543 350.2 23.0543V26.0543ZM353.663 25.0031C354.66 24.1874 355.135 23.0588 355.135 21.7896H352.135C352.135 22.2518 351.995 22.4916 351.763 22.6812L353.663 25.0031ZM355.135 21.7896C355.135 20.674 354.73 19.6715 353.911 18.8978L351.851 21.0788C352.037 21.2546 352.135 21.4529 352.135 21.7896H355.135ZM353.941 18.9276C353.308 18.2947 352.537 17.8035 351.664 17.4339L350.495 20.1968C351.074 20.4416 351.503 20.7324 351.82 21.049L353.941 18.9276ZM351.684 17.4424C350.9 17.0977 349.825 16.7277 348.492 16.3305L347.635 19.2057C348.927 19.5905 349.862 19.9187 350.475 20.1883L351.684 17.4424ZM348.506 16.3349C346.649 15.7614 345.178 15.2013 344.072 14.6609L342.755 17.3566C344.05 17.9891 345.68 18.6019 347.621 19.2013L348.506 16.3349ZM344.072 14.6609C343.098 14.1854 342.245 13.4782 341.51 12.5069L339.117 14.3162C340.114 15.6349 341.327 16.6592 342.755 17.3566L344.072 14.6609ZM341.51 12.5069C340.891 11.6882 340.515 10.5393 340.515 8.92933H337.515C337.515 11.0056 338.005 12.845 339.117 14.3162L341.51 12.5069ZM340.515 8.92933C340.515 6.60779 341.329 4.92933 342.908 3.70598L341.071 1.33433C338.684 3.18292 337.515 5.77725 337.515 8.92933H340.515ZM342.918 3.69791C344.574 2.39213 346.803 1.67432 349.739 1.67432V-1.32568C346.308 -1.32568 343.37 -0.479596 341.06 1.34241L342.918 3.69791ZM349.739 1.67432C352.738 1.67432 354.992 2.39555 356.643 3.69791L358.501 1.34241C356.187 -0.483019 353.219 -1.32568 349.739 -1.32568V1.67432ZM356.654 3.70598C358.252 4.94432 359.138 6.66799 359.258 9.04688L362.254 8.89556C362.095 5.74497 360.858 3.16793 358.491 1.33433L356.654 3.70598ZM360.756 7.47122H353.006V10.4712H360.756V7.47122ZM354.504 8.88314C354.427 7.58246 353.925 6.42927 352.914 5.59461L351.004 7.90749C351.278 8.13404 351.474 8.46096 351.509 9.0593L354.504 8.88314ZM352.943 5.61914C351.98 4.78156 350.786 4.41325 349.488 4.41325V7.41325C350.2 7.41325 350.653 7.60348 350.975 7.88296L352.943 5.61914ZM349.488 4.41325C348.336 4.41325 347.255 4.73616 346.393 5.50752L348.393 7.74324C348.592 7.5651 348.907 7.41325 349.488 7.41325V4.41325ZM346.427 5.47801C345.476 6.27866 345.097 7.40532 345.097 8.59421H348.097C348.097 8.05164 348.249 7.86575 348.359 7.77275L346.427 5.47801ZM345.097 8.59421C345.097 10.1309 345.875 11.3342 347.172 12.1042L348.703 9.5246C348.213 9.23338 348.097 8.95656 348.097 8.59421H345.097ZM347.172 12.1042C348.213 12.7222 349.738 13.3356 351.665 13.959L352.588 11.1047C350.717 10.4994 349.45 9.96773 348.703 9.5246L347.172 12.1042ZM351.646 13.9528C353.51 14.5833 354.975 15.1725 356.064 15.7167L357.405 13.0334C356.148 12.4046 354.541 11.7651 352.607 11.1109L351.646 13.9528ZM356.076 15.7229C357.059 16.2028 357.915 16.9029 358.649 17.8492L361.02 16.0115C360.022 14.7236 358.812 13.7202 357.393 13.0272L356.076 15.7229ZM358.649 17.8492C359.265 18.6444 359.633 19.7351 359.633 21.245H362.633C362.633 19.2361 362.135 17.4504 361.02 16.0115L358.649 17.8492ZM359.633 21.245C359.633 22.6471 359.275 23.8892 358.567 25.009L361.102 26.613C362.125 24.996 362.633 23.1941 362.633 21.245H359.633ZM358.555 25.0278C357.882 26.127 356.879 27.0359 355.477 27.7368L356.819 30.4201C358.657 29.5012 360.111 28.2318 361.114 26.5942L358.555 25.0278ZM355.477 27.7368C354.106 28.4222 352.433 28.7932 350.409 28.7932V31.7932C352.798 31.7932 354.95 31.3544 356.819 30.4201L355.477 27.7368Z" fill="#6947EF"/>
</svg>
